<?xml version="1.0" standalone="no"?>
<!DOCTYPE svg PUBLIC "-//W3C//DTD SVG 1.1//EN" "http://www.w3.org/Graphics/SVG/1.1/DTD/svg11.dtd" >
<svg xmlns="http://www.w3.org/2000/svg" xmlns:xlink="http://www.w3.org/1999/xlink" version="1.1">
<metadata>
Created by Christoph Koeberlin (http://christoph.koe.berlin)
Copyright (c) 2017 Swiss Typefaces Sarl. All rights reserved.
</metadata>
<defs>
<font id="Font" horiz-adv-x="991" >
  <font-face 
    font-family="Font"
    font-weight="500"
    font-stretch="normal"
    units-per-em="1000"
    panose-1="2 0 6 4 0 0 0 0 0 0"
    ascent="800"
    descent="-200"
    x-height="550"
    cap-height="700"
    bbox="-552 -227 1921 1336"
    underline-thickness="45"
    underline-position="-125"
    unicode-range="U+0020-FEFF"
  />
<missing-glyph horiz-adv-x="607" 
d="M110 0v700h387v-700h-387zM409 646h-212l106 -238zM442 603l-113 -253l113 -254v507zM277 350l-112 251v-503zM409 54l-106 237l-106 -237h212z" />
    <glyph glyph-name="f_a.liga" unicode="fa" horiz-adv-x="1299" 
d="M877 420h-247l126 130h151q92 0 155.5 -15.5t102.5 -52.5t56.5 -99t17.5 -155v-228h-149v107q-41 -54 -111 -87t-163 -33q-56 0 -101.5 10.5t-77 32t-48.5 54t-17 76.5v25q0 46 18.5 76t50.5 48t76 25.5t94 7.5h269q-9 26 -27.5 41.5t-44.5 23.5t-59 10.5t-72 2.5z
M30 420v130h109q0 47 17 86t50 67t81 43.5t110 15.5h168l195 -159l-315 35q-74 0 -115.5 -20t-41.5 -68h343l-126 -130h-217v-420h-149v420h-109zM714 172q0 -33 38 -43.5t99 -10.5q31 0 64.5 4.5t66 12t60.5 18.5t48 23v52h-274q-49 0 -75.5 -8.5t-26.5 -37.5v-10z" />
    <glyph glyph-name="f_b.liga" unicode="fb" horiz-adv-x="1399" 
d="M1354 260q0 -62 -21 -112.5t-59 -86t-90 -55t-115 -19.5q-59 0 -109.5 15t-91 39t-70 54t-46.5 60l2 50q17 -14 45.5 -28.5t63 -26t72.5 -18.5t75 -7q43 0 80 8t64.5 24.5t43 42t15.5 60.5v32q0 35 -15.5 60.5t-43 42t-64.5 24.5t-80 8q-37 0 -75 -7t-72.5 -18.5t-63 -26
t-45.5 -28.5l-2 50q17 30 46.5 60t70 54t91 39t109.5 15q63 0 115 -19.5t90 -55t59 -86t21 -112.5v-32zM139 550q0 47 17 86t50 67t81 43.5t110 15.5h168l213 -219v-543h-149v615l-184 23q-74 0 -115.5 -20t-41.5 -68h241v-130h-241v-420h-149v420h-109v130h109z" />
    <glyph glyph-name="f_f.liga" unicode="ff" horiz-adv-x="1120" 
d="M30 550h109q0 47 17 86t50 67t81 43.5t110 15.5h168l96 -99q30 46 87 72.5t139 26.5h168l155 -159l-275 35q-74 0 -115.5 -20t-41.5 -68h284v-130h-284v-420h-149v420h-94v130h94q0 34 9 63l-193 25q-74 0 -115.5 -20t-41.5 -68h182v-130h-182v-420h-149v420h-109v130z
" />
    <glyph glyph-name="f_f_a.liga" unicode="ffa" horiz-adv-x="1789" 
d="M30 420v130h109q0 47 17 86t50 67t81 43.5t110 15.5h168l96 -99q30 46 87 72.5t139 26.5h168l195 -159l-315 35q-74 0 -115.5 -20t-41.5 -68h343l-126 -130h-217v-420h-149v420h-94v130h94q0 34 9 63l-193 25q-74 0 -115.5 -20t-41.5 -68h182v-130h-182v-420h-149v420
h-109zM1367 420h-247l126 130h151q92 0 155.5 -15.5t102.5 -52.5t56.5 -99t17.5 -155v-228h-149v107q-41 -54 -111 -87t-163 -33q-56 0 -101.5 10.5t-77 32t-48.5 54t-17 76.5v25q0 46 18.5 76t50.5 48t76 25.5t94 7.5h269q-9 26 -27.5 41.5t-44.5 23.5t-59 10.5t-72 2.5z
M1204 172q0 -33 38 -43.5t99 -10.5q31 0 64.5 4.5t66 12t60.5 18.5t48 23v52h-274q-49 0 -75.5 -8.5t-26.5 -37.5v-10z" />
    <glyph glyph-name="f_f_b.liga" unicode="ffb" horiz-adv-x="1889" 
d="M30 420v130h109q0 47 17 86t50 67t81 43.5t110 15.5h168l96 -99q30 46 87 72.5t139 26.5h168l213 -219v-109q21 25 50.5 48.5t66 42t80.5 29.5t94 11q63 0 115 -19.5t90 -55t59 -86t21 -112.5v-32q0 -62 -21 -112.5t-59 -86t-90 -55t-115 -19.5q-50 0 -94 11t-80.5 29
t-66 41.5t-50.5 49.5v-118h-149v615l-184 23q-74 0 -115.5 -20t-41.5 -68h241v-130h-241v-420h-149v420h-94v130h94q0 34 9 63l-193 25q-74 0 -115.5 -20t-41.5 -68h182v-130h-182v-420h-149v420h-109zM1500 125q43 0 80 8t64.5 24.5t43 42t15.5 60.5v32q0 35 -15.5 60.5
t-43 42t-64.5 24.5t-80 8q-32 0 -64.5 -5.5t-63 -14t-57.5 -20t-47 -23.5v-176q20 -12 47 -23.5t57.5 -20.5t63 -14t64.5 -5z" />
    <glyph glyph-name="f_f_h.liga" unicode="ffh" horiz-adv-x="1863" 
d="M30 420v130h109q0 47 17 86t50 67t81 43.5t110 15.5h168l96 -99q30 46 87 72.5t139 26.5h168l213 -219v-112q20 28 48.5 52.5t63.5 42.5t75.5 28.5t84.5 10.5q61 0 109 -18.5t81 -53t50.5 -83.5t17.5 -110v-300h-149v270q0 45 -8 75t-26 48.5t-47 26t-71 7.5
q-28 0 -60 -5t-63 -14t-59 -21t-47 -27v-360h-149v615l-184 23q-74 0 -115.5 -20t-41.5 -68h241v-130h-241v-420h-149v420h-94v130h94q0 34 9 63l-193 25q-74 0 -115.5 -20t-41.5 -68h182v-130h-182v-420h-149v420h-109z" />
    <glyph glyph-name="f_f_i.liga" unicode="ffi" horiz-adv-x="1348" 
d="M30 420v130h109q0 47 17 86t50 67t81 43.5t110 15.5h168l96 -99q30 46 87 72.5t139 26.5h168l155 -159l-275 35q-74 0 -115.5 -20t-41.5 -68h241v-130h-241v-420h-149v420h-94v130h94q0 34 9 63l-193 25q-74 0 -115.5 -20t-41.5 -68h182v-130h-182v-420h-149v420h-109z
M1268 550v-550h-149v550h149zM1481 762v-123h-276v123h276z" />
    <glyph glyph-name="f_f_j.liga" unicode="ffj" horiz-adv-x="1373" 
d="M30 550h109q0 47 17 86t50 67t81 43.5t110 15.5h168l96 -99q30 46 87 72.5t139 26.5h168l155 -159l-275 35q-74 0 -115.5 -20t-41.5 -68h515v-483q0 -75 -23 -127t-67.5 -84.5t-109.5 -47t-149 -14.5v133q96 0 148 37.5t52 102.5v353h-366v-420h-149v420h-94v130h94
q0 34 9 63l-193 25q-74 0 -115.5 -20t-41.5 -68h182v-130h-182v-420h-149v420h-109v130zM1506 639h-301v123h301v-123z" />
    <glyph glyph-name="f_f_k.liga" unicode="ffk" horiz-adv-x="1843" 
d="M30 420v130h109q0 47 17 86t50 67t81 43.5t110 15.5h168l96 -99q30 46 87 72.5t139 26.5h168l213 -219v-176l365 183h288l-390 -196l216 -354h-168l-177 289l-134 -67v-222h-149v615l-184 23q-74 0 -115.5 -20t-41.5 -68h241v-130h-241v-420h-149v420h-94v130h94
q0 34 9 63l-193 25q-74 0 -115.5 -20t-41.5 -68h182v-130h-182v-420h-149v420h-109z" />
    <glyph glyph-name="f_f_l.liga" unicode="ffl" horiz-adv-x="1348" 
d="M30 550h109q0 47 17 86t50 67t81 43.5t110 15.5h168l96 -99q30 46 87 72.5t139 26.5h168l213 -219v-543h-149v615l-184 23q-74 0 -115.5 -20t-41.5 -68h241v-130h-241v-420h-149v420h-94v130h94q0 34 9 63l-193 25q-74 0 -115.5 -20t-41.5 -68h182v-130h-182v-420h-149
v420h-109v130z" />
    <glyph glyph-name="f_f_t.liga" unicode="fft" horiz-adv-x="1591" 
d="M30 550h109q0 47 17 86t50 67t81 43.5t110 15.5h168l96 -99q30 46 87 72.5t139 26.5h168l207 -212h190l126 -130h-316v-220l303 -200h-254l-198 131v289h-94v130h94v65l-178 23q-74 0 -115.5 -20t-41.5 -68h176v-130h-176v-420h-149v420h-94v130h94q0 34 9 63l-193 25
q-74 0 -115.5 -20t-41.5 -68h182v-130h-182v-420h-149v420h-109v130z" />
    <glyph glyph-name="f_h.liga" unicode="fh" horiz-adv-x="1373" 
d="M139 550q0 47 17 86t50 67t81 43.5t110 15.5h168l213 -219v-543h-149v615l-184 23q-74 0 -115.5 -20t-41.5 -68h241v-130h-241v-420h-149v420h-109v130h109zM1159 270q0 45 -8 75t-26 48.5t-47 26t-71 7.5q-30 0 -65 -6t-68.5 -16t-62 -24.5t-45.5 -30.5l-2 59
q18 32 47 60.5t66 49.5t81 33.5t92 12.5q61 0 109 -18.5t81 -53t50.5 -83.5t17.5 -110v-300h-149v270z" />
    <glyph glyph-name="f_i.liga" unicode="fi" horiz-adv-x="858" 
d="M30 420v130h109q0 47 17 86t50 67t81 43.5t110 15.5h168l155 -159l-275 35q-74 0 -115.5 -20t-41.5 -68h241v-130h-241v-420h-149v420h-109zM778 550v-550h-149v550h149zM991 762v-123h-276v123h276z" />
    <glyph glyph-name="f_j.liga" unicode="fj" horiz-adv-x="883" 
d="M445 638q-74 0 -115.5 -20t-41.5 -68h515v-483q0 -75 -23 -127t-67.5 -84.5t-109.5 -47t-149 -14.5v133q96 0 148 37.5t52 102.5v353h-366v-420h-149v420h-109v130h109q0 47 17 86t50 67t81 43.5t110 15.5h168l155 -159zM1016 639h-301v123h301v-123z" />
    <glyph glyph-name="f_k.liga" unicode="fk" horiz-adv-x="1353" 
d="M1089 0l-177 289l-134 -67v-222h-149v615l-184 23q-74 0 -115.5 -20t-41.5 -68h241v-130h-241v-420h-149v420h-109v130h109q0 47 17 86t50 67t81 43.5t110 15.5h168l213 -219v-176l365 183h288l-390 -196l216 -354h-168z" />
    <glyph glyph-name="f_l.liga" unicode="fl" horiz-adv-x="858" 
d="M139 550q0 47 17 86t50 67t81 43.5t110 15.5h168l213 -219v-543h-149v615l-184 23q-74 0 -115.5 -20t-41.5 -68h241v-130h-241v-420h-149v420h-109v130h109z" />
    <glyph glyph-name="f_t.liga" unicode="ft" horiz-adv-x="1101" 
d="M623 131v289h-94v130h94v65l-178 23q-74 0 -115.5 -20t-41.5 -68h176v-130h-176v-420h-149v420h-109v130h109q0 47 17 86t50 67t81 43.5t110 15.5h168l207 -212h190l126 -130h-316v-220l303 -200h-254z" />
    <glyph glyph-name="k_a.liga" unicode="ka" horiz-adv-x="1529" 
d="M1107 420h-329l259 130h100q92 0 155.5 -15.5t102.5 -52.5t56.5 -99t17.5 -155v-228h-149v107q-41 -54 -111 -87t-163 -33q-56 0 -101.5 10.5t-77 32t-48.5 54t-17 76.5v25q0 46 18.5 76t50.5 48t76 25.5t94 7.5h269q-9 26 -27.5 41.5t-44.5 23.5t-59 10.5t-72 2.5z
M540 0l-177 289l-134 -67v-222h-149v762h149v-395l365 183h288l-390 -196l216 -354h-168zM944 172q0 -33 38 -43.5t99 -10.5q31 0 64.5 4.5t66 12t60.5 18.5t48 23v52h-274q-49 0 -75.5 -8.5t-26.5 -37.5v-10z" />
    <glyph glyph-name="k_f.liga" unicode="kf" horiz-adv-x="1394" 
d="M540 0l-177 289l-134 -67v-222h-149v762h149v-395l365 183h309q0 47 17 86t50 67t81 43.5t110 15.5h168l155 -159l-275 35q-74 0 -115.5 -20t-41.5 -68h284v-130h-284v-420h-149v420h-280l-131 -66l216 -354h-168z" />
    <glyph glyph-name="k_j.liga" unicode="kj" horiz-adv-x="1159" 
d="M540 0l-177 289l-134 -67v-222h-149v762h149v-395l365 183h485v-483q0 -75 -23 -127t-67.5 -84.5t-109.5 -47t-149 -14.5v133q96 0 148 37.5t52 102.5v353h-307l-131 -66l216 -354h-168zM1292 762v-123h-362v123h362z" />
    <glyph glyph-name="k_t.liga" unicode="kt" horiz-adv-x="1326" 
d="M1046 0l-198 131v289h-225l-131 -66l216 -354h-168l-177 289l-134 -67v-222h-149v762h149v-395l365 183h254v150h149v-150h190l126 -130h-316v-220l303 -200h-254z" />
    <glyph glyph-name="k_z.liga" unicode="kz" horiz-adv-x="1422" 
d="M1399 130v-130h-591v130l345 290h-530l-131 -66l216 -354h-168l-177 289l-134 -67v-222h-149v762h149v-395l365 183h739v-130l-346 -290h412z" />
    <glyph glyph-name="r_j.liga" unicode="rj" horiz-adv-x="924" 
d="M495 -73q96 0 148 37.5t52 102.5v353h-124v130h273v-483q0 -75 -23 -127t-67.5 -84.5t-109.5 -47t-149 -14.5v133zM229 550v-130q9 21 25 42.5t37 41t47.5 34t58.5 20.5l159 -164h-144q-62 0 -108.5 -13.5t-74.5 -42.5v-338h-149v550h149zM1057 762v-123h-362v123h362z
" />
    <glyph glyph-name="t_t.liga" unicode="tt" horiz-adv-x="1116" 
d="M346 0l-198 131v289h-125v130h125v150h149v-150h140l126 -130h-266v-220l303 -200h-254zM836 0l-198 131v289l-126 130h126v150h149v-150h190l126 -130h-316v-220l303 -200h-254z" />
    <glyph glyph-name=".notdef" horiz-adv-x="607" 
d="M110 0v700h387v-700h-387zM409 646h-212l106 -238zM442 603l-113 -253l113 -254v507zM277 350l-112 251v-503zM409 54l-106 237l-106 -237h212z" />
    <glyph glyph-name="glyph1" horiz-adv-x="0" 
 />
    <glyph glyph-name="glyph2" horiz-adv-x="350" 
 />
    <glyph glyph-name="space" unicode=" " horiz-adv-x="350" 
 />
    <glyph glyph-name="exclam" unicode="!" horiz-adv-x="579" 
d="M365 203h-151v497h151v-497zM70 144h439v-144h-439v144z" />
    <glyph glyph-name="quotedbl" unicode="&#x22;" horiz-adv-x="550" 
d="M314 366v334h156v-334h-156zM80 366v334h156v-334h-156z" />
    <glyph glyph-name="numbersign" unicode="#" horiz-adv-x="614" 
d="M426 216l-53 -216h-47l53 216h-211l-53 -216h-47l53 216h-71v45h82l44 178h-81v45h92l54 216h47l-54 -216h211l54 216h47l-54 -216h72v-45h-83l-44 -178h82v-45h-93zM179 261h211l44 178h-211z" />
    <glyph glyph-name="dollar" unicode="$" horiz-adv-x="976" 
d="M65 520v27q0 86 56 119.5t160 33.5h303l141 -142h-511q0 -42 52.5 -65.5t152.5 -38.5l302 -46q106 -16 162 -59.5t56 -117.5v-43q0 -98 -106.5 -149.5t-312.5 -51.5q-101 0 -187.5 17t-151 52.5t-102.5 91t-41 132.5h154q8 -43 36 -72t71.5 -46.5t99.5 -25t120 -7.5
q75 0 126 5t82 14t44.5 22t13.5 29v14q0 27 -25.5 39t-78.5 20l-344 52q-61 9 -111 25.5t-86 41t-55.5 57t-19.5 72.5zM497 -62v824h45v-824h-45z" />
    <glyph glyph-name="percent" unicode="%" horiz-adv-x="1089" 
d="M285 720q55 0 101 -9t79.5 -29t52 -52.5t18.5 -79.5v-26q0 -47 -18.5 -79.5t-52 -52.5t-79.5 -29t-101 -9t-101 9t-79 29t-51.5 52.5t-18.5 79.5v26q0 47 18.5 79.5t51.5 52.5t79 29t101 9zM803 353q55 0 101 -9t79.5 -29t52 -52.5t18.5 -79.5v-26q0 -47 -18.5 -79.5
t-52 -52.5t-79.5 -29t-101 -9t-101 9t-79 29t-51.5 52.5t-18.5 79.5v26q0 47 18.5 79.5t51.5 52.5t79 29t101 9zM878 720l32 -32l-700 -701l-32 32zM803 85q30 0 57 3l-112 141h87l88 -112q14 17 14 43v20q0 25 -11.5 39.5t-30 22.5t-43 10.5t-49.5 2.5t-48.5 -2.5
t-42 -10.5t-30 -22.5t-11.5 -39.5v-20q0 -25 11.5 -39.5t30 -22.5t42 -10.5t48.5 -2.5zM285 452q30 0 57 3l-112 141h87l88 -112q14 17 14 43v20q0 25 -11.5 39.5t-30 22.5t-43 10.5t-49.5 2.5t-48.5 -2.5t-42 -10.5t-30 -22.5t-11.5 -39.5v-20q0 -25 11.5 -39.5t30 -22.5
t42 -10.5t48.5 -2.5z" />
    <glyph glyph-name="ampersand" unicode="&#x26;" horiz-adv-x="837" 
d="M36 0l290 343l-301 357h787l-301 -357l409 -483h-185l-317 374l-87 -104h130l110 -130h-535zM418 453l99 117h-197z" />
    <glyph glyph-name="quotesingle" unicode="'" horiz-adv-x="316" 
d="M80 366v334h156v-334h-156z" />
    <glyph glyph-name="parenleft" unicode="(" horiz-adv-x="356" 
d="M196 328q0 -48 12 -93.5t32.5 -84.5t48 -69.5t57.5 -49.5v-135q-68 28 -119 73.5t-84.5 102.5t-50.5 122.5t-17 133.5t17 133.5t50.5 122.5t84.5 102.5t119 73.5v-135q-30 -19 -57.5 -49.5t-48 -69.5t-32.5 -84.5t-12 -93.5z" />
    <glyph glyph-name="parenright" unicode=")" horiz-adv-x="356" 
d="M159.99 328q0 -48 -11.999 -93.5t-32.498 -84.5t-47.9971 -69.5t-57.4971 -49.5v-135q67.9961 28 118.993 73.5t84.4951 102.5t50.4971 122.5q16.998 65.5 16.998 133.5t-16.998 133.5q-16.999 65.5 -50.4971 122.5t-84.4951 102.5t-118.993 73.5v-135
q29.999 -19 57.4971 -49.5t47.9971 -69.5t32.498 -84.5t11.999 -93.5z" />
    <glyph glyph-name="asterisk" unicode="*" horiz-adv-x="449" 
d="M130 339l-37 25l96 131l-154 50l13 43l154 -50v162h45v-162l154 50l13 -43l-154 -50l96 -131l-37 -25l-94 131z" />
    <glyph glyph-name="plus" unicode="+" horiz-adv-x="595" 
d="M275 277h-175v45h175v175h45v-175h175v-45h-175v-175h-45v175z" />
    <glyph glyph-name="comma" unicode="," horiz-adv-x="558" 
d="M294 134h229l-441 -274h-229z" />
    <glyph glyph-name="hyphen" unicode="-" horiz-adv-x="568" 
d="M70 228v143h428v-143h-428z" />
    <glyph glyph-name="period" unicode="." horiz-adv-x="428" 
d="M70 144h288v-144h-288v144z" />
    <glyph glyph-name="slash" unicode="/" horiz-adv-x="632" 
d="M632 700l-483 -700h-149l483 700h149z" />
    <glyph glyph-name="zero" unicode="0" horiz-adv-x="1112" 
d="M556 720q109 0 201 -18t159 -58.5t104 -105.5t37 -159v-51q0 -94 -37 -159t-104 -105.5t-159 -58.5t-201 -18q-110 0 -201.5 18t-158.5 58.5t-104 105.5t-37 159v51q0 94 37 159t104 105.5t158.5 58.5t201.5 18zM556 127q60 0 118 5t106 21l-309 389h175l243 -306
q22 39 22 92v51q0 66 -30.5 106t-80 61t-113.5 27.5t-131 6.5t-131 -6.5t-113.5 -27.5t-80 -61t-30.5 -106v-51q0 -66 30.5 -106t80 -61t113.5 -27.5t131 -6.5z" />
    <glyph glyph-name="one" unicode="1" horiz-adv-x="646" 
d="M396 142h190v-142h-536v142h195l67 416h-133v142h308z" />
    <glyph glyph-name="two" unicode="2" horiz-adv-x="940" 
d="M409 700h501q0 -78 -31 -136t-79 -100.5t-105 -72.5t-108 -52q-96 -41 -164.5 -70.5t-112 -51.5t-64 -39.5t-20.5 -35.5h603v-142h-769v115q0 57 20 95.5t65 71.5t116.5 66.5t174.5 80.5q27 12 59.5 24.5t65.5 27.5t65 33.5t60 43.5h-300zM374 700l-38 -240h-151l39 240
h150z" />
    <glyph glyph-name="three" unicode="3" horiz-adv-x="947" 
d="M382 424q27 12 58.5 25t63 29t62.5 35.5t57 44.5h-282l23 142h471v-131q-27 -48 -73 -85.5t-97 -66.5q61 -6 105 -19t72 -34t41.5 -51.5t13.5 -73.5v-41q0 -56 -25.5 -96t-78.5 -65.5t-134.5 -37.5t-192.5 -12t-192.5 12t-134.5 37.5t-78.5 65.5t-25.5 96v55h146v-25
q0 -25 15 -44t49 -31.5t88.5 -19t132.5 -6.5t132.5 5.5t88.5 17t49 28.5t15 41v6q0 25 -17.5 38t-54 18.5t-93 6t-134.5 0.5h-70v136zM179 700l-39 -240h151l38 240h-150z" />
    <glyph glyph-name="four" unicode="4" horiz-adv-x="932" 
d="M35 330h649l40 249l169 111l-111 -690h-150l30 188h-627v142zM35 330l565 370h247l-566 -370h-246z" />
    <glyph glyph-name="five" unicode="5" horiz-adv-x="956" 
d="M902 198q0 -56 -25.5 -96t-78.5 -65.5t-134.5 -37.5t-192.5 -12t-192.5 12t-134.5 37.5t-78.5 65.5t-25.5 96v55h146v-25q0 -25 15 -44t49 -31.5t88.5 -19t132.5 -6.5t132.5 5.5t88.5 17t49 29t15 40.5q0 25 -12.5 39t-43.5 21t-83 8t-130 1h-301l-66 412h456l23 -142
h-306l21 -128h183q111 0 188.5 -9t125.5 -30.5t69.5 -58.5t21.5 -93v-41zM761 700h-150l35 -218h151z" />
    <glyph glyph-name="six" unicode="6" horiz-adv-x="960" 
d="M905 198q0 -56 -25.5 -96t-78.5 -65.5t-134.5 -37.5t-192.5 -12q-223 0 -327 49.5t-104 161.5v21q0 53 22 89t68 66l498 326h251l-414 -270h6q111 0 192.5 -12t134.5 -37.5t78.5 -65.5t25.5 -96v-21zM759 213q0 42 -69.5 59.5t-215.5 17.5t-215.5 -17.5t-69.5 -59.5v-9
q0 -42 69.5 -59.5t215.5 -17.5t215.5 17.5t69.5 59.5v9z" />
    <glyph glyph-name="seven" unicode="7" horiz-adv-x="921" 
d="M244 0l433 558h-422l23 142h588v-140l-436 -560h-186zM243 700l-45 -280h-151l46 280h150z" />
    <glyph glyph-name="eight" unicode="8" horiz-adv-x="957" 
d="M45 219q0 116 115 166l51 315h644l-52 -319q104 -51 104 -162v-20q0 -56 -25.5 -96t-78.5 -65.5t-134.5 -37.5t-192.5 -12q-223 0 -327 49.5t-104 161.5v20zM191 213v-8q0 -42 69.5 -59.5t215.5 -17.5t215.5 17.5t69.5 59.5v8q0 42 -69.5 59.5t-215.5 17.5t-215.5 -17.5
t-69.5 -59.5zM476 430q53 0 98 -3t84 -8l22 136h-342l-21 -133q35 4 74.5 6t84.5 2z" />
    <glyph glyph-name="nine" unicode="9" horiz-adv-x="960" 
d="M55 509q0 56 25.5 96t78.5 65.5t134.5 37.5t192.5 12q223 0 327 -49.5t104 -161.5v-21q0 -53 -22 -89t-68 -66l-508 -333h-251l423 277h-5q-111 0 -192.5 12t-134.5 37.5t-78.5 65.5t-25.5 96v21zM201 494q0 -42 69.5 -59.5t215.5 -17.5t215.5 17.5t69.5 59.5v9
q0 42 -69.5 59.5t-215.5 17.5t-215.5 -17.5t-69.5 -59.5v-9z" />
    <glyph glyph-name="colon" unicode=":" horiz-adv-x="428" 
d="M70 520h288v-144h-288v144zM70 144h288v-144h-288v144z" />
    <glyph glyph-name="semicolon" unicode=";" horiz-adv-x="568" 
d="M70 520h428v-144h-428v144zM294 134h229l-441 -274h-229z" />
    <glyph glyph-name="less" unicode="&#x3c;" horiz-adv-x="595" 
d="M185 300l239 -239l-32 -31l-270 270l270 270l32 -31z" />
    <glyph glyph-name="equal" unicode="=" horiz-adv-x="595" 
d="M100 180v45h395v-45h-395zM100 375v45h395v-45h-395z" />
    <glyph glyph-name="greater" unicode="&#x3e;" horiz-adv-x="595" 
d="M409.975 300l-238.985 -239l31.998 -31l269.983 270l-269.983 270l-31.998 -31z" />
    <glyph glyph-name="question" unicode="?" horiz-adv-x="796" 
d="M779 700q0 -77 -33.5 -135t-83 -101t-105.5 -73t-101 -49q-24 -11 -40.5 -21t-26.5 -22.5t-14 -30t-4 -42.5v-33h-152v73q0 34 14 63.5t38 54.5t55 44.5t65 34.5q43 19 85.5 41t78.5 54h-335l-15 -98h-151l39 240h686zM75 144h439v-144h-439v144z" />
    <glyph glyph-name="at" unicode="@" horiz-adv-x="1128" 
d="M769 178q-19 -13 -47.5 -24t-61 -19t-67.5 -12.5t-66 -4.5q-61 0 -99 10.5t-38 43.5v10q0 29 26.5 37.5t75.5 8.5h277v-50zM769 -182q-48 -21 -99 -32.5t-106 -11.5q-104 0 -195.5 40t-160 108.5t-108.5 160t-40 195.5t40 195.5t108.5 160t160 108.5t195.5 40t195.5 -40
t160 -108.5t108.5 -160t40 -195.5q0 -106 -41 -199t-112 -162v311q0 93 -17.5 155t-56.5 99t-102.5 52.5t-155.5 15.5h-261l-129 -133h360q36 0 69 -2t60 -9.5t46.5 -22.5t30.5 -41h-272q-50 0 -94 -7.5t-76 -25.5t-50.5 -48t-18.5 -76v-25q0 -44 17 -76.5t48.5 -54t77 -32
t101.5 -10.5q95 0 166 34.5t111 89.5v-293z" />
    <glyph glyph-name="A" unicode="A" horiz-adv-x="1091" 
d="M910 0l-101 176h-527l-101 -176h-171l402 700h267l402 -700h-171zM361 314h369l-185 321z" />
    <glyph glyph-name="B" unicode="B" horiz-adv-x="939" 
d="M75 700h512q51 0 93.5 -15t73 -40.5t47 -60t16.5 -74.5q0 -20 -5 -39.5t-13.5 -37t-20 -31.5t-24.5 -23q69 -13 111 -55.5t42 -117.5q0 -42 -13.5 -79t-41 -65.5t-70 -45t-100.5 -16.5h-607v700zM678 142q34 0 57.5 19.5t23.5 54.5t-23.5 54t-57.5 19h-445v-147h445z
M594 422q38 0 57.5 20t19.5 49t-19.5 48t-57.5 19h-361v-136h361z" />
    <glyph glyph-name="C" unicode="C" horiz-adv-x="1114" 
d="M907 280h156q-9 -79 -48.5 -134.5t-104.5 -91t-154 -51.5t-198 -16q-117 0 -211 18.5t-160 59.5t-101.5 105.5t-35.5 157.5v51q0 93 35.5 157.5t101.5 105.5t160 59.5t211 18.5q110 0 200 -16.5t155 -52.5t104 -93t47 -138h-155q-10 49 -43.5 80.5t-81.5 49.5
t-106.5 24.5t-119.5 6.5q-67 0 -131 -8t-113.5 -30.5t-80 -61.5t-30.5 -102v-51q0 -63 30.5 -102t80 -61.5t113.5 -30.5t131 -8q60 0 117.5 6.5t105 23.5t81 47t45.5 77z" />
    <glyph glyph-name="D" unicode="D" horiz-adv-x="1033" 
d="M498 0h-423v700h423q117 0 207 -17.5t152 -57.5t94 -103.5t32 -156.5v-30q0 -93 -32 -156.5t-94 -103.5t-152 -57.5t-207 -17.5zM498 142q67 0 127.5 6.5t106 27t72 58.5t26.5 101v30q0 63 -26.5 101t-72 58.5t-106 27t-127.5 6.5h-265v-416h265z" />
    <glyph glyph-name="E" unicode="E" horiz-adv-x="921" 
d="M75 700h791v-142h-633v-133h469v-139h-469v-144h633v-142h-791v700z" />
    <glyph glyph-name="F" unicode="F" horiz-adv-x="894" 
d="M75 700h791v-142h-633v-133h469v-139h-469v-286h-158v700z" />
    <glyph glyph-name="G" unicode="G" horiz-adv-x="1116" 
d="M909 286h-531v139h688v-97q0 -93 -35.5 -157.5t-101.5 -105.5t-160 -59.5t-211 -18.5t-211 18.5t-160 59.5t-101.5 105.5t-35.5 157.5v51q0 93 35.5 157.5t101.5 105.5t160 59.5t211 18.5q96 0 177 -12.5t143.5 -39.5t105.5 -69.5t64 -102.5h-178q-24 25 -58 41.5
t-75 26.5t-86.5 13.5t-92.5 3.5q-67 0 -131 -8t-113.5 -30.5t-80 -61.5t-30.5 -102v-51q0 -63 30.5 -102t80 -61.5t113.5 -30.5t131 -8q61 0 119.5 6.5t106.5 24.5t81 49t44 80z" />
    <glyph glyph-name="H" unicode="H" horiz-adv-x="1105" 
d="M872 700h158v-700h-158v283h-639v-283h-158v700h158v-272h639v272z" />
    <glyph glyph-name="I" unicode="I" horiz-adv-x="822" 
d="M60 142h272v416h-272v142h702v-142h-272v-416h272v-142h-702v142z" />
    <glyph glyph-name="J" unicode="J" horiz-adv-x="1007" 
d="M473 129q51 0 105.5 6t99.5 28t74 64.5t29 114.5v216h-434v142h592v-356q-1 -102 -36.5 -170.5t-98 -110t-148 -59t-184.5 -17.5q-91 0 -169.5 14.5t-139.5 49t-100.5 90.5t-52.5 139h159q13 -51 45.5 -81t74.5 -45.5t90.5 -20t93.5 -4.5z" />
    <glyph glyph-name="K" unicode="K" horiz-adv-x="1017" 
d="M75 700h158v-297l530 297h284l-460 -258l295 -442h-184l-245 367l-220 -123v-244h-158v700z" />
    <glyph glyph-name="L" unicode="L" horiz-adv-x="841" 
d="M75 700h158v-558h563v-142h-721v700z" />
    <glyph glyph-name="M" unicode="M" horiz-adv-x="1232" 
d="M944 700h213v-700h-158v506l-243 -382h-280l-243 382v-506h-158v700h213l328 -516z" />
    <glyph glyph-name="N" unicode="N" horiz-adv-x="1065" 
d="M75 700h162l595 -512v512h158v-700h-162l-595 510v-510h-158v700z" />
    <glyph glyph-name="O" unicode="O" horiz-adv-x="1116" 
d="M558 581q-67 0 -131 -8t-113.5 -30.5t-80 -61.5t-30.5 -102v-51q0 -63 30.5 -102t80 -61.5t113.5 -30.5t131 -8t131 8t113.5 30.5t80 61.5t30.5 102v51q0 63 -30.5 102t-80 61.5t-113.5 30.5t-131 8zM558 720q117 0 211 -18.5t160 -59.5t101.5 -105.5t35.5 -157.5v-51
q0 -93 -35.5 -157.5t-101.5 -105.5t-160 -59.5t-211 -18.5t-211 18.5t-160 59.5t-101.5 105.5t-35.5 157.5v51q0 93 35.5 157.5t101.5 105.5t160 59.5t211 18.5z" />
    <glyph glyph-name="P" unicode="P" horiz-adv-x="954" 
d="M641 200h-408v-200h-158v700h566q65 0 116.5 -18.5t87.5 -51.5t55 -79t19 -101q0 -56 -19 -102t-55 -79t-87.5 -51t-116.5 -18zM630 342q66 0 99.5 29t33.5 79t-33.5 79t-99.5 29h-397v-216h397z" />
    <glyph glyph-name="Q" unicode="Q" horiz-adv-x="1116" 
d="M558 720q117 0 211 -18.5t160 -59.5t101.5 -105.5t35.5 -157.5v-51q0 -73 -21.5 -127.5t-63.5 -95.5l84 -105h-175l-27 33q-61 -24 -137.5 -35t-167.5 -11q-117 0 -211 18.5t-160 59.5t-101.5 105.5t-35.5 157.5v51q0 93 35.5 157.5t101.5 105.5t160 59.5t211 18.5z
M203 379v-51q0 -63 30.5 -102t80 -61.5t113.5 -30.5t131 -8q57 0 111 5.5t100 19.5l-337 422q-48 -6 -90 -19.5t-72.5 -36.5t-48.5 -56.5t-18 -81.5zM913 328v51q0 57 -26 95t-69 60.5t-99.5 33t-117.5 12.5l282 -353q14 20 22 45t8 56z" />
    <glyph glyph-name="R" unicode="R" horiz-adv-x="1151" 
d="M75 700h703q115 0 181 -54.5t66 -151.5q0 -52 -17 -88.5t-49 -60t-78 -36t-103 -17.5l-185 -17l598 -275h-316l-546 251l-96 -8v-243h-158v700zM788 426q36 3 58.5 18.5t22.5 49.5q0 35 -22.5 49.5t-58.5 14.5h-555v-182z" />
    <glyph glyph-name="S" unicode="S" horiz-adv-x="969" 
d="M65 520v27q0 86 56 119.5t160 33.5h303l141 -142h-511q0 -42 52.5 -65.5t152.5 -38.5l302 -46q106 -16 162 -59.5t56 -117.5v-43q0 -98 -106.5 -149.5t-312.5 -51.5q-101 0 -187.5 17t-151 52.5t-102.5 91t-41 132.5h154q8 -43 36 -72t71.5 -46.5t99.5 -25t120 -7.5
q75 0 126 5t82 14t44.5 22t13.5 29v14q0 27 -25.5 39t-78.5 20l-344 52q-61 9 -111 25.5t-86 41t-55.5 57t-19.5 72.5z" />
    <glyph glyph-name="T" unicode="T" horiz-adv-x="992" 
d="M35 700h922v-142h-382v-558h-158v558h-382v142z" />
    <glyph glyph-name="U" unicode="U" horiz-adv-x="1070" 
d="M536 126q51 0 105.5 6.5t99.5 29t74 65.5t29 115v358h158v-356q0 -102 -35.5 -170.5t-98.5 -110t-148.5 -59t-184.5 -17.5t-184 17.5t-148 59t-99 110t-36 170.5v356h158v-358q0 -72 29 -115t74.5 -65.5t100.5 -29t106 -6.5z" />
    <glyph glyph-name="V" unicode="V" horiz-adv-x="1047" 
d="M856 700h181l-367 -700h-293l-367 700h181l332 -635z" />
    <glyph glyph-name="W" unicode="W" horiz-adv-x="1234" 
d="M528 550h178l195 -486l127 636h164l-140 -700h-279l-156 395l-156 -395h-279l-140 700h164l127 -636z" />
    <glyph glyph-name="X" unicode="X" horiz-adv-x="1109" 
d="M720 308l273 -308h-200l-239 269l-238 -269h-200l273 308l-394 392h216l343 -342l344 342h216z" />
    <glyph glyph-name="Y" unicode="Y" horiz-adv-x="1028" 
d="M594 295v-295h-158v295l-441 405h223l296 -276l297 276h222z" />
    <glyph glyph-name="Z" unicode="Z" 
d="M961 0h-846v142l545 416h-635v142h860v-142l-546 -416h622v-142z" />
    <glyph glyph-name="bracketleft" unicode="[" horiz-adv-x="381" 
d="M85 762h271v-115h-150v-636h150v-115h-271v866z" />
    <glyph glyph-name="backslash" unicode="\" horiz-adv-x="632" 
d="M0 700l482.971 -700h148.99l-482.97 700h-148.991z" />
    <glyph glyph-name="bracketright" unicode="]" horiz-adv-x="381" 
d="M295.982 762h-270.984v-115h149.991v-636h-149.991v-115h270.984v866z" />
    <glyph glyph-name="underscore" unicode="_" horiz-adv-x="466" 
d="M0 -114v45h466v-45h-466z" />
    <glyph glyph-name="a" unicode="a" horiz-adv-x="799" 
d="M377 420h-357l126 130h261q92 0 155.5 -15.5t102.5 -52.5t56.5 -99t17.5 -155v-228h-149v107q-41 -54 -111 -87t-163 -33q-56 0 -101.5 10.5t-77 32t-48.5 54t-17 76.5v25q0 46 18.5 76t50.5 48t76 25.5t94 7.5h269q-9 26 -27.5 41.5t-44.5 23.5t-59 10.5t-72 2.5z
M214 172q0 -33 38 -43.5t99 -10.5q31 0 64.5 4.5t66 12t60.5 18.5t48 23v52h-274q-49 0 -75.5 -8.5t-26.5 -37.5v-10z" />
    <glyph glyph-name="b" unicode="b" horiz-adv-x="850" 
d="M229 762v-762h-149v762h149zM805 260q0 -62 -21 -112.5t-59 -86t-90 -55t-115 -19.5q-59 0 -109.5 15t-91 39t-70 54t-46.5 60l2 50q17 -14 45.5 -28.5t63 -26t72.5 -18.5t75 -7q43 0 80 8t64.5 24.5t43 42t15.5 60.5v32q0 35 -15.5 60.5t-43 42t-64.5 24.5t-80 8
q-37 0 -75 -7t-72.5 -18.5t-63 -26t-45.5 -28.5l-2 50q17 30 46.5 60t70 54t91 39t109.5 15q63 0 115 -19.5t90 -55t59 -86t21 -112.5v-32z" />
    <glyph glyph-name="c" unicode="c" horiz-adv-x="840" 
d="M649 219h145q-8 -58 -37 -101.5t-77 -72.5t-113.5 -43.5t-145.5 -14.5q-87 0 -156.5 17t-118.5 51t-75 85.5t-26 119.5v32q0 68 26 119.5t75 85.5t118.5 51t156.5 17q81 0 146.5 -14.5t113.5 -44t77 -73.5t37 -102h-145q-17 51 -77.5 76t-151.5 25q-53 0 -96.5 -8.5
t-74.5 -26t-47.5 -44t-16.5 -61.5v-32q0 -35 16.5 -61.5t47.5 -44t74.5 -26t96.5 -8.5q90 0 150 24.5t78 74.5z" />
    <glyph glyph-name="d" unicode="d" horiz-adv-x="850" 
d="M770 762v-762h-149v762h149zM44.9971 291.982q0 61.9961 20.999 112.493t58.9961 85.9941q37.998 35.498 89.9951 54.9971q51.9961 19.499 114.992 19.499q58.9971 0 109.494 -14.999q50.4961 -14.999 90.9941 -38.998q40.4971 -23.998 69.9951 -53.9971
q29.499 -29.998 46.498 -59.9961l-2 -49.9971q-16.999 13.999 -45.4971 28.499q-28.499 14.499 -62.9971 25.998q-34.4971 11.499 -72.4951 18.499q-37.998 6.99902 -74.9951 6.99902q-42.998 0 -79.9951 -7.99902q-36.998 -8 -64.4961 -24.499
q-27.499 -16.499 -42.998 -41.9971t-15.499 -60.4961v-31.998q0 -34.998 15.499 -60.4961q15.499 -25.499 42.998 -41.998q27.498 -16.499 64.4961 -24.498q36.9971 -8 79.9951 -8q36.9971 0 74.9951 7q37.998 6.99902 72.4951 18.499q34.498 11.499 62.9971 25.998
q28.498 14.499 45.4971 28.498l2 -49.9971q-16.999 -29.998 -46.498 -59.9961q-29.498 -29.998 -69.9951 -53.9971q-40.498 -23.998 -90.9941 -38.9971q-50.4971 -14.999 -109.494 -14.999q-62.9961 0 -114.992 19.499q-51.9971 19.498 -89.9951 54.9961
q-37.9971 35.498 -58.9961 85.9951t-20.999 112.493v31.998z" />
    <glyph glyph-name="e" unicode="e" horiz-adv-x="762" 
d="M634 130l-128 -130h-100q-179 0 -270 61t-91 199v22q0 69 25.5 122t72 88.5t111.5 54t145 18.5q77 0 138.5 -17.5t105 -52.5t66.5 -87t23 -121v-49h-544q8 -59 63 -83.5t150 -24.5h233zM396 439q-82 0 -131.5 -26t-67.5 -71h370q-22 97 -171 97z" />
    <glyph glyph-name="f" unicode="f" horiz-adv-x="630" 
d="M30 550h109q0 47 17 86t50 67t81 43.5t110 15.5h168l155 -159l-275 35q-74 0 -115.5 -20t-41.5 -68h284v-130h-284v-420h-149v420h-109v130z" />
    <glyph glyph-name="g" unicode="g" horiz-adv-x="830" 
d="M45 292q0 61 21 111t58 86t87 56t109 20q49 0 91.5 -11t78 -29t63.5 -41.5t48 -48.5v115h149v-481q0 -75 -26.5 -127t-76.5 -85t-123.5 -48t-166.5 -15h-221l-124 128h349q53 0 97.5 9t76 27t49 45.5t17.5 65.5v48q-20 -25 -48 -48.5t-63.5 -41.5t-78 -29t-91.5 -11
q-59 0 -109 20t-87 56t-58 86.5t-21 110.5v32zM379 125q31 0 62.5 5t60.5 14t54 20t45 23v177q-20 12 -45 23.5t-54 20t-60.5 14t-62.5 5.5q-39 0 -74 -8.5t-61.5 -25.5t-42 -42.5t-15.5 -58.5v-32q0 -33 15.5 -58.5t42 -42.5t61.5 -25.5t74 -8.5z" />
    <glyph glyph-name="h" unicode="h" horiz-adv-x="824" 
d="M229 762v-762h-149v762h149zM610 270q0 45 -8 75t-26 48.5t-47 26t-71 7.5q-30 0 -65 -6t-68.5 -16t-62 -24.5t-45.5 -30.5l-2 59q18 32 47 60.5t66 49.5t81 33.5t92 12.5q61 0 109 -18.5t81 -53t50.5 -83.5t17.5 -110v-300h-149v270z" />
    <glyph glyph-name="i" unicode="i" horiz-adv-x="309" 
d="M229 550v-550h-149v550h149zM442 762v-123h-362v123h362z" />
    <glyph glyph-name="j" unicode="j" horiz-adv-x="544" 
d="M677 762v-123h-362v123h362zM115 -73q96 0 148 37.5t52 102.5v353h-300v130h449v-483q0 -75 -23 -127t-67.5 -84.5t-109.5 -47t-149 -14.5v133z" />
    <glyph glyph-name="k" unicode="k" horiz-adv-x="804" 
d="M540 0l-177 289l-134 -67v-222h-149v762h149v-395l365 183h288l-390 -196l216 -354h-168z" />
    <glyph glyph-name="l" unicode="l" horiz-adv-x="309" 
d="M229 762v-762h-149v762h149z" />
    <glyph glyph-name="m" unicode="m" horiz-adv-x="1294" 
d="M987 565q55 0 100 -17.5t76.5 -50.5t48.5 -80.5t17 -106.5v-310h-149v270q0 82 -33.5 119.5t-116.5 37.5q-25 0 -54 -6t-57 -16t-53 -22t-41 -25q2 -12 3 -24t1 -24v-310h-149v270q0 82 -33.5 119.5t-116.5 37.5q-24 0 -52.5 -5.5t-56 -15t-52 -21.5t-40.5 -25v-360h-149
v550h149v-119q18 26 45 50t60.5 43t72.5 30t80 11q85 0 144 -41t83 -115q16 28 43.5 56t63 50.5t78 36t88.5 13.5z" />
    <glyph glyph-name="n" unicode="n" horiz-adv-x="824" 
d="M229 550v-550h-149v550h149zM610 270q0 45 -8 75t-26 48.5t-47 26t-71 7.5q-30 0 -65 -6t-68.5 -16t-62 -24.5t-45.5 -30.5l-2 59q18 32 47 60.5t66 49.5t81 33.5t92 12.5q61 0 109 -18.5t81 -53t50.5 -83.5t17.5 -110v-300h-149v270z" />
    <glyph glyph-name="o" unicode="o" horiz-adv-x="842" 
d="M656 292q0 35 -17 61.5t-47.5 44t-74 26t-96.5 8.5t-96.5 -8.5t-74.5 -26t-47.5 -44t-16.5 -61.5v-32q0 -35 16.5 -61.5t47.5 -44t74.5 -26t96.5 -8.5t96.5 8.5t74 26t47.5 44t17 61.5v32zM421 -13q-87 0 -156.5 17t-118.5 51t-75 85.5t-26 119.5v32q0 68 26 119.5
t75 85.5t118.5 51t156.5 17t156.5 -17t118.5 -51t75 -85.5t26 -119.5v-32q0 -68 -26 -119.5t-75 -85.5t-118.5 -51t-156.5 -17z" />
    <glyph glyph-name="p" unicode="p" horiz-adv-x="850" 
d="M229 550v-756h-149v756h149zM805 260q0 -62 -21 -112.5t-59 -86t-90 -55t-115 -19.5q-59 0 -109.5 15t-91 39t-70 54t-46.5 60l2 50q17 -14 45.5 -28.5t63 -26t72.5 -18.5t75 -7q43 0 80 8t64.5 24.5t43 42t15.5 60.5v32q0 35 -15.5 60.5t-43 42t-64.5 24.5t-80 8
q-37 0 -75 -7t-72.5 -18.5t-63 -26t-45.5 -28.5l-2 50q17 30 46.5 60t70 54t91 39t109.5 15q63 0 115 -19.5t90 -55t59 -86t21 -112.5v-32z" />
    <glyph glyph-name="q" unicode="q" horiz-adv-x="850" 
d="M770 550v-756h-149v756h149zM44.9971 291.982q0 61.9961 20.999 112.493t58.9961 85.9941q37.998 35.498 89.9951 54.9971q51.9961 19.499 114.992 19.499q58.9971 0 109.494 -14.999q50.4961 -14.999 90.9941 -38.998q40.4971 -23.998 69.9951 -53.9971
q29.499 -29.998 46.498 -59.9961l-2 -49.9971q-16.999 13.999 -45.4971 28.499q-28.499 14.499 -62.9971 25.998q-34.4971 11.499 -72.4951 18.499q-37.998 6.99902 -74.9951 6.99902q-42.998 0 -79.9951 -7.99902q-36.998 -8 -64.4961 -24.499
q-27.499 -16.499 -42.998 -41.9971t-15.499 -60.4961v-31.998q0 -34.998 15.499 -60.4961q15.499 -25.499 42.998 -41.998q27.498 -16.499 64.4961 -24.498q36.9971 -8 79.9951 -8q36.9971 0 74.9951 7q37.998 6.99902 72.4951 18.499q34.498 11.499 62.9971 25.998
q28.498 14.499 45.4971 28.498l2 -49.9971q-16.999 -29.998 -46.498 -59.9961q-29.498 -29.998 -69.9951 -53.9971q-40.498 -23.998 -90.9941 -38.9971q-50.4971 -14.999 -109.494 -14.999q-62.9961 0 -114.992 19.499q-51.9971 19.498 -89.9951 54.9961
q-37.9971 35.498 -58.9961 85.9951t-20.999 112.493v31.998z" />
    <glyph glyph-name="r" unicode="r" horiz-adv-x="546" 
d="M229 550v-130q9 21 25 42.5t37 41t47.5 34t58.5 20.5l159 -164h-144q-62 0 -108.5 -13.5t-74.5 -42.5v-338h-149v550h149z" />
    <glyph glyph-name="s" unicode="s" horiz-adv-x="719" 
d="M37 207h145q4 -24 21.5 -42.5t45 -30.5t63 -18t76.5 -6q79 0 114.5 17t35.5 36v6q0 18 -24 24t-70 13l-187 29q-48 7 -84.5 18.5t-61 29.5t-37.5 44t-13 63v9q0 85 72 125.5t206 40.5q135 0 217.5 -47t93.5 -138h-146q-7 17 -24 29t-41 19.5t-52 11t-58 3.5
q-127 0 -127 -39v-6q0 -9 8 -15.5t21.5 -11t31 -7.5t36.5 -6l211 -33q80 -13 124 -45.5t44 -97.5v-15q0 -94 -74 -137t-216 -43q-72 0 -135.5 12t-111 38.5t-75.5 68t-29 101.5z" />
    <glyph glyph-name="t" unicode="t" horiz-adv-x="626" 
d="M346 0l-198 131v289h-125v130h125v150h149v-150h190l126 -130h-316v-220l303 -200h-254z" />
    <glyph glyph-name="u" unicode="u" horiz-adv-x="804" 
d="M724 550v-550h-149v120q-20 -25 -47 -49t-60 -42.5t-71 -30t-78 -11.5q-60 0 -107 18.5t-80 53t-50 83.5t-17 110v298h149v-268q0 -45 8 -75t26 -48.5t47 -26t71 -7.5q55 0 111 19.5t98 45.5v360h149z" />
    <glyph glyph-name="v" unicode="v" horiz-adv-x="774" 
d="M592 550h172l-255 -550h-244l-255 550h172l205 -466z" />
    <glyph glyph-name="w" unicode="w" horiz-adv-x="988" 
d="M129 0l-107 550h158l87 -465l227 540l227 -540l87 465h158l-107 -550h-254l-111 292l-111 -292h-254z" />
    <glyph glyph-name="x" unicode="x" horiz-adv-x="784" 
d="M185 550l207 -247l207 247h185l-244 -288l184 -262h-178l-154 222l-154 -222h-178l184 262l-244 288h185z" />
    <glyph glyph-name="y" unicode="y" horiz-adv-x="737" 
d="M737 550l-398 -756h-171l108 206h-104l-155 550h159l136 -483l254 483h171z" />
    <glyph glyph-name="z" unicode="z" horiz-adv-x="728" 
d="M639 550v-130l-346 -290h412v-130h-591v130l345 290h-421v130h601z" />
    <glyph glyph-name="bar" unicode="|" horiz-adv-x="293" 
d="M124 -62v824h45v-824h-45z" />
    <glyph glyph-name="uni00A0" unicode="&#xa0;" horiz-adv-x="350" 
 />
    <glyph glyph-name="exclamdown" unicode="&#xa1;" horiz-adv-x="579" 
d="M214 347h151v-553h-151v553zM70 550h439v-144h-439v144z" />
    <glyph glyph-name="cent" unicode="&#xa2;" horiz-adv-x="835" 
d="M649 219h145q-8 -58 -37 -101.5t-77 -72.5t-113.5 -43.5t-145.5 -14.5q-87 0 -156.5 17t-118.5 51t-75 85.5t-26 119.5v32q0 68 26 119.5t75 85.5t118.5 51t156.5 17q81 0 146.5 -14.5t113.5 -44t77 -73.5t37 -102h-145q-17 51 -77.5 76t-151.5 25q-53 0 -96.5 -8.5
t-74.5 -26t-47.5 -44t-16.5 -61.5v-32q0 -35 16.5 -61.5t47.5 -44t74.5 -26t96.5 -8.5q90 0 150 24.5t78 74.5zM398 -76v824h45v-824h-45z" />
    <glyph glyph-name="sterling" unicode="&#xa3;" horiz-adv-x="1256" 
d="M1024 420q-10 46 -41.5 77t-76.5 50t-100.5 26.5t-112.5 7.5q-63 0 -123.5 -9.5t-107.5 -32.5t-75.5 -62t-28.5 -98v-7h666v-45h-666v-185h823v-142h-1121v142h145v185h-145v45h145v7q0 89 34 153.5t97 106t153.5 61.5t203.5 20q106 0 192.5 -17.5t149 -54.5t99.5 -93.5
t45 -134.5h-155z" />
    <glyph glyph-name="copyright" unicode="&#xa9;" horiz-adv-x="678" 
d="M560 461q0 48 -14.5 88t-43 68.5t-69.5 44.5t-94 16t-94 -16t-69.5 -44.5t-43 -68.5t-14.5 -88v-215q0 -48 14.5 -88t43 -68.5t69.5 -44.5t94 -16t94 16t69.5 44.5t43 68.5t14.5 88v215zM603 246q0 -58 -17.5 -106t-51.5 -82t-83 -52.5t-112 -18.5t-112 18.5t-83 52.5
t-51.5 82t-17.5 106v215q0 58 17.5 106t51.5 82t83 52.5t112 18.5t112 -18.5t83 -52.5t51.5 -82t17.5 -106v-215zM339 157q-75 0 -112.5 40.5t-37.5 106.5v100q0 65 37.5 106t112.5 41q74 0 111.5 -39t39.5 -102h-86q-2 25 -19 40.5t-46 15.5q-31 0 -48 -17t-17 -45v-100
q0 -28 17 -45.5t48 -17.5q29 0 46 15t19 41h86q-2 -63 -39.5 -101.5t-111.5 -38.5z" />
    <glyph glyph-name="guillemotleft" unicode="&#xab;" horiz-adv-x="582" 
d="M293 153v-167l-223 167v244l223 167v-167l-163 -122zM517 153v-167l-223 167v244l223 167v-167l-163 -122z" />
    <glyph glyph-name="uni00AD" unicode="&#xad;" horiz-adv-x="568" 
d="M70 228v143h428v-143h-428z" />
    <glyph glyph-name="degree" unicode="&#xb0;" horiz-adv-x="571" 
d="M285 452q25 0 49.5 2.5t43 10.5t30 22.5t11.5 39.5v20q0 25 -11.5 39.5t-30 22.5t-43 10.5t-49.5 2.5t-48.5 -2.5t-42 -10.5t-30 -22.5t-11.5 -39.5v-20q0 -25 11.5 -39.5t30 -22.5t42 -10.5t48.5 -2.5zM285 720q55 0 101 -9t79.5 -29t52 -52.5t18.5 -79.5v-26
q0 -47 -18.5 -79.5t-52 -52.5t-79.5 -29t-101 -9t-101 9t-79 29t-51.5 52.5t-18.5 79.5v26q0 47 18.5 79.5t51.5 52.5t79 29t101 9z" />
    <glyph glyph-name="guillemotright" unicode="&#xbb;" horiz-adv-x="582" 
d="M64.9961 153v-167l222.986 167v244l-222.986 167v-167l162.99 -122zM288.982 153v-167l222.986 167v244l-222.986 167v-167l162.99 -122z" />
    <glyph glyph-name="questiondown" unicode="&#xbf;" horiz-adv-x="796" 
d="M17 -206q0 76 33.5 134.5t83 101.5t105.5 72.5t101 49.5q24 10 40.5 20.5t26.5 23t14 30t4 42.5v89h152v-129q0 -35 -14 -64t-38 -54t-55 -44.5t-65 -34.5q-43 -19 -86 -41t-79 -54h335l16 98h151l-39 -240h-686zM282 550h439v-144h-439v144z" />
    <glyph glyph-name="Aring" unicode="&#xc5;" horiz-adv-x="1091" 
d="M810 176h-529l-101 -176h-170l320 556q-28 53 -28 113q0 51 19.5 95.5t52.5 77.5t77.5 52.5t94.5 19.5q51 0 95.5 -19.5t77.5 -52.5t52.5 -77.5t19.5 -95.5q0 -31 -7.5 -59.5t-21.5 -54.5l319 -555h-170zM546 470q42 0 78.5 15.5t63.5 42.5t42.5 63.5t15.5 77.5
q0 42 -15.5 78.5t-42.5 63.5t-63.5 42.5t-78.5 15.5q-41 0 -77.5 -15.5t-63.5 -42.5t-42.5 -63.5t-15.5 -78.5q0 -41 15.5 -77.5t42.5 -63.5t63.5 -42.5t77.5 -15.5zM546 425q-56 0 -108 25l-78 -136h371l-78 135q-25 -11 -51.5 -17.5t-55.5 -6.5z" />
    <glyph glyph-name="AE" unicode="&#xc6;" horiz-adv-x="1568" 
d="M910 0l-101 176h-527l-101 -176h-171l402 700h1101v-142h-753l77 -133h512v-139h-432l82 -144h514v-142h-603zM361 314h369l-185 321z" />
    <glyph glyph-name="Eth" unicode="&#xd0;" horiz-adv-x="1063" 
d="M105 700h423q117 0 207 -17.5t152 -57.5t94 -103.5t32 -156.5v-30q0 -93 -32 -156.5t-94 -103.5t-152 -57.5t-207 -17.5h-423v328h-110v45h110v327zM672 328h-409v-186h265q67 0 127.5 6.5t106 27t72 58.5t26.5 101v30q0 63 -26.5 101t-72 58.5t-106 27t-127.5 6.5h-265
v-185h409v-45z" />
    <glyph glyph-name="multiply" unicode="&#xd7;" horiz-adv-x="595" 
d="M131 436l32 31l135 -135l135 135l32 -31l-136 -136l136 -136l-32 -31l-135 135l-135 -135l-32 31l136 136z" />
    <glyph glyph-name="Oslash" unicode="&#xd8;" horiz-adv-x="1116" 
d="M558 720h23q11 0 22.5 -0.5t22.5 -1.5q11 0 21.5 -1t21.5 -2q5 0 10.5 -0.5t10.5 -1.5q5 0 10 -0.5t10 -1.5l39 -6l38 -8l35 -9q9 -3 17 -5.5t16 -5.5l16 -6q4 -2 7.5 -3.5t7.5 -3.5t7.5 -3.5t7.5 -3.5q28 -13 53 -32q12 -9 23 -20q16 -14 29 -32l9 -12q6 -9 11.5 -18.5
t10.5 -19.5q13 -29 20 -59l3 -16q2 -8 2.5 -16.5t1.5 -16.5q1 -5 1 -9v-9t0.5 -9t0.5 -9v-51q0 -5 -0.5 -9t-0.5 -9v-9t-1 -9q-1 -14 -3 -26l-4 -24l-4 -15l-5 -15q-22 -65 -71 -111q-54 -50 -138 -77q-8 -3 -16.5 -5.5t-17.5 -4.5l-18 -5q-9 -2 -18.5 -3.5t-19.5 -3.5
l-19 -3q-25 -4 -51 -6t-53 -4q-6 -1 -11.5 -1h-10.5q-6 0 -12 -0.5t-11 -0.5h-23h-23q-6 0 -12 0.5t-11 0.5q-46 2 -86 6q-5 0 -10.5 0.5t-10.5 1.5l-39 6l-19 3q-5 2 -9 2.5t-9 1.5l-18 5l-9 2l-153 -222h-58l164 238q-21 7 -40 17q-4 2 -7.5 4t-6.5 4l-27 16
q-9 7 -18 13.5t-17 14.5q-44 40 -66 96l-6 15q-4 11 -6.5 22.5t-4.5 23.5l-3 17q0 4 -0.5 8t-1.5 9q0 5 -0.5 9t-0.5 9v18v51v18t1 18q9 96 58 158q9 12 19 22l11 10q3 4 11 10l12 10l12 8q16 11 33.5 20.5t37.5 17.5q11 5 23 9t25 8q5 1 9 2t9 3l18 4l37 8l39 6l42 4
q26 2 54 3.5t57 1.5zM402 138q6 -2 12 -2.5t13 -1.5q9 -2 18.5 -3t19.5 -2q8 0 13 -1q6 0 12.5 -0.5t13.5 -0.5q4 0 7 -0.5t7 -0.5h40h13h27l53 3l25 3l13 2q4 0 12 2q10 2 19 3.5t17 3.5l23 6l11 3q6 1 11 4q2 1 5 1.5t5 2.5q8 3 15 6.5l15 7.5q3 1 9 5q14 8 25 17.5
t20 21.5l6 8q7 8 11 17q8 14 12 28l3 11l3 22q1 5 1.5 11t0.5 13v51q0 3 -0.5 6t-0.5 6q0 8 -1 12l-3 22q-2 5 -3.5 10t-3.5 10q-8 21 -19 36l-6 8l-6 7l-7 7q-9 9 -19.5 16t-21.5 14l-10 5l-20 9q-2 1 -5 1.5t-5 2.5q-11 4 -22 7t-23 6l-24 5l-27 4l-298 -432zM558 581h-27
t-27 -1l-26 -2q-41 -3 -76 -9q-27 -5 -52 -12.5t-47 -18.5t-39 -25t-31 -32l-5 -8l-6 -9l-4 -9q-2 -5 -3.5 -10t-3.5 -10t-3 -10t-2 -11l-2 -11q-1 -6 -1 -12v-12v-51q0 -13 1 -24t4 -22q1 -5 2.5 -10.5t3.5 -10.5q2 -6 4 -9q2 -5 4.5 -9.5t5.5 -8.5q2 -2 2.5 -4t2.5 -4
q18 -26 45 -43t61 -29l292 425q-8 0 -16.5 0.5t-16.5 0.5q-7 1 -13.5 1h-13.5h-13z" />
    <glyph glyph-name="Thorn" unicode="&#xde;" horiz-adv-x="954" 
d="M231 700v-100h410q65 0 116.5 -18.5t87.5 -51.5t55 -79t19 -101q0 -56 -19 -102t-55 -79t-87.5 -51t-116.5 -18h-410v-100h-156v700h156zM231 458v-216h399q66 0 99.5 29t33.5 79t-33.5 79t-99.5 29h-399z" />
    <glyph glyph-name="Dcroat" unicode="&#x110;" horiz-adv-x="1033" 
d="M75 700h423q117 0 207 -17.5t152 -57.5t94 -103.5t32 -156.5v-30q0 -93 -32 -156.5t-94 -103.5t-152 -57.5t-207 -17.5h-423v328h-110v45h110v327zM642 328h-409v-186h265q67 0 127.5 6.5t106 27t72 58.5t26.5 101v30q0 63 -26.5 101t-72 58.5t-106 27t-127.5 6.5h-265
v-185h409v-45z" />
    <glyph glyph-name="Hbar" unicode="&#x126;" horiz-adv-x="1145" 
d="M95 700h158v-114h639v114h158v-114h110v-45h-110v-541h-158v283h-639v-283h-158v541h-110v45h110v114zM253 428h639v113h-639v-113z" />
    <glyph glyph-name="Lslash" unicode="&#x141;" horiz-adv-x="841" 
d="M75 700h158v-292l201 292h58l-259 -376v-182h563v-142h-721v94l-207 -300h-58l265 385v521z" />
    <glyph glyph-name="Eng" unicode="&#x14a;" horiz-adv-x="1065" 
d="M832 -226v226h-4l-595 510v-510h-158v700h162l595 -512v512h158v-700z" />
    <glyph glyph-name="OE" unicode="&#x152;" horiz-adv-x="1754" 
d="M558 720q109 0 196.5 -16t153.5 -51v47h791v-142h-633v-133h469v-139h-469v-144h633v-142h-791v53q-66 -35 -153.5 -50.5t-196.5 -15.5q-117 0 -211 18.5t-160 59.5t-101.5 105.5t-35.5 157.5v51q0 93 35.5 157.5t101.5 105.5t160 59.5t211 18.5zM558 581q-67 0 -131 -8
t-113.5 -30.5t-80 -61.5t-30.5 -102v-51q0 -63 30.5 -102t80 -61.5t113.5 -30.5t131 -8q60 0 118 6.5t106 23.5t81.5 47.5t44.5 78.5v143q-11 48 -44.5 78t-81.5 47.5t-106 24t-118 6.5z" />
    <glyph glyph-name="Tbar" unicode="&#x166;" horiz-adv-x="992" 
d="M35 700h922v-142h-382v-186h422v-45h-422v-327h-158v327h-422v45h422v186h-382v142z" />
    <glyph glyph-name="uni018F" unicode="&#x18f;" horiz-adv-x="1116" 
d="M227 561l134 139h197q121 0 216 -15.5t159.5 -52.5t98.5 -98.5t34 -154.5v-51q0 -93 -35.5 -157.5t-101.5 -105.5t-160 -59.5t-211 -18.5t-211 18.5t-160 59.5t-101.5 105.5t-35.5 157.5v51q0 24 3 47h854q-12 46 -45.5 73t-81 40.5t-105 17.5t-117.5 4h-331zM558 126
q61 0 119.5 6.5t106.5 24.5t81.5 49.5t43.5 81.5h-702q10 -50 43 -81.5t81 -49.5t106.5 -24.5t120.5 -6.5z" />
    <glyph glyph-name="dotlessi" unicode="&#x131;" horiz-adv-x="309" 
d="M229 550v-550h-149v550h149z" />
    <glyph glyph-name="uni0237" unicode="&#x237;" horiz-adv-x="544" 
d="M115 -73q96 0 148 37.5t52 102.5v353h-300v130h449v-483q0 -75 -23 -127t-67.5 -84.5t-109.5 -47t-149 -14.5v133z" />
    <glyph glyph-name="ellipsis" unicode="&#x2026;" horiz-adv-x="732" 
d="M194 288v-288h-144v288h144zM438 288v-288h-144v288h144zM682 288v-288h-144v288h144z" />
    <glyph glyph-name="endash" unicode="&#x2013;" horiz-adv-x="819" 
d="M70 228v143h679v-143h-679z" />
    <glyph glyph-name="emdash" unicode="&#x2014;" horiz-adv-x="1291" 
d="M70 228v143h1151v-143h-1151z" />
    <glyph glyph-name="guilsinglleft" unicode="&#x2039;" horiz-adv-x="358" 
d="M293 154v-167l-223 167v244l223 167v-167l-163 -122z" />
    <glyph glyph-name="guilsinglright" unicode="&#x203a;" horiz-adv-x="358" 
d="M64.9961 154v-167l222.986 167v244l-222.986 167v-167l162.99 -122z" />
    <glyph glyph-name="quoteleft" unicode="&#x2018;" horiz-adv-x="340" 
d="M162 266h-157l173 434h157z" />
    <glyph glyph-name="quoteright" unicode="&#x2019;" horiz-adv-x="340" 
d="M162 266h-157l173 434h157z" />
    <glyph glyph-name="quotedblleft" unicode="&#x201c;" horiz-adv-x="613" 
d="M435 266h-157l173 434h157zM162 266h-157l173 434h157z" />
    <glyph glyph-name="quotedblright" unicode="&#x201d;" horiz-adv-x="613" 
d="M435 266h-157l173 434h157zM162 266h-157l173 434h157z" />
    <glyph glyph-name="quotesinglbase" unicode="&#x201a;" horiz-adv-x="340" 
d="M162 -205h-157l173 434h157z" />
    <glyph glyph-name="quotedblbase" unicode="&#x201e;" horiz-adv-x="613" 
d="M162 -205h-157l173 434h157zM435 -205h-157l173 434h157z" />
    <glyph glyph-name="bullet" unicode="&#x2022;" horiz-adv-x="616" 
d="M140 300q0 35 13 65.5t36 53.5t53.5 36t65.5 13t65.5 -13t53.5 -36t36 -53.5t13 -65.5t-13 -65.5t-36 -53.5t-53.5 -36t-65.5 -13t-65.5 13t-53.5 36t-36 53.5t-13 65.5z" />
    <glyph glyph-name="minus" unicode="&#x2212;" horiz-adv-x="595" 
d="M100 277v45h395v-45h-395z" />
    <glyph glyph-name="Euro" unicode="&#x20ac;" horiz-adv-x="1026" 
d="M146 324v4v48h-82l16 45h68q8 81 47 137.5t104 92.5t155 52.5t200 16.5q94 0 172.5 -11.5t141.5 -37.5l-48 -139q-51 28 -121.5 38.5t-144.5 10.5q-61 0 -120 -6.5t-107 -24.5t-81 -49t-43 -80h579l-16 -45h-567v-48v-4h549l-16 -45h-527q12 -47 45.5 -76.5t81 -46.5
t105 -23.5t117.5 -6.5q74 0 144.5 10t121.5 39v-156q-56 -17 -122.5 -24.5t-143.5 -7.5q-109 0 -198 16t-154 51t-104.5 90.5t-48.5 134.5h-119l16 45h100z" />
    <glyph glyph-name="uni27D1" unicode="&#x27d1;" horiz-adv-x="242" 
d="M302 762v-123h-362v123h362z" />
    <glyph glyph-name="glyph133" horiz-adv-x="589" 
d="M294 425q-50 0 -94.5 19.5t-77.5 52.5t-52.5 77.5t-19.5 94.5q0 51 19.5 95.5t52.5 77.5t77.5 52.5t94.5 19.5q51 0 95.5 -19.5t77.5 -52.5t52.5 -77.5t19.5 -95.5q0 -50 -19.5 -94.5t-52.5 -77.5t-77.5 -52.5t-95.5 -19.5zM294 470q42 0 78.5 15.5t63.5 42.5t42.5 63.5
t15.5 77.5q0 42 -15.5 78.5t-42.5 63.5t-63.5 42.5t-78.5 15.5q-41 0 -77.5 -15.5t-63.5 -42.5t-42.5 -63.5t-15.5 -78.5q0 -41 15.5 -77.5t42.5 -63.5t63.5 -42.5t77.5 -15.5z" />
    <glyph glyph-name="glyph134" horiz-adv-x="808" 
d="M773 260q0 -62 -21 -112.5t-59 -86t-90 -55t-115 -19.5q-59 0 -109.5 15t-91 39t-70 54t-46.5 60l2 50q17 -14 45.5 -28.5t63 -26t72.5 -18.5t75 -7q43 0 80 8t64.5 24.5t43 42t15.5 60.5v32q0 35 -15.5 60.5t-43 42t-64.5 24.5t-80 8q-37 0 -75 -7t-72.5 -18.5t-63 -26
t-45.5 -28.5l-2 50q17 30 46.5 60t70 54t91 39t109.5 15q63 0 115 -19.5t90 -55t59 -86t21 -112.5v-32z" />
    <glyph glyph-name="glyph135" horiz-adv-x="767" 
d="M580 270q0 45 -8 75t-26 48.5t-47 26t-71 7.5q-30 0 -65 -6t-68.5 -16t-62 -24.5t-45.5 -30.5l-2 59q18 32 47 60.5t66 49.5t81 33.5t92 12.5q61 0 109 -18.5t81 -53t50.5 -83.5t17.5 -110v-300h-149v270z" />
    <glyph glyph-name="glyph136" horiz-adv-x="296" 
d="M70 700h158v-700h-158v700z" />
    <glyph glyph-name="glyph137" horiz-adv-x="242" 
d="M197 550v-756h-149v756h149z" />
    <glyph glyph-name="glyph138" horiz-adv-x="579" 
d="M70 144h439v-144h-439v144z" />
    <glyph glyph-name="Aacute" unicode="&#xc1;" horiz-adv-x="1091" 
d="M910 0l-101 176h-527l-101 -176h-171l402 700h267l402 -700h-171zM361 314h369l-185 321zM1253 920l-1049 -287l-12 45l1049 287z" />
    <glyph glyph-name="Abreve" unicode="&#x102;" horiz-adv-x="1091" 
d="M910 0l-101 176h-527l-101 -176h-171l402 700h267l402 -700h-171zM361 314h369l-185 321zM436 750q-68 0 -94.5 31.5t-26.5 84.5h52q0 -13 1.5 -25t8.5 -21t21 -14.5t38 -5.5h220q24 0 38 5.5t21 14.5t8.5 21t1.5 25v143h52v-143q0 -53 -26.5 -84.5t-94.5 -31.5h-220z
" />
    <glyph glyph-name="Acircumflex" unicode="&#xc2;" horiz-adv-x="1091" 
d="M910 0l-101 176h-527l-101 -176h-171l402 700h267l402 -700h-171zM361 314h369l-185 321zM546 966l239 -144l-24 -42l-216 132l-458 -281l-24 41z" />
    <glyph glyph-name="Adieresis" unicode="&#xc4;" horiz-adv-x="1091" 
d="M910 0l-101 176h-527l-101 -176h-171l402 700h267l402 -700h-171zM361 314h369l-185 321zM418 955h52v-206h-52v206zM836 850v-50h-206v50h206z" />
    <glyph glyph-name="Agrave" unicode="&#xc0;" horiz-adv-x="1091" 
d="M910 0l-101 176h-527l-101 -176h-171l402 700h267l402 -700h-171zM361 314h369l-185 321zM-160 920l12 45l1049 -287l-12 -45z" />
    <glyph glyph-name="Amacron" unicode="&#x100;" horiz-adv-x="1091" 
d="M910 0l-101 176h-527l-101 -176h-171l402 700h267l402 -700h-171zM361 314h369l-185 321zM1091 800v-50h-766v50h766z" />
    <glyph glyph-name="Aogonek" unicode="&#x104;" horiz-adv-x="1091" 
d="M910 0l-101 176h-527l-101 -176h-171l402 700h267l402 -700h-171zM361 314h369l-185 321zM1031 -206v206h50v-206h-50z" />
    <glyph glyph-name="Atilde" unicode="&#xc3;" horiz-adv-x="1091" 
d="M910 0l-101 176h-527l-101 -176h-171l402 700h267l402 -700h-171zM361 314h369l-185 321zM921 922l-375 -201l-79 57l-272 -144l-23 43l298 158l79 -57l349 187z" />
    <glyph glyph-name="Cacute" unicode="&#x106;" horiz-adv-x="1114" 
d="M907 280h156q-9 -79 -48.5 -134.5t-104.5 -91t-154 -51.5t-198 -16q-117 0 -211 18.5t-160 59.5t-101.5 105.5t-35.5 157.5v51q0 93 35.5 157.5t101.5 105.5t160 59.5t211 18.5q110 0 200 -16.5t155 -52.5t104 -93t47 -138h-155q-10 49 -43.5 80.5t-81.5 49.5
t-106.5 24.5t-119.5 6.5q-67 0 -131 -8t-113.5 -30.5t-80 -61.5t-30.5 -102v-51q0 -63 30.5 -102t80 -61.5t113.5 -30.5t131 -8q60 0 117.5 6.5t105 23.5t81 47t45.5 77zM1032 920l-1049 -287l-12 45l1049 287z" />
    <glyph glyph-name="Ccaron" unicode="&#x10c;" horiz-adv-x="1114" 
d="M907 280h156q-9 -79 -48.5 -134.5t-104.5 -91t-154 -51.5t-198 -16q-117 0 -211 18.5t-160 59.5t-101.5 105.5t-35.5 157.5v51q0 93 35.5 157.5t101.5 105.5t160 59.5t211 18.5q110 0 200 -16.5t155 -52.5t104 -93t47 -138h-155q-10 49 -43.5 80.5t-81.5 49.5
t-106.5 24.5t-119.5 6.5q-67 0 -131 -8t-113.5 -30.5t-80 -61.5t-30.5 -102v-51q0 -63 30.5 -102t80 -61.5t113.5 -30.5t131 -8q60 0 117.5 6.5t105 23.5t81 47t45.5 77zM558 681l-483 294l24 41l458 -282l216 133l24 -42z" />
    <glyph glyph-name="Ccedilla" unicode="&#xc7;" horiz-adv-x="1114" 
d="M907 280h156q-9 -79 -48.5 -134.5t-104.5 -91t-154 -51.5t-198 -16q-117 0 -211 18.5t-160 59.5t-101.5 105.5t-35.5 157.5v51q0 93 35.5 157.5t101.5 105.5t160 59.5t211 18.5q110 0 200 -16.5t155 -52.5t104 -93t47 -138h-155q-10 49 -43.5 80.5t-81.5 49.5
t-106.5 24.5t-119.5 6.5q-67 0 -131 -8t-113.5 -30.5t-80 -61.5t-30.5 -102v-51q0 -63 30.5 -102t80 -61.5t113.5 -30.5t131 -8q60 0 117.5 6.5t105 23.5t81 47t45.5 77zM614 -48l34 -34l-146 -145l-34 33z" />
    <glyph glyph-name="Ccircumflex" unicode="&#x108;" horiz-adv-x="1114" 
d="M907 280h156q-9 -79 -48.5 -134.5t-104.5 -91t-154 -51.5t-198 -16q-117 0 -211 18.5t-160 59.5t-101.5 105.5t-35.5 157.5v51q0 93 35.5 157.5t101.5 105.5t160 59.5t211 18.5q110 0 200 -16.5t155 -52.5t104 -93t47 -138h-155q-10 49 -43.5 80.5t-81.5 49.5
t-106.5 24.5t-119.5 6.5q-67 0 -131 -8t-113.5 -30.5t-80 -61.5t-30.5 -102v-51q0 -63 30.5 -102t80 -61.5t113.5 -30.5t131 -8q60 0 117.5 6.5t105 23.5t81 47t45.5 77zM558 966l239 -144l-24 -42l-216 132l-458 -281l-24 41z" />
    <glyph glyph-name="Cdotaccent" unicode="&#x10a;" horiz-adv-x="1114" 
d="M907 280h156q-9 -79 -48.5 -134.5t-104.5 -91t-154 -51.5t-198 -16q-117 0 -211 18.5t-160 59.5t-101.5 105.5t-35.5 157.5v51q0 93 35.5 157.5t101.5 105.5t160 59.5t211 18.5q110 0 200 -16.5t155 -52.5t104 -93t47 -138h-155q-10 49 -43.5 80.5t-81.5 49.5
t-106.5 24.5t-119.5 6.5q-67 0 -131 -8t-113.5 -30.5t-80 -61.5t-30.5 -102v-51q0 -63 30.5 -102t80 -61.5t113.5 -30.5t131 -8q60 0 117.5 6.5t105 23.5t81 47t45.5 77zM533 955h50v-206h-50v206z" />
    <glyph glyph-name="Dcaron" unicode="&#x10e;" horiz-adv-x="1033" 
d="M498 0h-423v700h410l-452 275l24 41l458 -282l216 133l24 -42l-209 -126q105 -3 186.5 -23t137 -59.5t84.5 -101.5t29 -150v-30q0 -93 -32 -156.5t-94 -103.5t-152 -57.5t-207 -17.5zM498 142q67 0 127.5 6.5t106 27t72 58.5t26.5 101v30q0 63 -26.5 101t-72 58.5
t-106 27t-127.5 6.5h-265v-416h265z" />
    <glyph glyph-name="Eacute" unicode="&#xc9;" horiz-adv-x="921" 
d="M1031 920l-805 -220h640v-142h-633v-133h469v-139h-469v-144h633v-142h-791v658l-93 -25l-12 45l1049 287z" />
    <glyph glyph-name="Ebreve" unicode="&#x114;" horiz-adv-x="921" 
d="M75 700h791v-142h-633v-133h469v-139h-469v-144h633v-142h-791v700zM360 750q-68 0 -94.5 31.5t-26.5 84.5h52q0 -13 1.5 -25t8.5 -21t21 -14.5t38 -5.5h220q24 0 38 5.5t21 14.5t8.5 21t1.5 25v143h52v-143q0 -53 -26.5 -84.5t-94.5 -31.5h-220z" />
    <glyph glyph-name="Ecaron" unicode="&#x11a;" horiz-adv-x="921" 
d="M75 700h364l-452 275l24 41l458 -282l216 133l24 -42l-208 -125h365v-142h-633v-133h469v-139h-469v-144h633v-142h-791v700z" />
    <glyph glyph-name="Ecircumflex" unicode="&#xca;" horiz-adv-x="921" 
d="M470 966l239 -144l-24 -42l-216 132l-346 -212h743v-142h-633v-133h469v-139h-469v-144h633v-142h-791v670l-64 -39l-24 41z" />
    <glyph glyph-name="Edieresis" unicode="&#xcb;" horiz-adv-x="921" 
d="M75 700h791v-142h-633v-133h469v-139h-469v-144h633v-142h-791v700zM342 955h52v-206h-52v206zM760 850v-50h-206v50h206z" />
    <glyph glyph-name="Edotaccent" unicode="&#x116;" horiz-adv-x="921" 
d="M75 700h791v-142h-633v-133h469v-139h-469v-144h633v-142h-791v700zM445 955h50v-206h-50v206z" />
    <glyph glyph-name="Egrave" unicode="&#xc8;" horiz-adv-x="921" 
d="M75 700h619l-804 220l12 45l1049 -287l-12 -45l-73 20v-95h-633v-133h469v-139h-469v-144h633v-142h-791v700z" />
    <glyph glyph-name="Emacron" unicode="&#x112;" horiz-adv-x="921" 
d="M75 700h791v-142h-633v-133h469v-139h-469v-144h633v-142h-791v700zM1015 800v-50h-766v50h766z" />
    <glyph glyph-name="Eogonek" unicode="&#x118;" horiz-adv-x="921" 
d="M816 -206v206h-741v700h791v-142h-633v-133h469v-139h-469v-144h633v-348h-50z" />
    <glyph glyph-name="Gbreve" unicode="&#x11e;" horiz-adv-x="1116" 
d="M909 286h-531v139h688v-97q0 -93 -35.5 -157.5t-101.5 -105.5t-160 -59.5t-211 -18.5t-211 18.5t-160 59.5t-101.5 105.5t-35.5 157.5v51q0 93 35.5 157.5t101.5 105.5t160 59.5t211 18.5q96 0 177 -12.5t143.5 -39.5t105.5 -69.5t64 -102.5h-178q-24 25 -58 41.5
t-75 26.5t-86.5 13.5t-92.5 3.5q-67 0 -131 -8t-113.5 -30.5t-80 -61.5t-30.5 -102v-51q0 -63 30.5 -102t80 -61.5t113.5 -30.5t131 -8q61 0 119.5 6.5t106.5 24.5t81 49t44 80zM448 750q-68 0 -94.5 31.5t-26.5 84.5h52q0 -13 1.5 -25t8.5 -21t21 -14.5t38 -5.5h220
q24 0 38 5.5t21 14.5t8.5 21t1.5 25v143h52v-143q0 -53 -26.5 -84.5t-94.5 -31.5h-220z" />
    <glyph glyph-name="Gcircumflex" unicode="&#x11c;" horiz-adv-x="1116" 
d="M909 286h-531v139h688v-97q0 -93 -35.5 -157.5t-101.5 -105.5t-160 -59.5t-211 -18.5t-211 18.5t-160 59.5t-101.5 105.5t-35.5 157.5v51q0 93 35.5 157.5t101.5 105.5t160 59.5t211 18.5q96 0 177 -12.5t143.5 -39.5t105.5 -69.5t64 -102.5h-178q-24 25 -58 41.5
t-75 26.5t-86.5 13.5t-92.5 3.5q-67 0 -131 -8t-113.5 -30.5t-80 -61.5t-30.5 -102v-51q0 -63 30.5 -102t80 -61.5t113.5 -30.5t131 -8q61 0 119.5 6.5t106.5 24.5t81 49t44 80zM558 966l239 -144l-24 -42l-216 132l-458 -281l-24 41z" />
    <glyph glyph-name="uni0122" unicode="&#x122;" horiz-adv-x="1116" 
d="M909 286h-531v139h688v-97q0 -93 -35.5 -157.5t-101.5 -105.5t-160 -59.5t-211 -18.5t-211 18.5t-160 59.5t-101.5 105.5t-35.5 157.5v51q0 93 35.5 157.5t101.5 105.5t160 59.5t211 18.5q96 0 177 -12.5t143.5 -39.5t105.5 -69.5t64 -102.5h-178q-24 25 -58 41.5
t-75 26.5t-86.5 13.5t-92.5 3.5q-67 0 -131 -8t-113.5 -30.5t-80 -61.5t-30.5 -102v-51q0 -63 30.5 -102t80 -61.5t113.5 -30.5t131 -8q61 0 119.5 6.5t106.5 24.5t81 49t44 80zM695 -51h87l-249 -155h-87z" />
    <glyph glyph-name="Gdotaccent" unicode="&#x120;" horiz-adv-x="1116" 
d="M909 286h-531v139h688v-97q0 -93 -35.5 -157.5t-101.5 -105.5t-160 -59.5t-211 -18.5t-211 18.5t-160 59.5t-101.5 105.5t-35.5 157.5v51q0 93 35.5 157.5t101.5 105.5t160 59.5t211 18.5q96 0 177 -12.5t143.5 -39.5t105.5 -69.5t64 -102.5h-178q-24 25 -58 41.5
t-75 26.5t-86.5 13.5t-92.5 3.5q-67 0 -131 -8t-113.5 -30.5t-80 -61.5t-30.5 -102v-51q0 -63 30.5 -102t80 -61.5t113.5 -30.5t131 -8q61 0 119.5 6.5t106.5 24.5t81 49t44 80zM533 955h50v-206h-50v206z" />
    <glyph glyph-name="Hcircumflex" unicode="&#x124;" horiz-adv-x="1105" 
d="M872 700h158v-700h-158v283h-639v-283h-158v669l-62 -38l-24 41l483 294l239 -144l-24 -42l-216 132l-346 -212h108v-272h639v272z" />
    <glyph glyph-name="Iacute" unicode="&#xcd;" horiz-adv-x="822" 
d="M60 142h272v416h-272v96l-78 -21l-12 45l1049 287l12 -45l-805 -220h536v-142h-272v-416h272v-142h-702v142z" />
    <glyph glyph-name="Ibreve" unicode="&#x12c;" horiz-adv-x="822" 
d="M60 142h272v416h-272v142h702v-142h-272v-416h272v-142h-702v142zM301 750q-68 0 -94.5 31.5t-26.5 84.5h52q0 -13 1.5 -25t8.5 -21t21 -14.5t38 -5.5h220q24 0 38 5.5t21 14.5t8.5 21t1.5 25v143h52v-143q0 -53 -26.5 -84.5t-94.5 -31.5h-220z" />
    <glyph glyph-name="Icircumflex" unicode="&#xce;" horiz-adv-x="822" 
d="M60 142h272v416h-272v139l-108 -66l-24 41l483 294l239 -144l-24 -42l-216 132l-346 -212h698v-142h-272v-416h272v-142h-702v142z" />
    <glyph glyph-name="Idieresis" unicode="&#xcf;" horiz-adv-x="822" 
d="M60 142h272v416h-272v142h702v-142h-272v-416h272v-142h-702v142zM283 955h52v-206h-52v206zM701 850v-50h-206v50h206z" />
    <glyph glyph-name="Idotaccent" unicode="&#x130;" horiz-adv-x="822" 
d="M60 142h272v416h-272v142h702v-142h-272v-416h272v-142h-702v142zM386 955h50v-206h-50v206z" />
    <glyph glyph-name="Igrave" unicode="&#xcc;" horiz-adv-x="822" 
d="M60 142h272v416h-272v142h535l-804 220l12 45l1049 -287l-12 -45l-78 21v-96h-272v-416h272v-142h-702v142z" />
    <glyph glyph-name="Imacron" unicode="&#x12a;" horiz-adv-x="822" 
d="M60 142h272v416h-272v142h702v-142h-272v-416h272v-142h-702v142zM956 800v-50h-766v50h766z" />
    <glyph glyph-name="Iogonek" unicode="&#x12e;" horiz-adv-x="822" 
d="M712 -206v206h-652v142h272v416h-272v142h702v-142h-272v-416h272v-348h-50z" />
    <glyph glyph-name="Itilde" unicode="&#x128;" horiz-adv-x="822" 
d="M60 142h272v416h-272v101l-48 -25l-23 43l298 158l79 -57l349 187l23 -43l-375 -201l-79 57l-148 -78h626v-142h-272v-416h272v-142h-702v142z" />
    <glyph glyph-name="Jcircumflex" unicode="&#x134;" horiz-adv-x="1007" 
d="M473 129q51 0 105.5 6t99.5 28t74 64.5t29 114.5v216h-434v142h592v-356q-1 -102 -36.5 -170.5t-98 -110t-148 -59t-184.5 -17.5q-91 0 -169.5 14.5t-139.5 49t-100.5 90.5t-52.5 139h159q13 -51 45.5 -81t74.5 -45.5t90.5 -20t93.5 -4.5zM643 966l239 -144l-24 -42
l-216 132l-458 -281l-24 41z" />
    <glyph glyph-name="uni0136" unicode="&#x136;" horiz-adv-x="1017" 
d="M75 700h158v-297l530 297h284l-460 -258l295 -442h-184l-245 367l-220 -123v-244h-158v700zM254 -206h87l249 155h-87z" />
    <glyph glyph-name="Lacute" unicode="&#x139;" horiz-adv-x="841" 
d="M75 700h158v-558h563v-142h-721v700zM861 920l-1049 -287l-12 45l1049 287z" />
    <glyph glyph-name="Lcaron" unicode="&#x13d;" horiz-adv-x="841" 
d="M75 700h158v-558h563v-142h-721v700zM333 494h50v206h-50v-206z" />
    <glyph glyph-name="uni013B" unicode="&#x13b;" horiz-adv-x="841" 
d="M75 700h158v-558h563v-142h-721v700zM224 -206h87l249 155h-87z" />
    <glyph glyph-name="Ldot" unicode="&#x13f;" horiz-adv-x="841" 
d="M75 700h158v-558h563v-142h-721v700zM542 332h50v206h-50v-206z" />
    <glyph glyph-name="Nacute" unicode="&#x143;" horiz-adv-x="1065" 
d="M75 700h133l969 265l12 -45l-917 -251l560 -481v512h158v-700h-162l-595 510v-510h-158v700z" />
    <glyph glyph-name="Ncaron" unicode="&#x147;" horiz-adv-x="1065" 
d="M75 700h162l595 -512v512h158v-700h-162l-595 510v-510h-158v700zM532 681l-483 294l24 41l458 -282l216 133l24 -42z" />
    <glyph glyph-name="uni0145" unicode="&#x145;" horiz-adv-x="1065" 
d="M75 700h162l595 -512v512h158v-700h-162l-595 510v-510h-158v700zM320 -206h87l249 155h-87z" />
    <glyph glyph-name="Ntilde" unicode="&#xd1;" horiz-adv-x="1065" 
d="M75 700h136l255 135l79 -57l349 187l23 -43l-375 -201l-79 57l-196 -104l565 -486v512h158v-700h-162l-595 510v-510h-158v700z" />
    <glyph glyph-name="Oacute" unicode="&#xd3;" horiz-adv-x="1116" 
d="M558 581q-67 0 -131 -8t-113.5 -30.5t-80 -61.5t-30.5 -102v-51q0 -63 30.5 -102t80 -61.5t113.5 -30.5t131 -8t131 8t113.5 30.5t80 61.5t30.5 102v51q0 63 -30.5 102t-80 61.5t-113.5 30.5t-131 8zM558 720q117 0 211 -18.5t160 -59.5t101.5 -105.5t35.5 -157.5v-51
q0 -93 -35.5 -157.5t-101.5 -105.5t-160 -59.5t-211 -18.5t-211 18.5t-160 59.5t-101.5 105.5t-35.5 157.5v51q0 93 35.5 157.5t101.5 105.5t160 59.5t211 18.5zM1032 920l-1049 -287l-12 45l1049 287z" />
    <glyph glyph-name="Obreve" unicode="&#x14e;" horiz-adv-x="1116" 
d="M558 581q-67 0 -131 -8t-113.5 -30.5t-80 -61.5t-30.5 -102v-51q0 -63 30.5 -102t80 -61.5t113.5 -30.5t131 -8t131 8t113.5 30.5t80 61.5t30.5 102v51q0 63 -30.5 102t-80 61.5t-113.5 30.5t-131 8zM558 720q117 0 211 -18.5t160 -59.5t101.5 -105.5t35.5 -157.5v-51
q0 -93 -35.5 -157.5t-101.5 -105.5t-160 -59.5t-211 -18.5t-211 18.5t-160 59.5t-101.5 105.5t-35.5 157.5v51q0 93 35.5 157.5t101.5 105.5t160 59.5t211 18.5zM448 750q-68 0 -94.5 31.5t-26.5 84.5h52q0 -13 1.5 -25t8.5 -21t21 -14.5t38 -5.5h220q24 0 38 5.5t21 14.5
t8.5 21t1.5 25v143h52v-143q0 -53 -26.5 -84.5t-94.5 -31.5h-220z" />
    <glyph glyph-name="Ocircumflex" unicode="&#xd4;" horiz-adv-x="1116" 
d="M558 581q-67 0 -131 -8t-113.5 -30.5t-80 -61.5t-30.5 -102v-51q0 -63 30.5 -102t80 -61.5t113.5 -30.5t131 -8t131 8t113.5 30.5t80 61.5t30.5 102v51q0 63 -30.5 102t-80 61.5t-113.5 30.5t-131 8zM558 720q117 0 211 -18.5t160 -59.5t101.5 -105.5t35.5 -157.5v-51
q0 -93 -35.5 -157.5t-101.5 -105.5t-160 -59.5t-211 -18.5t-211 18.5t-160 59.5t-101.5 105.5t-35.5 157.5v51q0 93 35.5 157.5t101.5 105.5t160 59.5t211 18.5zM558 966l239 -144l-24 -42l-216 132l-458 -281l-24 41z" />
    <glyph glyph-name="Odieresis" unicode="&#xd6;" horiz-adv-x="1116" 
d="M558 581q-67 0 -131 -8t-113.5 -30.5t-80 -61.5t-30.5 -102v-51q0 -63 30.5 -102t80 -61.5t113.5 -30.5t131 -8t131 8t113.5 30.5t80 61.5t30.5 102v51q0 63 -30.5 102t-80 61.5t-113.5 30.5t-131 8zM558 720q117 0 211 -18.5t160 -59.5t101.5 -105.5t35.5 -157.5v-51
q0 -93 -35.5 -157.5t-101.5 -105.5t-160 -59.5t-211 -18.5t-211 18.5t-160 59.5t-101.5 105.5t-35.5 157.5v51q0 93 35.5 157.5t101.5 105.5t160 59.5t211 18.5zM430 955h52v-206h-52v206zM848 850v-50h-206v50h206z" />
    <glyph glyph-name="Ograve" unicode="&#xd2;" horiz-adv-x="1116" 
d="M558 581q-67 0 -131 -8t-113.5 -30.5t-80 -61.5t-30.5 -102v-51q0 -63 30.5 -102t80 -61.5t113.5 -30.5t131 -8t131 8t113.5 30.5t80 61.5t30.5 102v51q0 63 -30.5 102t-80 61.5t-113.5 30.5t-131 8zM558 720q117 0 211 -18.5t160 -59.5t101.5 -105.5t35.5 -157.5v-51
q0 -93 -35.5 -157.5t-101.5 -105.5t-160 -59.5t-211 -18.5t-211 18.5t-160 59.5t-101.5 105.5t-35.5 157.5v51q0 93 35.5 157.5t101.5 105.5t160 59.5t211 18.5zM85 920l12 45l1049 -287l-12 -45z" />
    <glyph glyph-name="Ohungarumlaut" unicode="&#x150;" horiz-adv-x="1116" 
d="M558 581q-67 0 -131 -8t-113.5 -30.5t-80 -61.5t-30.5 -102v-51q0 -63 30.5 -102t80 -61.5t113.5 -30.5t131 -8t131 8t113.5 30.5t80 61.5t30.5 102v51q0 63 -30.5 102t-80 61.5t-113.5 30.5t-131 8zM558 720q117 0 211 -18.5t160 -59.5t101.5 -105.5t35.5 -157.5v-51
q0 -93 -35.5 -157.5t-101.5 -105.5t-160 -59.5t-211 -18.5t-211 18.5t-160 59.5t-101.5 105.5t-35.5 157.5v51q0 93 35.5 157.5t101.5 105.5t160 59.5t211 18.5zM1031 822l-248 -68l-12 45l248 68zM1031 920l-1049 -287l-12 45l1049 287z" />
    <glyph glyph-name="Omacron" unicode="&#x14c;" horiz-adv-x="1116" 
d="M558 581q-67 0 -131 -8t-113.5 -30.5t-80 -61.5t-30.5 -102v-51q0 -63 30.5 -102t80 -61.5t113.5 -30.5t131 -8t131 8t113.5 30.5t80 61.5t30.5 102v51q0 63 -30.5 102t-80 61.5t-113.5 30.5t-131 8zM558 720q117 0 211 -18.5t160 -59.5t101.5 -105.5t35.5 -157.5v-51
q0 -93 -35.5 -157.5t-101.5 -105.5t-160 -59.5t-211 -18.5t-211 18.5t-160 59.5t-101.5 105.5t-35.5 157.5v51q0 93 35.5 157.5t101.5 105.5t160 59.5t211 18.5zM1103 800v-50h-766v50h766z" />
    <glyph glyph-name="Otilde" unicode="&#xd5;" horiz-adv-x="1116" 
d="M558 581q-67 0 -131 -8t-113.5 -30.5t-80 -61.5t-30.5 -102v-51q0 -63 30.5 -102t80 -61.5t113.5 -30.5t131 -8t131 8t113.5 30.5t80 61.5t30.5 102v51q0 63 -30.5 102t-80 61.5t-113.5 30.5t-131 8zM558 720q117 0 211 -18.5t160 -59.5t101.5 -105.5t35.5 -157.5v-51
q0 -93 -35.5 -157.5t-101.5 -105.5t-160 -59.5t-211 -18.5t-211 18.5t-160 59.5t-101.5 105.5t-35.5 157.5v51q0 93 35.5 157.5t101.5 105.5t160 59.5t211 18.5zM749 922l-375 -201l-79 57l-272 -144l-23 43l298 158l79 -57l349 187z" />
    <glyph glyph-name="Racute" unicode="&#x154;" horiz-adv-x="1151" 
d="M1257 920l-805 -220h326q115 0 181 -54.5t66 -151.5q0 -52 -17 -88.5t-49 -60t-78 -36t-103 -17.5l-185 -17l598 -275h-316l-546 251l-96 -8v-243h-158v700h202l968 265zM788 426q36 3 58.5 18.5t22.5 49.5q0 35 -22.5 49.5t-58.5 14.5h-555v-182z" />
    <glyph glyph-name="Rcaron" unicode="&#x158;" horiz-adv-x="1151" 
d="M75 700h444l-452 275l24 41l458 -282l216 133l24 -42l-208 -125h197q115 0 181 -54.5t66 -151.5q0 -52 -17 -88.5t-49 -60t-78 -36t-103 -17.5l-185 -17l598 -275h-316l-546 251l-96 -8v-243h-158v700zM788 426q36 3 58.5 18.5t22.5 49.5q0 35 -22.5 49.5t-58.5 14.5
h-555v-182z" />
    <glyph glyph-name="uni0156" unicode="&#x156;" horiz-adv-x="1151" 
d="M75 700h703q115 0 181 -54.5t66 -151.5q0 -52 -17 -88.5t-49 -60t-78 -36t-103 -17.5l-185 -17l598 -275h-316l-546 251l-96 -8v-243h-158v700zM788 426q36 3 58.5 18.5t22.5 49.5q0 35 -22.5 49.5t-58.5 14.5h-555v-182zM338 -206h87l249 155h-87z" />
    <glyph glyph-name="Sacute" unicode="&#x15a;" horiz-adv-x="969" 
d="M65 520v27q0 86 56 119.5t160 33.5h303l141 -142h-511q0 -42 52.5 -65.5t152.5 -38.5l302 -46q106 -16 162 -59.5t56 -117.5v-43q0 -98 -106.5 -149.5t-312.5 -51.5q-101 0 -187.5 17t-151 52.5t-102.5 91t-41 132.5h154q8 -43 36 -72t71.5 -46.5t99.5 -25t120 -7.5
q75 0 126 5t82 14t44.5 22t13.5 29v14q0 27 -25.5 39t-78.5 20l-344 52q-61 9 -111 25.5t-86 41t-55.5 57t-19.5 72.5zM869 920l-1049 -287l-12 45l1049 287z" />
    <glyph glyph-name="Scaron" unicode="&#x160;" horiz-adv-x="969" 
d="M65 520v27q0 86 56 119.5t160 33.5h303l141 -142h-511q0 -42 52.5 -65.5t152.5 -38.5l302 -46q106 -16 162 -59.5t56 -117.5v-43q0 -98 -106.5 -149.5t-312.5 -51.5q-101 0 -187.5 17t-151 52.5t-102.5 91t-41 132.5h154q8 -43 36 -72t71.5 -46.5t99.5 -25t120 -7.5
q75 0 126 5t82 14t44.5 22t13.5 29v14q0 27 -25.5 39t-78.5 20l-344 52q-61 9 -111 25.5t-86 41t-55.5 57t-19.5 72.5zM423 681l-483 294l24 41l458 -282l216 133l24 -42z" />
    <glyph glyph-name="Scedilla" unicode="&#x15e;" horiz-adv-x="969" 
d="M65 520v27q0 86 56 119.5t160 33.5h303l141 -142h-511q0 -42 52.5 -65.5t152.5 -38.5l302 -46q106 -16 162 -59.5t56 -117.5v-43q0 -98 -106.5 -149.5t-312.5 -51.5q-101 0 -187.5 17t-151 52.5t-102.5 91t-41 132.5h154q8 -43 36 -72t71.5 -46.5t99.5 -25t120 -7.5
q75 0 126 5t82 14t44.5 22t13.5 29v14q0 27 -25.5 39t-78.5 20l-344 52q-61 9 -111 25.5t-86 41t-55.5 57t-19.5 72.5zM576 -48l34 -34l-146 -145l-34 33z" />
    <glyph glyph-name="Scircumflex" unicode="&#x15c;" horiz-adv-x="969" 
d="M65 520v27q0 86 56 119.5t160 33.5h303l141 -142h-511q0 -42 52.5 -65.5t152.5 -38.5l302 -46q106 -16 162 -59.5t56 -117.5v-43q0 -98 -106.5 -149.5t-312.5 -51.5q-101 0 -187.5 17t-151 52.5t-102.5 91t-41 132.5h154q8 -43 36 -72t71.5 -46.5t99.5 -25t120 -7.5
q75 0 126 5t82 14t44.5 22t13.5 29v14q0 27 -25.5 39t-78.5 20l-344 52q-61 9 -111 25.5t-86 41t-55.5 57t-19.5 72.5zM423 966l239 -144l-24 -42l-216 132l-458 -281l-24 41z" />
    <glyph glyph-name="uni0218" unicode="&#x218;" horiz-adv-x="969" 
d="M65 520v27q0 86 56 119.5t160 33.5h303l141 -142h-511q0 -42 52.5 -65.5t152.5 -38.5l302 -46q106 -16 162 -59.5t56 -117.5v-43q0 -98 -106.5 -149.5t-312.5 -51.5q-101 0 -187.5 17t-151 52.5t-102.5 91t-41 132.5h154q8 -43 36 -72t71.5 -46.5t99.5 -25t120 -7.5
q75 0 126 5t82 14t44.5 22t13.5 29v14q0 27 -25.5 39t-78.5 20l-344 52q-61 9 -111 25.5t-86 41t-55.5 57t-19.5 72.5zM557 -51h87l-249 -155h-87z" />
    <glyph glyph-name="Tcaron" unicode="&#x164;" horiz-adv-x="992" 
d="M35 700h430l-452 275l24 41l458 -282l216 133l24 -42l-208 -125h430v-142h-382v-558h-158v558h-382v142z" />
    <glyph glyph-name="uni021A" unicode="&#x21a;" horiz-adv-x="992" 
d="M35 700h922v-142h-382v-558h-158v558h-382v142zM284 -206h87l249 155h-87z" />
    <glyph glyph-name="Uacute" unicode="&#xda;" horiz-adv-x="1070" 
d="M536 126q51 0 105.5 6.5t99.5 29t74 65.5t29 115v358h158v-356q0 -102 -35.5 -170.5t-98.5 -110t-148.5 -59t-184.5 -17.5t-184 17.5t-148 59t-99 110t-36 170.5v356h158v-358q0 -72 29 -115t74.5 -65.5t100.5 -29t106 -6.5zM1032 920l-1049 -287l-12 45l1049 287z" />
    <glyph glyph-name="Ubreve" unicode="&#x16c;" horiz-adv-x="1070" 
d="M536 126q51 0 105.5 6.5t99.5 29t74 65.5t29 115v358h158v-356q0 -102 -35.5 -170.5t-98.5 -110t-148.5 -59t-184.5 -17.5t-184 17.5t-148 59t-99 110t-36 170.5v356h158v-358q0 -72 29 -115t74.5 -65.5t100.5 -29t106 -6.5zM425 750q-68 0 -94.5 31.5t-26.5 84.5h52
q0 -13 1.5 -25t8.5 -21t21 -14.5t38 -5.5h220q24 0 38 5.5t21 14.5t8.5 21t1.5 25v143h52v-143q0 -53 -26.5 -84.5t-94.5 -31.5h-220z" />
    <glyph glyph-name="Ucircumflex" unicode="&#xdb;" horiz-adv-x="1070" 
d="M536 126q51 0 105.5 6.5t99.5 29t74 65.5t29 115v358h158v-356q0 -102 -35.5 -170.5t-98.5 -110t-148.5 -59t-184.5 -17.5t-184 17.5t-148 59t-99 110t-36 170.5v356h158v-358q0 -72 29 -115t74.5 -65.5t100.5 -29t106 -6.5zM454 966l239 -144l-24 -42l-216 132
l-458 -281l-24 41z" />
    <glyph glyph-name="Udieresis" unicode="&#xdc;" horiz-adv-x="1070" 
d="M536 126q51 0 105.5 6.5t99.5 29t74 65.5t29 115v358h158v-356q0 -102 -35.5 -170.5t-98.5 -110t-148.5 -59t-184.5 -17.5t-184 17.5t-148 59t-99 110t-36 170.5v356h158v-358q0 -72 29 -115t74.5 -65.5t100.5 -29t106 -6.5zM407 955h52v-206h-52v206zM825 850v-50h-206
v50h206z" />
    <glyph glyph-name="Ugrave" unicode="&#xd9;" horiz-adv-x="1070" 
d="M536 126q51 0 105.5 6.5t99.5 29t74 65.5t29 115v358h158v-356q0 -102 -35.5 -170.5t-98.5 -110t-148.5 -59t-184.5 -17.5t-184 17.5t-148 59t-99 110t-36 170.5v356h158v-358q0 -72 29 -115t74.5 -65.5t100.5 -29t106 -6.5zM39 920l12 45l1049 -287l-12 -45z" />
    <glyph glyph-name="Uhungarumlaut" unicode="&#x170;" horiz-adv-x="1070" 
d="M1172 920l-946 -259v-319q0 -72 29 -115t74.5 -65.5t100.5 -29t106 -6.5t105.5 6.5t99.5 29t74 65.5t29 115v358h158v-356q0 -102 -35.5 -170.5t-98.5 -110t-148.5 -59t-184.5 -17.5t-184 17.5t-148 59t-99 110t-36 170.5v356h123l969 265zM1172 822l-248 -68l-12 45
l248 68z" />
    <glyph glyph-name="Umacron" unicode="&#x16a;" horiz-adv-x="1070" 
d="M536 126q51 0 105.5 6.5t99.5 29t74 65.5t29 115v358h158v-356q0 -102 -35.5 -170.5t-98.5 -110t-148.5 -59t-184.5 -17.5t-184 17.5t-148 59t-99 110t-36 170.5v356h158v-358q0 -72 29 -115t74.5 -65.5t100.5 -29t106 -6.5zM1080 800v-50h-766v50h766z" />
    <glyph glyph-name="Uogonek" unicode="&#x172;" horiz-adv-x="1070" 
d="M536 126q51 0 105.5 6.5t99.5 29t74 65.5t29 115v358h158v-356q0 -102 -35.5 -170.5t-98.5 -110t-148.5 -59t-184.5 -17.5t-184 17.5t-148 59t-99 110t-36 170.5v356h158v-358q0 -72 29 -115t74.5 -65.5t100.5 -29t106 -6.5zM646 -206v206h50v-206h-50z" />
    <glyph glyph-name="Uring" unicode="&#x16e;" horiz-adv-x="1070" 
d="M536 126q51 0 105.5 6.5t99.5 29t74 65.5t29 115v358h158v-356q0 -102 -35.5 -170.5t-98.5 -110t-148.5 -59t-184.5 -17.5t-184 17.5t-148 59t-99 110t-36 170.5v356h158v-358q0 -72 29 -115t74.5 -65.5t100.5 -29t106 -6.5zM535 425q-50 0 -94.5 19.5t-77.5 52.5
t-52.5 77.5t-19.5 94.5q0 51 19.5 95.5t52.5 77.5t77.5 52.5t94.5 19.5q51 0 95.5 -19.5t77.5 -52.5t52.5 -77.5t19.5 -95.5q0 -50 -19.5 -94.5t-52.5 -77.5t-77.5 -52.5t-95.5 -19.5zM535 470q42 0 78.5 15.5t63.5 42.5t42.5 63.5t15.5 77.5q0 42 -15.5 78.5t-42.5 63.5
t-63.5 42.5t-78.5 15.5q-41 0 -77.5 -15.5t-63.5 -42.5t-42.5 -63.5t-15.5 -78.5q0 -41 15.5 -77.5t42.5 -63.5t63.5 -42.5t77.5 -15.5z" />
    <glyph glyph-name="Utilde" unicode="&#x168;" horiz-adv-x="1070" 
d="M536 126q51 0 105.5 6.5t99.5 29t74 65.5t29 115v358h158v-356q0 -102 -35.5 -170.5t-98.5 -110t-148.5 -59t-184.5 -17.5t-184 17.5t-148 59t-99 110t-36 170.5v356h158v-358q0 -72 29 -115t74.5 -65.5t100.5 -29t106 -6.5zM910 922l-375 -201l-79 57l-272 -144l-23 43
l298 158l79 -57l349 187z" />
    <glyph glyph-name="Wacute" unicode="&#x1e82;" horiz-adv-x="1234" 
d="M528 550h178l195 -486l127 636h164l-140 -700h-279l-156 395l-156 -395h-279l-140 700h164l127 -636zM1324 920l-1049 -287l-12 45l1049 287z" />
    <glyph glyph-name="Wcircumflex" unicode="&#x174;" horiz-adv-x="1234" 
d="M528 550h178l195 -486l127 636h164l-140 -700h-279l-156 395l-156 -395h-279l-140 700h164l127 -636zM617 966l239 -144l-24 -42l-216 132l-458 -281l-24 41z" />
    <glyph glyph-name="Wdieresis" unicode="&#x1e84;" horiz-adv-x="1234" 
d="M528 550h178l195 -486l127 636h164l-140 -700h-279l-156 395l-156 -395h-279l-140 700h164l127 -636zM489 955h52v-206h-52v206zM907 850v-50h-206v50h206z" />
    <glyph glyph-name="Wgrave" unicode="&#x1e80;" horiz-adv-x="1234" 
d="M528 550h178l195 -486l127 636h164l-140 -700h-279l-156 395l-156 -395h-279l-140 700h164l127 -636zM-89 920l12 45l1049 -287l-12 -45z" />
    <glyph glyph-name="Yacute" unicode="&#xdd;" horiz-adv-x="1028" 
d="M594 295v-295h-158v295l-441 405h223l296 -276l297 276h222zM1153 920l-1049 -287l-12 45l1049 287z" />
    <glyph glyph-name="Ycircumflex" unicode="&#x176;" horiz-adv-x="1028" 
d="M594 295v-295h-158v295l-441 405h223l296 -276l297 276h222zM625 967l239 -144l-24 -42l-216 132l-458 -281l-24 41z" />
    <glyph glyph-name="Ydieresis" unicode="&#x178;" horiz-adv-x="1028" 
d="M594 295v-295h-158v295l-441 405h223l296 -276l297 276h222zM387 955h52v-206h-52v206zM805 850v-50h-206v50h206z" />
    <glyph glyph-name="Ygrave" unicode="&#x1ef2;" horiz-adv-x="1028" 
d="M594 295v-295h-158v295l-441 405h223l296 -276l297 276h222zM-131 920l12 45l1049 -287l-12 -45z" />
    <glyph glyph-name="Zacute" unicode="&#x179;" 
d="M961 0h-846v142l545 416h-635v142h860v-142l-546 -416h622v-142zM1162 920l-1049 -287l-12 45l1049 287z" />
    <glyph glyph-name="Zcaron" unicode="&#x17d;" 
d="M961 0h-846v142l545 416h-635v142h860v-142l-546 -416h622v-142zM456 681l-483 294l24 41l458 -282l216 133l24 -42z" />
    <glyph glyph-name="Zdotaccent" unicode="&#x17b;" 
d="M961 0h-846v142l545 416h-635v142h860v-142l-546 -416h622v-142zM430 955h50v-206h-50v206z" />
    <glyph glyph-name="uni0162" unicode="&#x162;" horiz-adv-x="992" 
d="M35 700h922v-142h-382v-558h-158v558h-382v142zM284 -206h87l249 155h-87z" />
    <glyph glyph-name="uni0232" unicode="&#x232;" horiz-adv-x="1028" 
d="M594 295v-295h-158v295l-441 405h223l296 -276l297 276h222zM1060 800v-50h-766v50h766z" />
    <glyph glyph-name="uni1ECA" unicode="&#x1eca;" horiz-adv-x="822" 
d="M60 142h272v416h-272v142h702v-142h-272v-416h272v-142h-702v142zM386 -206h50v157h-50v-157z" />
    <glyph glyph-name="uni1ECC" unicode="&#x1ecc;" horiz-adv-x="1116" 
d="M558 581q-67 0 -131 -8t-113.5 -30.5t-80 -61.5t-30.5 -102v-51q0 -63 30.5 -102t80 -61.5t113.5 -30.5t131 -8t131 8t113.5 30.5t80 61.5t30.5 102v51q0 63 -30.5 102t-80 61.5t-113.5 30.5t-131 8zM558 720q117 0 211 -18.5t160 -59.5t101.5 -105.5t35.5 -157.5v-51
q0 -93 -35.5 -157.5t-101.5 -105.5t-160 -59.5t-211 -18.5t-211 18.5t-160 59.5t-101.5 105.5t-35.5 157.5v51q0 93 35.5 157.5t101.5 105.5t160 59.5t211 18.5zM533 -49h50v-157h-50v157z" />
    <glyph glyph-name="uni1EE4" unicode="&#x1ee4;" horiz-adv-x="1070" 
d="M536 126q51 0 105.5 6.5t99.5 29t74 65.5t29 115v358h158v-356q0 -102 -35.5 -170.5t-98.5 -110t-148.5 -59t-184.5 -17.5t-184 17.5t-148 59t-99 110t-36 170.5v356h158v-358q0 -72 29 -115t74.5 -65.5t100.5 -29t106 -6.5zM510 -49h50v-157h-50v157z" />
    <glyph glyph-name="A.salt" 
d="M931 93v-157l-871 281v267l871 281v-157l-247 -79v-358zM536 218v264l-417 -132z" />
    <glyph glyph-name="B.aalt" 
d="M60 0v472q0 56 21 101.5t56 78t80 50.5t92 18q60 0 97 -22.5t55 -51.5q9 38 31 68.5t52 51.5t65.5 32.5t71.5 11.5q49 0 94 -15t79.5 -44.5t55.5 -73.5t21 -102v-575h-871zM773 557q0 47 -29.5 79t-74.5 32t-74.5 -32t-29.5 -79v-415h208v415zM416 474q0 19 -7 38
t-20 33.5t-31.5 23.5t-40.5 9t-40.5 -9t-31.5 -23.5t-20 -33.5t-7 -38v-332h198v332z" />
    <glyph glyph-name="C.salt" horiz-adv-x="852" 
d="M506 793q68 -13 121.5 -46t90 -82t55.5 -111.5t19 -134.5v-138q0 -81 -24.5 -151t-71.5 -121t-115 -80t-155 -29t-155 29t-115 80t-71.5 121t-24.5 151v138q0 72 19 134.5t56 111.5t90.5 82.5t121.5 45.5v-150q-61 -24 -95 -82t-34 -132v-158q0 -48 14.5 -89.5
t41.5 -72.5t65.5 -49t86.5 -18t86.5 18t65.5 49t41.5 72.5t14.5 89.5v158q0 74 -33.5 131.5t-94.5 82.5v150z" />
    <glyph glyph-name="D.aalt" horiz-adv-x="852" 
d="M792 0h-732v419q0 81 24.5 151t71.5 121t115 80t155 29t155 -29t115 -80t71.5 -121t24.5 -151v-419zM634 429q0 48 -14.5 89.5t-41.5 72.5t-65.5 49t-86.5 18t-86.5 -18t-65.5 -49t-41.5 -72.5t-14.5 -89.5v-287h416v287z" />
    <glyph glyph-name="E.salt" 
d="M60 0v700h158v-558h200v394h155v-394h200v558h158v-700h-871z" />
    <glyph glyph-name="F.salt" 
d="M60 0v700h158v-558h200v394h155v-394h358v-142h-871z" />
    <glyph glyph-name="G.salt" horiz-adv-x="852" 
d="M353 190v604q34 6 73 6q87 0 155 -29t115 -80t71.5 -121t24.5 -151v-138q0 -81 -24.5 -151t-71.5 -121t-115 -80t-155 -29t-155 29t-115 80t-71.5 121t-24.5 151v138q0 125 56 218.5t161 135.5v-178q-29 -32 -44 -74.5t-15 -91.5v-158q0 -48 14.5 -89.5t41.5 -72.5
t65.5 -49t86.5 -18t86.5 18t65.5 49t41.5 72.5t14.5 89.5v158q0 38 -9.5 72t-27 62.5t-42.5 49.5t-57 33v-456h-145z" />
    <glyph glyph-name="H.aalt" 
d="M931 0h-871v142h356v416h-356v142h871v-142h-357v-416h357v-142z" />
    <glyph glyph-name="I.aalt" 
d="M774 700h158v-700h-158v278h-555v-278h-158v700h158v-277h555v277z" />
    <glyph glyph-name="J.aalt" 
d="M575 142q48 0 87.5 14.5t68 41.5t44.5 65.5t16 86.5t-16 86.5t-44.5 65.5t-68 41.5t-87.5 14.5h-515v142h505q81 0 151 -21t121 -64t80 -109t29 -156q0 -89 -28 -154.5t-78 -108.5t-118 -64.5t-147 -22.5v142z" />
    <glyph glyph-name="K.aalt" 
d="M60 816l337 -396l534 300v-165l-439 -246l142 -167h297v-142h-871v142h389l-389 457v217z" />
    <glyph glyph-name="L.salt" 
d="M60 0v142h713v558h158v-700h-871z" />
    <glyph glyph-name="M.aalt" 
d="M931 700v-142h-544l370 -97v-222l-370 -97h544v-142h-871v177l640 173l-640 173v177h871z" />
    <glyph glyph-name="N.aalt" 
d="M60 0v146l622 412h-622v142h871v-146l-622 -412h622v-142h-871z" />
    <glyph glyph-name="O.aalt" horiz-adv-x="852" 
d="M426 800q87 0 155 -29t115 -80t71.5 -121t24.5 -151v-138q0 -81 -24.5 -151t-71.5 -121t-115 -80t-155 -29t-155 29t-115 80t-71.5 121t-24.5 151v138q0 81 24.5 151t71.5 121t115 80t155 29zM426 658q-48 0 -86.5 -18t-65.5 -49t-41.5 -72.5t-14.5 -89.5v-158
q0 -48 14.5 -89.5t41.5 -72.5t65.5 -49t86.5 -18t86.5 18t65.5 49t41.5 72.5t14.5 89.5v158q0 48 -14.5 89.5t-41.5 72.5t-65.5 49t-86.5 18z" />
    <glyph glyph-name="P.aalt" 
d="M650 432v-290h281v-142h-871v432q0 61 22.5 113.5t62 91.5t93.5 61t117 22t117 -22t93.5 -61t62 -91.5t22.5 -113.5zM492 425q0 33 -9.5 61t-27 48.5t-43 32t-57.5 11.5t-57.5 -11.5t-43 -32t-27 -48.5t-9.5 -61v-283h274v283z" />
    <glyph glyph-name="Q.aalt" horiz-adv-x="852" 
d="M426 800q63 0 115 -15.5t95 -43.5l156 145v-192l-58 -54q58 -95 58 -221v-138q0 -81 -24.5 -151t-71.5 -121t-115 -80t-155 -29t-155 29t-115 80t-71.5 121t-24.5 151v138q0 81 24.5 151t71.5 121t115 80t155 29zM634 429q0 27 -5 52.5t-14 48.5l-381 -353
q22 -60 71 -97.5t121 -37.5q48 0 86.5 18t65.5 49t41.5 72.5t14.5 89.5v158zM426 658q-48 0 -86.5 -18t-65.5 -49t-41.5 -72.5t-14.5 -89.5v-74l303 281q-42 22 -95 22z" />
    <glyph glyph-name="R.aalt" 
d="M60 0v463q0 61 23 109t60 81t84 50t95 17q105 0 168 -66t80 -181l5 -37l356 450v-234l-327 -413l14 -97h313v-142h-871zM322 578q-50 0 -77 -34.5t-27 -88.5v-313h251l-46 319q-3 18 -9 38.5t-17.5 38t-29.5 29t-45 11.5z" />
    <glyph glyph-name="S.salt" 
d="M946 363q0 -93 -28 -165.5t-78 -122.5t-118 -77t-147 -28v142q48 0 87.5 18.5t68 51.5t44.5 79t16 102q0 49 -8.5 85.5t-22 61t-30.5 36.5t-33 12h-14q-27 0 -46.5 -31.5t-38.5 -84.5l-61 -170q-24 -66 -58.5 -117t-74 -85.5t-82 -52t-82.5 -17.5h-27q-86 0 -119.5 56
t-33.5 160v129l158 156v-359q21 0 46 15.5t50 43t48.5 66.5t40.5 87l46 128q18 50 39 90.5t46.5 69t57.5 43.5t73 15h43q49 0 92 -21.5t75.5 -63.5t51.5 -105t19 -147z" />
    <glyph glyph-name="T.salt" 
d="M60 0v700h158v-277h713v-145h-713v-278h-158z" />
    <glyph glyph-name="U.aalt" 
d="M791 350q0 48 -16 86.5t-44.5 65.5t-68 41.5t-87.5 14.5h-515v142h505q81 0 151 -21t121 -64t80 -109t29 -156t-29 -156t-80 -109t-121 -64t-151 -21h-505v142h515q48 0 87.5 14.5t68 41.5t44.5 65.5t16 86.5z" />
    <glyph glyph-name="V.aalt" 
d="M60 109l813 241l-813 242v153l871 -264v-261l-871 -264v153z" />
    <glyph glyph-name="W.aalt" 
d="M590 350l341 -41v-257l-871 -92v145l814 83l-463 69v186l463 69l-814 83v145l871 -92v-257z" />
    <glyph glyph-name="X.aalt" 
d="M60 841l479 -344l392 223v-168l-353 -199l353 -198v-168l-392 222l-479 -343v175l437 312l-437 313v175z" />
    <glyph glyph-name="Y.aalt" 
d="M60 113l349 236l-349 237v174l492 -338h379v-145h-379l-492 -338v174z" />
    <glyph glyph-name="Z.salt" horiz-adv-x="820" 
d="M760 776v-776h-148l-394 462v-552h-158v790h148l394 -462v538h158z" />
    <glyph glyph-name="A.ss02" horiz-adv-x="1091" 
d="M586 364q0 -23 3 -37t6.5 -27t6.5 -28.5t3 -41.5q0 -31 -9 -51.5t-20 -38t-20 -36t-9 -45.5q0 -29 12.5 -46.5t29.5 -32t33.5 -29.5t25.5 -37q11 -30 10.5 -62.5t-23.5 -56.5q-22 -23 -55 -21t-60 28q-30 29 -46 75.5t-16 110.5q0 54 13.5 88t29 59.5t29 46.5t13.5 48
t-6 43.5t-13.5 34.5t-13.5 42.5t-6 67.5v145l-323 -563h-171l402 700h267l402 -700h-171l-324 565v-201z" />
    <glyph glyph-name="C.ss02" horiz-adv-x="1114" 
d="M203 328q0 -63 30.5 -102t80 -61.5t113.5 -30.5t131 -8q60 0 117.5 6.5t105 23.5t81 47t45.5 77h156q-9 -79 -48.5 -134.5t-104.5 -91t-154 -51.5t-198 -16q-117 0 -211 18.5t-160 59.5t-101.5 105.5t-35.5 157.5v51q0 71 19.5 126.5t53 94t78 58.5t94.5 20t81 -13
t50 -32t29 -41.5t18 -41.5t17.5 -32t27.5 -13t31 18t25.5 45.5t26.5 59t33.5 59t46.5 45.5t66 18q41 0 80.5 -14.5t74 -38t63 -52.5t49 -58.5t32 -56t11.5 -43.5q0 -34 -22 -55t-54 -21q-33 0 -57.5 18.5t-36.5 54.5q-11 32 -26.5 64t-35 57t-42.5 40.5t-49 15.5
q-30 0 -49 -16t-33 -40.5t-26 -52.5t-26 -52.5t-33.5 -40.5t-48.5 -16q-27 0 -44 11t-29.5 27.5t-21.5 36t-19.5 36t-24.5 27.5t-35 11q-23 0 -48 -14t-45.5 -41t-34 -66.5t-13.5 -91.5v-51z" />
    <glyph glyph-name="E.ss02" horiz-adv-x="921" 
d="M75 700h791v-142h-633v-185q5 -1 10.5 -1h12.5q27 0 54 13.5l58 29t67.5 29t82.5 13.5q49 0 93 -16t73 -46q26 -27 28 -60t-21 -55q-24 -23 -56.5 -23.5t-62.5 10.5q-23 9 -37.5 25.5t-29 33.5t-32.5 29.5t-46 12.5q-24 0 -42 -8t-36.5 -18t-40 -18t-52.5 -8h-23v-174
h633v-142h-791v700z" />
    <glyph glyph-name="F.ss02" horiz-adv-x="894" 
d="M75 700h791v-142h-633v-160q5 1 10.5 1h12.5q31 0 51.5 -11.5t38 -25.5t36 -25.5t45.5 -11.5q28 0 46 15.5t32.5 36t29 40.5t37.5 29q30 11 62.5 10.5t56.5 -23.5q23 -22 21 -55t-28 -60q-29 -30 -75.5 -56t-110.5 -26q-54 0 -88 16.5t-59.5 36t-46.5 36t-48 16.5
q-7 0 -12.5 -0.5t-10.5 -1.5v-339h-158v700z" />
    <glyph glyph-name="G.ss02" horiz-adv-x="1116" 
d="M203 328q0 -63 30.5 -102t80 -61.5t113.5 -30.5t131 -8q61 0 119.5 6.5t106.5 24.5t81 49t44 80h-531v139h688v-97q0 -93 -35.5 -157.5t-101.5 -105.5t-160 -59.5t-211 -18.5t-211 18.5t-160 59.5t-101.5 105.5t-35.5 157.5v51q0 71 19 126t53.5 92.5t82.5 57t105 19.5
q43 0 67.5 -6t42.5 -13.5t34.5 -13.5t43.5 -6t48 13.5t46.5 29t59.5 29t88 13.5q127 0 186 -62q26 -27 28 -60t-21 -55q-24 -23 -56.5 -23.5t-62.5 10.5q-23 9 -37.5 25.5t-29 33.5t-32.5 29.5t-46 12.5q-27 0 -45.5 -9t-36 -20t-38 -20t-51.5 -9q-26 0 -41.5 3t-28.5 6.5
t-27 6.5t-37 3q-28 0 -56.5 -14t-52 -41t-38 -66.5t-14.5 -91.5v-51z" />
    <glyph glyph-name="L.ss02" horiz-adv-x="841" 
d="M233 244q3 6 12 15.5t21.5 17.5t29 14t35.5 6q42 0 66.5 -24t39.5 -59.5t24 -77t19 -77t24.5 -59.5t40.5 -24q27 0 42 28.5t23 66.5t13 77t12 60q12 36 37 57t58 21q32 0 54 -21.5t22 -57.5q0 -18 -10.5 -47t-28.5 -62.5t-42.5 -67.5t-53.5 -61t-60.5 -44.5t-63.5 -17.5
q-41 0 -67.5 19t-43.5 48t-27.5 62t-19.5 62t-18.5 48t-25.5 19q-18 0 -29 -14t-25.5 -30.5t-36 -30t-58.5 -13.5q-58 0 -89.5 39.5t-31.5 106.5v477h158v-456v0z" />
    <glyph glyph-name="S.ss02" horiz-adv-x="969" 
d="M65 530q0 34 13 62t34.5 48t49.5 31.5t58 11.5q29 0 48.5 -8t32.5 -20t21.5 -26.5t17 -26.5t18 -20t24.5 -8q20 0 31 11t19 27t16 35t21 35t34 27t56 11q45 0 78 -17t54 -43t31.5 -56.5t10.5 -56.5q0 -34 -22 -55t-54 -21q-33 0 -57.5 18.5t-36.5 54.5l-13.5 40.5
t-10.5 27t-11.5 15t-16.5 4.5q-21 0 -31.5 -18.5t-22 -41t-28 -41t-47.5 -18.5q-24 0 -40.5 13.5t-30 29t-27 29t-32.5 13.5q-16 0 -27.5 -9.5t-11.5 -29.5q0 -41 51.5 -64.5t154.5 -39.5l302 -46q106 -16 162 -59.5t56 -117.5v-43q0 -98 -106.5 -149.5t-312.5 -51.5
q-101 0 -187.5 17t-151 52.5t-102.5 91t-41 132.5h154q8 -43 36 -72t71.5 -46.5t99.5 -25t120 -7.5q75 0 126 5t82 14t44.5 22t13.5 29v14q0 27 -25.5 39t-78.5 20l-344 52q-126 19 -199 68.5t-73 137.5z" />
    <glyph glyph-name="T.ss02" horiz-adv-x="992" 
d="M496 635q27 0 48 13.5t46.5 29t59.5 29t88 13.5q64 0 118.5 -15.5t83.5 -44.5q19 -19 25 -43t-1.5 -45.5t-28 -36t-53.5 -14.5t-56 17t-45.5 38t-50.5 38t-71 17q-30 0 -48.5 -11t-35.5 -22v-598h-158v598l-36 22t-48 11q-43 0 -71 -17t-50.5 -38t-45.5 -38t-56 -17
t-53.5 14.5t-28 36t-1.5 45.5t25 43q29 29 83.5 44.5t118.5 15.5q54 0 88 -13.5t59.5 -29t46.5 -29t48 -13.5z" />
    <glyph glyph-name="Z.ss02" 
d="M971 207q0 -27 -24 -66t-61.5 -75.5t-83.5 -62.5t-90 -26q-37 0 -66 14t-53 35t-44 45t-38.5 45t-36.5 35t-39 14q-19 0 -40.5 -11t-44 -27t-46.5 -35t-49.5 -35t-51.5 -27t-53 -11t-45.5 17t-18.5 43t16 45.5t42 39.5l516 394h-635v142h860v-142l-369 -282
q26 -13 45 -35t34 -47.5t27.5 -51.5t25.5 -47.5t28 -35t34 -13.5q22 0 36 17.5t24 42.5t16.5 53t13.5 49q12 36 37 57t58 21q32 0 54 -21.5t22 -57.5z" />
    <glyph glyph-name="aacute" unicode="&#xe1;" horiz-adv-x="799" 
d="M377 420h-357l126 130h261q92 0 155.5 -15.5t102.5 -52.5t56.5 -99t17.5 -155v-228h-149v107q-41 -54 -111 -87t-163 -33q-56 0 -101.5 10.5t-77 32t-48.5 54t-17 76.5v25q0 46 18.5 76t50.5 48t76 25.5t94 7.5h269q-9 26 -27.5 41.5t-44.5 23.5t-59 10.5t-72 2.5z
M214 172q0 -33 38 -43.5t99 -10.5q31 0 64.5 4.5t66 12t60.5 18.5t48 23v52h-274q-49 0 -75.5 -8.5t-26.5 -37.5v-10zM1107 820l-1049 -287l-12 45l1049 287z" />
    <glyph glyph-name="abreve" unicode="&#x103;" horiz-adv-x="799" 
d="M377 420h-357l126 130h261q92 0 155.5 -15.5t102.5 -52.5t56.5 -99t17.5 -155v-228h-149v107q-41 -54 -111 -87t-163 -33q-56 0 -101.5 10.5t-77 32t-48.5 54t-17 76.5v25q0 46 18.5 76t50.5 48t76 25.5t94 7.5h269q-9 26 -27.5 41.5t-44.5 23.5t-59 10.5t-72 2.5z
M214 172q0 -33 38 -43.5t99 -10.5q31 0 64.5 4.5t66 12t60.5 18.5t48 23v52h-274q-49 0 -75.5 -8.5t-26.5 -37.5v-10zM290 650q-68 0 -94.5 31.5t-26.5 84.5h52q0 -13 1.5 -25t8.5 -21t21 -14.5t38 -5.5h220q24 0 38 5.5t21 14.5t8.5 21t1.5 25v143h52v-143
q0 -53 -26.5 -84.5t-94.5 -31.5h-220z" />
    <glyph glyph-name="acircumflex" unicode="&#xe2;" horiz-adv-x="799" 
d="M377 420h-357l126 130h261q92 0 155.5 -15.5t102.5 -52.5t56.5 -99t17.5 -155v-228h-149v107q-41 -54 -111 -87t-163 -33q-56 0 -101.5 10.5t-77 32t-48.5 54t-17 76.5v25q0 46 18.5 76t50.5 48t76 25.5t94 7.5h269q-9 26 -27.5 41.5t-44.5 23.5t-59 10.5t-72 2.5z
M214 172q0 -33 38 -43.5t99 -10.5q31 0 64.5 4.5t66 12t60.5 18.5t48 23v52h-274q-49 0 -75.5 -8.5t-26.5 -37.5v-10zM401 866l239 -144l-24 -42l-216 132l-458 -281l-24 41z" />
    <glyph glyph-name="adieresis" unicode="&#xe4;" horiz-adv-x="799" 
d="M377 420h-357l126 130h261q92 0 155.5 -15.5t102.5 -52.5t56.5 -99t17.5 -155v-228h-149v107q-41 -54 -111 -87t-163 -33q-56 0 -101.5 10.5t-77 32t-48.5 54t-17 76.5v25q0 46 18.5 76t50.5 48t76 25.5t94 7.5h269q-9 26 -27.5 41.5t-44.5 23.5t-59 10.5t-72 2.5z
M214 172q0 -33 38 -43.5t99 -10.5q31 0 64.5 4.5t66 12t60.5 18.5t48 23v52h-274q-49 0 -75.5 -8.5t-26.5 -37.5v-10zM272 805h52v-206h-52v206zM690 700v-50h-206v50h206z" />
    <glyph glyph-name="agrave" unicode="&#xe0;" horiz-adv-x="799" 
d="M377 420h-357l126 130h261q92 0 155.5 -15.5t102.5 -52.5t56.5 -99t17.5 -155v-228h-149v107q-41 -54 -111 -87t-163 -33q-56 0 -101.5 10.5t-77 32t-48.5 54t-17 76.5v25q0 46 18.5 76t50.5 48t76 25.5t94 7.5h269q-9 26 -27.5 41.5t-44.5 23.5t-59 10.5t-72 2.5z
M214 172q0 -33 38 -43.5t99 -10.5q31 0 64.5 4.5t66 12t60.5 18.5t48 23v52h-274q-49 0 -75.5 -8.5t-26.5 -37.5v-10zM-306 820l12 45l1049 -287l-12 -45z" />
    <glyph glyph-name="amacron" unicode="&#x101;" horiz-adv-x="799" 
d="M377 420h-357l126 130h261q92 0 155.5 -15.5t102.5 -52.5t56.5 -99t17.5 -155v-228h-149v107q-41 -54 -111 -87t-163 -33q-56 0 -101.5 10.5t-77 32t-48.5 54t-17 76.5v25q0 46 18.5 76t50.5 48t76 25.5t94 7.5h269q-9 26 -27.5 41.5t-44.5 23.5t-59 10.5t-72 2.5z
M214 172q0 -33 38 -43.5t99 -10.5q31 0 64.5 4.5t66 12t60.5 18.5t48 23v52h-274q-49 0 -75.5 -8.5t-26.5 -37.5v-10zM945 700v-50h-766v50h766z" />
    <glyph glyph-name="aogonek" unicode="&#x105;" horiz-adv-x="799" 
d="M377 420h-357l126 130h261q92 0 155.5 -15.5t102.5 -52.5t56.5 -99t17.5 -155v-228h-149v107q-41 -54 -111 -87t-163 -33q-56 0 -101.5 10.5t-77 32t-48.5 54t-17 76.5v25q0 46 18.5 76t50.5 48t76 25.5t94 7.5h269q-9 26 -27.5 41.5t-44.5 23.5t-59 10.5t-72 2.5z
M214 172q0 -33 38 -43.5t99 -10.5q31 0 64.5 4.5t66 12t60.5 18.5t48 23v52h-274q-49 0 -75.5 -8.5t-26.5 -37.5v-10zM689 -206v206h50v-206h-50z" />
    <glyph glyph-name="aring" unicode="&#xe5;" horiz-adv-x="799" 
d="M377 420h-357l126 130h261q92 0 155.5 -15.5t102.5 -52.5t56.5 -99t17.5 -155v-228h-149v107q-41 -54 -111 -87t-163 -33q-56 0 -101.5 10.5t-77 32t-48.5 54t-17 76.5v25q0 46 18.5 76t50.5 48t76 25.5t94 7.5h269q-9 26 -27.5 41.5t-44.5 23.5t-59 10.5t-72 2.5z
M214 172q0 -33 38 -43.5t99 -10.5q31 0 64.5 4.5t66 12t60.5 18.5t48 23v52h-274q-49 0 -75.5 -8.5t-26.5 -37.5v-10zM400 506q-50 0 -94.5 19.5t-77.5 52.5t-52.5 77.5t-19.5 94.5q0 51 19.5 95.5t52.5 77.5t77.5 52.5t94.5 19.5q51 0 95.5 -19.5t77.5 -52.5t52.5 -77.5
t19.5 -95.5q0 -50 -19.5 -94.5t-52.5 -77.5t-77.5 -52.5t-95.5 -19.5zM400 551q42 0 78.5 15.5t63.5 42.5t42.5 63.5t15.5 77.5q0 42 -15.5 78.5t-42.5 63.5t-63.5 42.5t-78.5 15.5q-41 0 -77.5 -15.5t-63.5 -42.5t-42.5 -63.5t-15.5 -78.5q0 -41 15.5 -77.5t42.5 -63.5
t63.5 -42.5t77.5 -15.5z" />
    <glyph glyph-name="atilde" unicode="&#xe3;" horiz-adv-x="799" 
d="M377 420h-357l126 130h261q92 0 155.5 -15.5t102.5 -52.5t56.5 -99t17.5 -155v-228h-149v107q-41 -54 -111 -87t-163 -33q-56 0 -101.5 10.5t-77 32t-48.5 54t-17 76.5v25q0 46 18.5 76t50.5 48t76 25.5t94 7.5h269q-9 26 -27.5 41.5t-44.5 23.5t-59 10.5t-72 2.5z
M214 172q0 -33 38 -43.5t99 -10.5q31 0 64.5 4.5t66 12t60.5 18.5t48 23v52h-274q-49 0 -75.5 -8.5t-26.5 -37.5v-10zM775 822l-375 -201l-79 57l-272 -144l-23 43l298 158l79 -57l349 187z" />
    <glyph glyph-name="ae" unicode="&#xe6;" horiz-adv-x="1315" 
d="M377 420h-357l126 130h261q92 0 155.5 -15.5t102.5 -52.5t56.5 -99t17.5 -155v-228h-149v107q-41 -54 -111 -87t-163 -33q-56 0 -101.5 10.5t-77 32t-48.5 54t-17 76.5v25q0 46 18.5 76t50.5 48t76 25.5t94 7.5h269q-9 26 -27.5 41.5t-44.5 23.5t-59 10.5t-72 2.5z
M214 172q0 -33 38 -43.5t99 -10.5q31 0 64.5 4.5t66 12t60.5 18.5t48 23v52h-274q-49 0 -75.5 -8.5t-26.5 -37.5v-10zM1187 130l-128 -130h-100q-179 0 -270 61t-91 199v22q0 69 25.5 122t72 88.5t111.5 54t145 18.5q77 0 138.5 -17.5t105 -52.5t66.5 -87t23 -121v-49h-544
q8 -59 63 -83.5t150 -24.5h233zM949 439q-82 0 -131.5 -26t-67.5 -71h370q-22 97 -171 97z" />
    <glyph glyph-name="cacute" unicode="&#x107;" horiz-adv-x="840" 
d="M649 219h145q-8 -58 -37 -101.5t-77 -72.5t-113.5 -43.5t-145.5 -14.5q-87 0 -156.5 17t-118.5 51t-75 85.5t-26 119.5v32q0 68 26 119.5t75 85.5t118.5 51t156.5 17q81 0 146.5 -14.5t113.5 -44t77 -73.5t37 -102h-145q-17 51 -77.5 76t-151.5 25q-53 0 -96.5 -8.5
t-74.5 -26t-47.5 -44t-16.5 -61.5v-32q0 -35 16.5 -61.5t47.5 -44t74.5 -26t96.5 -8.5q90 0 150 24.5t78 74.5zM1128 820l-1049 -287l-12 45l1049 287z" />
    <glyph glyph-name="ccaron" unicode="&#x10d;" horiz-adv-x="840" 
d="M649 219h145q-8 -58 -37 -101.5t-77 -72.5t-113.5 -43.5t-145.5 -14.5q-87 0 -156.5 17t-118.5 51t-75 85.5t-26 119.5v32q0 68 26 119.5t75 85.5t118.5 51t156.5 17q81 0 146.5 -14.5t113.5 -44t77 -73.5t37 -102h-145q-17 51 -77.5 76t-151.5 25q-53 0 -96.5 -8.5
t-74.5 -26t-47.5 -44t-16.5 -61.5v-32q0 -35 16.5 -61.5t47.5 -44t74.5 -26t96.5 -8.5q90 0 150 24.5t78 74.5zM422 531l-483 294l24 41l458 -282l216 133l24 -42z" />
    <glyph glyph-name="ccedilla" unicode="&#xe7;" horiz-adv-x="840" 
d="M649 219h145q-8 -58 -37 -101.5t-77 -72.5t-113.5 -43.5t-145.5 -14.5q-87 0 -156.5 17t-118.5 51t-75 85.5t-26 119.5v32q0 68 26 119.5t75 85.5t118.5 51t156.5 17q81 0 146.5 -14.5t113.5 -44t77 -73.5t37 -102h-145q-17 51 -77.5 76t-151.5 25q-53 0 -96.5 -8.5
t-74.5 -26t-47.5 -44t-16.5 -61.5v-32q0 -35 16.5 -61.5t47.5 -44t74.5 -26t96.5 -8.5q90 0 150 24.5t78 74.5zM477 -48l34 -34l-146 -145l-34 33z" />
    <glyph glyph-name="ccircumflex" unicode="&#x109;" horiz-adv-x="840" 
d="M649 219h145q-8 -58 -37 -101.5t-77 -72.5t-113.5 -43.5t-145.5 -14.5q-87 0 -156.5 17t-118.5 51t-75 85.5t-26 119.5v32q0 68 26 119.5t75 85.5t118.5 51t156.5 17q81 0 146.5 -14.5t113.5 -44t77 -73.5t37 -102h-145q-17 51 -77.5 76t-151.5 25q-53 0 -96.5 -8.5
t-74.5 -26t-47.5 -44t-16.5 -61.5v-32q0 -35 16.5 -61.5t47.5 -44t74.5 -26t96.5 -8.5q90 0 150 24.5t78 74.5zM422 866l239 -144l-24 -42l-216 132l-458 -281l-24 41z" />
    <glyph glyph-name="cdotaccent" unicode="&#x10b;" horiz-adv-x="840" 
d="M649 219h145q-8 -58 -37 -101.5t-77 -72.5t-113.5 -43.5t-145.5 -14.5q-87 0 -156.5 17t-118.5 51t-75 85.5t-26 119.5v32q0 68 26 119.5t75 85.5t118.5 51t156.5 17q81 0 146.5 -14.5t113.5 -44t77 -73.5t37 -102h-145q-17 51 -77.5 76t-151.5 25q-53 0 -96.5 -8.5
t-74.5 -26t-47.5 -44t-16.5 -61.5v-32q0 -35 16.5 -61.5t47.5 -44t74.5 -26t96.5 -8.5q90 0 150 24.5t78 74.5zM396 805h50v-206h-50v206z" />
    <glyph glyph-name="eth" unicode="&#xf0;" horiz-adv-x="842" 
d="M797 260q0 -68 -26 -119.5t-75 -85.5t-118.5 -51t-156.5 -17t-156.5 17t-118.5 51t-75 85.5t-26 119.5v32q0 63 22 111t63 82t100.5 53.5t133.5 24.5l-134 87h-185v50h956v-50h-540l219 -143q55 -36 86 -88.5t31 -126.5v-32zM656 292q0 35 -17 61.5t-47.5 44t-74 26
t-96.5 8.5t-96.5 -8.5t-74.5 -26t-47.5 -44t-16.5 -61.5v-32q0 -35 16.5 -61.5t47.5 -44t74.5 -26t96.5 -8.5t96.5 8.5t74 26t47.5 44t17 61.5v32z" />
    <glyph glyph-name="dcaron" unicode="&#x10f;" horiz-adv-x="850" 
d="M770 762v-762h-149v762h149zM44.9971 291.982q0 61.9961 20.999 112.493t58.9961 85.9941q37.998 35.498 89.9951 54.9971q51.9961 19.499 114.992 19.499q58.9971 0 109.494 -14.999q50.4961 -14.999 90.9941 -38.998q40.4971 -23.998 69.9951 -53.9971
q29.499 -29.998 46.498 -59.9961l-2 -49.9971q-16.999 13.999 -45.4971 28.499q-28.499 14.499 -62.9971 25.998q-34.4971 11.499 -72.4951 18.499q-37.998 6.99902 -74.9951 6.99902q-42.998 0 -79.9951 -7.99902q-36.998 -8 -64.4961 -24.499
q-27.499 -16.499 -42.998 -41.9971t-15.499 -60.4961v-31.998q0 -34.998 15.499 -60.4961q15.499 -25.499 42.998 -41.998q27.498 -16.499 64.4961 -24.498q36.9971 -8 79.9951 -8q36.9971 0 74.9951 7q37.998 6.99902 72.4951 18.499q34.498 11.499 62.9971 25.998
q28.498 14.499 45.4971 28.498l2 -49.9971q-16.999 -29.998 -46.498 -59.9961q-29.498 -29.998 -69.9951 -53.9971q-40.498 -23.998 -90.9941 -38.9971q-50.4971 -14.999 -109.494 -14.999q-62.9961 0 -114.992 19.499q-51.9971 19.498 -89.9951 54.9961
q-37.9971 35.498 -58.9961 85.9951t-20.999 112.493v31.998zM820 762h50v-206h-50v206z" />
    <glyph glyph-name="dcroat" unicode="&#x111;" horiz-adv-x="850" 
d="M45 292q0 62 21 112.5t59 86t90 55t115 19.5q49 0 93 -11t81 -29.5t66.5 -42t50.5 -48.5v216h-727v50h727v62h149v-62h80v-50h-80v-650h-149v118q-21 -26 -50.5 -49.5t-66.5 -41.5t-81 -29t-93 -11q-63 0 -115 19.5t-90 55t-59 86t-21 112.5v32zM389 427q-43 0 -80 -8
t-64.5 -24.5t-43 -42t-15.5 -60.5v-32q0 -35 15.5 -60.5t43 -42t64.5 -24.5t80 -8q31 0 63.5 5t63.5 14t58 20.5t47 23.5v176q-20 12 -47 23.5t-58 20t-63.5 14t-63.5 5.5z" />
    <glyph glyph-name="eacute" unicode="&#xe9;" horiz-adv-x="762" 
d="M634 130l-128 -130h-100q-179 0 -270 61t-91 199v22q0 69 25.5 122t72 88.5t111.5 54t145 18.5q77 0 138.5 -17.5t105 -52.5t66.5 -87t23 -121v-49h-544q8 -59 63 -83.5t150 -24.5h233zM396 439q-82 0 -131.5 -26t-67.5 -71h370q-22 97 -171 97zM1106 820l-1049 -287
l-12 45l1049 287z" />
    <glyph glyph-name="ebreve" unicode="&#x115;" horiz-adv-x="762" 
d="M634 130l-128 -130h-100q-179 0 -270 61t-91 199v22q0 69 25.5 122t72 88.5t111.5 54t145 18.5q77 0 138.5 -17.5t105 -52.5t66.5 -87t23 -121v-49h-544q8 -59 63 -83.5t150 -24.5h233zM396 439q-82 0 -131.5 -26t-67.5 -71h370q-22 97 -171 97zM289 650
q-68 0 -94.5 31.5t-26.5 84.5h52q0 -13 1.5 -25t8.5 -21t21 -14.5t38 -5.5h220q24 0 38 5.5t21 14.5t8.5 21t1.5 25v143h52v-143q0 -53 -26.5 -84.5t-94.5 -31.5h-220z" />
    <glyph glyph-name="ecaron" unicode="&#x11b;" horiz-adv-x="762" 
d="M634 130l-128 -130h-100q-179 0 -270 61t-91 199v22q0 69 25.5 122t72 88.5t111.5 54t145 18.5q77 0 138.5 -17.5t105 -52.5t66.5 -87t23 -121v-49h-544q8 -59 63 -83.5t150 -24.5h233zM396 439q-82 0 -131.5 -26t-67.5 -71h370q-22 97 -171 97zM400 531l-483 294l24 41
l458 -282l216 133l24 -42z" />
    <glyph glyph-name="ecircumflex" unicode="&#xea;" horiz-adv-x="762" 
d="M634 130l-128 -130h-100q-179 0 -270 61t-91 199v22q0 69 25.5 122t72 88.5t111.5 54t145 18.5q77 0 138.5 -17.5t105 -52.5t66.5 -87t23 -121v-49h-544q8 -59 63 -83.5t150 -24.5h233zM396 439q-82 0 -131.5 -26t-67.5 -71h370q-22 97 -171 97zM400 866l239 -144
l-24 -42l-216 132l-458 -281l-24 41z" />
    <glyph glyph-name="edieresis" unicode="&#xeb;" horiz-adv-x="762" 
d="M634 130l-128 -130h-100q-179 0 -270 61t-91 199v22q0 69 25.5 122t72 88.5t111.5 54t145 18.5q77 0 138.5 -17.5t105 -52.5t66.5 -87t23 -121v-49h-544q8 -59 63 -83.5t150 -24.5h233zM396 439q-82 0 -131.5 -26t-67.5 -71h370q-22 97 -171 97zM271 805h52v-206h-52v206
zM689 700v-50h-206v50h206z" />
    <glyph glyph-name="edotaccent" unicode="&#x117;" horiz-adv-x="762" 
d="M634 130l-128 -130h-100q-179 0 -270 61t-91 199v22q0 69 25.5 122t72 88.5t111.5 54t145 18.5q77 0 138.5 -17.5t105 -52.5t66.5 -87t23 -121v-49h-544q8 -59 63 -83.5t150 -24.5h233zM396 439q-82 0 -131.5 -26t-67.5 -71h370q-22 97 -171 97zM374 805h50v-206h-50v206
z" />
    <glyph glyph-name="egrave" unicode="&#xe8;" horiz-adv-x="762" 
d="M634 130l-128 -130h-100q-179 0 -270 61t-91 199v22q0 69 25.5 122t72 88.5t111.5 54t145 18.5q77 0 138.5 -17.5t105 -52.5t66.5 -87t23 -121v-49h-544q8 -59 63 -83.5t150 -24.5h233zM396 439q-82 0 -131.5 -26t-67.5 -71h370q-22 97 -171 97zM-307 820l12 45
l1049 -287l-12 -45z" />
    <glyph glyph-name="emacron" unicode="&#x113;" horiz-adv-x="762" 
d="M634 130l-128 -130h-100q-179 0 -270 61t-91 199v22q0 69 25.5 122t72 88.5t111.5 54t145 18.5q77 0 138.5 -17.5t105 -52.5t66.5 -87t23 -121v-49h-544q8 -59 63 -83.5t150 -24.5h233zM396 439q-82 0 -131.5 -26t-67.5 -71h370q-22 97 -171 97zM944 700v-50h-766v50h766
z" />
    <glyph glyph-name="eogonek" unicode="&#x119;" horiz-adv-x="762" 
d="M399 565q77 0 138.5 -17.5t105 -52.5t66.5 -87t23 -121v-49h-544q8 -59 63 -83.5t150 -24.5h233l-351 -356l-32 32l192 194h-37q-179 0 -270 61t-91 199v22q0 69 25.5 122t72 88.5t111.5 54t145 18.5zM396 439q-82 0 -131 -26t-68 -71h371q-11 50 -54.5 73.5t-117.5 23.5
z" />
    <glyph glyph-name="uni0259" unicode="&#x259;" horiz-adv-x="762" 
d="M127.992 436.974l127.992 129.992h99.9941q178.989 0 269.983 -60.9971q90.9941 -60.9961 90.9941 -198.987v-21.999q0 -68.9961 -25.498 -121.992q-25.499 -52.9971 -71.9961 -88.4951q-46.4971 -35.4971 -111.493 -53.9961t-144.991 -18.499
q-76.9951 0 -138.491 17.499t-104.993 52.4971q-43.498 34.9971 -66.4961 86.9941q-22.999 51.9971 -22.999 120.992v48.9971h543.967q-7.99902 58.9971 -62.9961 83.4951q-54.9961 24.499 -149.991 24.499h-232.985zM365.978 127.992q81.9951 0 131.492 25.998
q49.4971 25.999 67.4961 70.9961h-369.978q21.998 -96.9941 170.989 -96.9941z" />
    <glyph glyph-name="gbreve" unicode="&#x11f;" horiz-adv-x="830" 
d="M45 292q0 61 21 111t58 86t87 56t109 20q49 0 91.5 -11t78 -29t63.5 -41.5t48 -48.5v115h149v-481q0 -75 -26.5 -127t-76.5 -85t-123.5 -48t-166.5 -15h-221l-124 128h349q53 0 97.5 9t76 27t49 45.5t17.5 65.5v48q-20 -25 -48 -48.5t-63.5 -41.5t-78 -29t-91.5 -11
q-59 0 -109 20t-87 56t-58 86.5t-21 110.5v32zM379 125q31 0 62.5 5t60.5 14t54 20t45 23v177q-20 12 -45 23.5t-54 20t-60.5 14t-62.5 5.5q-39 0 -74 -8.5t-61.5 -25.5t-42 -42.5t-15.5 -58.5v-32q0 -33 15.5 -58.5t42 -42.5t61.5 -25.5t74 -8.5zM305 650q-68 0 -94.5 31.5
t-26.5 84.5h52q0 -13 1.5 -25t8.5 -21t21 -14.5t38 -5.5h220q24 0 38 5.5t21 14.5t8.5 21t1.5 25v143h52v-143q0 -53 -26.5 -84.5t-94.5 -31.5h-220z" />
    <glyph glyph-name="gcircumflex" unicode="&#x11d;" horiz-adv-x="830" 
d="M45 292q0 61 21 111t58 86t87 56t109 20q49 0 91.5 -11t78 -29t63.5 -41.5t48 -48.5v115h149v-481q0 -75 -26.5 -127t-76.5 -85t-123.5 -48t-166.5 -15h-221l-124 128h349q53 0 97.5 9t76 27t49 45.5t17.5 65.5v48q-20 -25 -48 -48.5t-63.5 -41.5t-78 -29t-91.5 -11
q-59 0 -109 20t-87 56t-58 86.5t-21 110.5v32zM379 125q31 0 62.5 5t60.5 14t54 20t45 23v177q-20 12 -45 23.5t-54 20t-60.5 14t-62.5 5.5q-39 0 -74 -8.5t-61.5 -25.5t-42 -42.5t-15.5 -58.5v-32q0 -33 15.5 -58.5t42 -42.5t61.5 -25.5t74 -8.5zM416 866l239 -144l-24 -42
l-216 132l-458 -281l-24 41z" />
    <glyph glyph-name="uni0123" unicode="&#x123;" horiz-adv-x="830" 
d="M45 292q0 61 21 111t58 86t87 56t109 20q49 0 91.5 -11t78 -29t63.5 -41.5t48 -48.5v115h149v-481q0 -75 -26.5 -127t-76.5 -85t-123.5 -48t-166.5 -15h-221l-124 128h349q53 0 97.5 9t76 27t49 45.5t17.5 65.5v48q-20 -25 -48 -48.5t-63.5 -41.5t-78 -29t-91.5 -11
q-59 0 -109 20t-87 56t-58 86.5t-21 110.5v32zM379 125q31 0 62.5 5t60.5 14t54 20t45 23v177q-20 12 -45 23.5t-54 20t-60.5 14t-62.5 5.5q-39 0 -74 -8.5t-61.5 -25.5t-42 -42.5t-15.5 -58.5v-32q0 -33 15.5 -58.5t42 -42.5t61.5 -25.5t74 -8.5zM680 875h87l-441 -274h-87
z" />
    <glyph glyph-name="gdotaccent" unicode="&#x121;" horiz-adv-x="830" 
d="M45 292q0 61 21 111t58 86t87 56t109 20q49 0 91.5 -11t78 -29t63.5 -41.5t48 -48.5v115h149v-481q0 -75 -26.5 -127t-76.5 -85t-123.5 -48t-166.5 -15h-221l-124 128h349q53 0 97.5 9t76 27t49 45.5t17.5 65.5v48q-20 -25 -48 -48.5t-63.5 -41.5t-78 -29t-91.5 -11
q-59 0 -109 20t-87 56t-58 86.5t-21 110.5v32zM379 125q31 0 62.5 5t60.5 14t54 20t45 23v177q-20 12 -45 23.5t-54 20t-60.5 14t-62.5 5.5q-39 0 -74 -8.5t-61.5 -25.5t-42 -42.5t-15.5 -58.5v-32q0 -33 15.5 -58.5t42 -42.5t61.5 -25.5t74 -8.5zM390 805h50v-206h-50v206z
" />
    <glyph glyph-name="hbar" unicode="&#x127;" horiz-adv-x="824" 
d="M610 270q0 45 -8 75t-26 48.5t-47 26t-71 7.5q-28 0 -60 -5t-63 -14t-59 -21t-47 -27v-360h-149v650h-80v50h80v62h149v-62h727v-50h-727v-219q20 28 48.5 52.5t63.5 42.5t75.5 28.5t84.5 10.5q61 0 109 -18.5t81 -53t50.5 -83.5t17.5 -110v-300h-149v270z" />
    <glyph glyph-name="hcircumflex" unicode="&#x125;" horiz-adv-x="824" 
d="M229 762v-762h-149v762h149zM610 270q0 45 -8 75t-26 48.5t-47 26t-71 7.5q-30 0 -65 -6t-68.5 -16t-62 -24.5t-45.5 -30.5l-2 59q18 32 47 60.5t66 49.5t81 33.5t92 12.5q61 0 109 -18.5t81 -53t50.5 -83.5t17.5 -110v-300h-149v270zM413 1016l239 -144l-24 -42
l-216 132l-458 -281l-24 41z" />
    <glyph glyph-name="iacute" unicode="&#xed;" horiz-adv-x="309" 
d="M229 550v-550h-149v550h149zM862 820l-1049 -287l-12 45l1049 287z" />
    <glyph glyph-name="ibreve" unicode="&#x12d;" horiz-adv-x="309" 
d="M229 550v-550h-149v550h149zM45 650q-68 0 -94.5 31.5t-26.5 84.5h52q0 -13 1.5 -25t8.5 -21t21 -14.5t38 -5.5h220q24 0 38 5.5t21 14.5t8.5 21t1.5 25v143h52v-143q0 -53 -26.5 -84.5t-94.5 -31.5h-220z" />
    <glyph glyph-name="icircumflex" unicode="&#xee;" horiz-adv-x="309" 
d="M229 550v-550h-149v550h149zM155 866l239 -144l-24 -42l-216 132l-458 -281l-24 41z" />
    <glyph glyph-name="idieresis" unicode="&#xef;" horiz-adv-x="309" 
d="M229 550v-550h-149v550h149zM26 805h52v-206h-52v206zM444 700v-50h-206v50h206z" />
    <glyph glyph-name="igrave" unicode="&#xec;" horiz-adv-x="309" 
d="M229 550v-550h-149v550h149zM-552 820l12 45l1049 -287l-12 -45z" />
    <glyph glyph-name="imacron" unicode="&#x12b;" horiz-adv-x="309" 
d="M229 550v-550h-149v550h149zM700 700v-50h-766v50h766z" />
    <glyph glyph-name="iogonek" unicode="&#x12f;" horiz-adv-x="309" 
d="M229 550v-550h-149v550h149zM442 762v-123h-362v123h362zM179 -206v206h50v-206h-50z" />
    <glyph glyph-name="itilde" unicode="&#x129;" horiz-adv-x="309" 
d="M229 550v-550h-149v550h149zM530 822l-375 -201l-79 57l-272 -144l-23 43l298 158l79 -57l349 187z" />
    <glyph glyph-name="jcircumflex" unicode="&#x135;" horiz-adv-x="544" 
d="M115 -73q96 0 148 37.5t52 102.5v353h-300v130h449v-483q0 -75 -23 -127t-67.5 -84.5t-109.5 -47t-149 -14.5v133zM390 866l239 -144l-24 -42l-216 132l-458 -281l-24 41z" />
    <glyph glyph-name="uni0137" unicode="&#x137;" horiz-adv-x="804" 
d="M540 0l-177 289l-134 -67v-222h-149v762h149v-395l365 183h288l-390 -196l216 -354h-168zM172 -206h87l249 155h-87z" />
    <glyph glyph-name="lacute" unicode="&#x13a;" horiz-adv-x="309" 
d="M229 762v-762h-149v762h149zM862 1032l-1049 -287l-12 45l1049 287z" />
    <glyph glyph-name="lcaron" unicode="&#x13e;" horiz-adv-x="309" 
d="M229 762v-762h-149v762h149zM279 762h50v-206h-50v206z" />
    <glyph glyph-name="uni013C" unicode="&#x13c;" horiz-adv-x="309" 
d="M229 762v-762h-149v762h149zM192 -51h87l-249 -155h-87z" />
    <glyph glyph-name="ldot" unicode="&#x140;" horiz-adv-x="359" 
d="M229 762v-762h-149v762h149zM309 539h50v-206h-50v206z" />
    <glyph glyph-name="lslash" unicode="&#x142;" horiz-adv-x="309" 
d="M229 762v-229l115 167h58l-173 -251v-449h-149v232l-302 -438h-58l360 522v446h149z" />
    <glyph glyph-name="nacute" unicode="&#x144;" horiz-adv-x="824" 
d="M229 550v-550h-149v550h149zM610 270q0 45 -8 75t-26 48.5t-47 26t-71 7.5q-30 0 -65 -6t-68.5 -16t-62 -24.5t-45.5 -30.5l-2 59q18 32 47 60.5t66 49.5t81 33.5t92 12.5q61 0 109 -18.5t81 -53t50.5 -83.5t17.5 -110v-300h-149v270zM1076 820l-1049 -287l-12 45
l1049 287z" />
    <glyph glyph-name="ncaron" unicode="&#x148;" horiz-adv-x="824" 
d="M229 550v-550h-149v550h149zM610 270q0 45 -8 75t-26 48.5t-47 26t-71 7.5q-30 0 -65 -6t-68.5 -16t-62 -24.5t-45.5 -30.5l-2 59q18 32 47 60.5t66 49.5t81 33.5t92 12.5q61 0 109 -18.5t81 -53t50.5 -83.5t17.5 -110v-300h-149v270zM420 531l-483 294l24 41l458 -282
l216 133l24 -42z" />
    <glyph glyph-name="uni0146" unicode="&#x146;" horiz-adv-x="824" 
d="M229 550v-550h-149v550h149zM610 270q0 45 -8 75t-26 48.5t-47 26t-71 7.5q-30 0 -65 -6t-68.5 -16t-62 -24.5t-45.5 -30.5l-2 59q18 32 47 60.5t66 49.5t81 33.5t92 12.5q61 0 109 -18.5t81 -53t50.5 -83.5t17.5 -110v-300h-149v270zM456 -51h87l-249 -155h-87z" />
    <glyph glyph-name="eng" unicode="&#x14b;" horiz-adv-x="824" 
d="M610 270q0 45 -8 75t-26 48.5t-47 26t-71 7.5q-28 0 -60 -5t-63 -14t-59 -21t-47 -27v-360h-149v550h149v-119q20 28 48.5 52.5t63.5 42.5t75.5 28.5t84.5 10.5q61 0 109 -18.5t81 -53t50.5 -83.5t17.5 -110v-313l-149 -213v496z" />
    <glyph glyph-name="ntilde" unicode="&#xf1;" horiz-adv-x="824" 
d="M229 550v-550h-149v550h149zM610 270q0 45 -8 75t-26 48.5t-47 26t-71 7.5q-30 0 -65 -6t-68.5 -16t-62 -24.5t-45.5 -30.5l-2 59q18 32 47 60.5t66 49.5t81 33.5t92 12.5q61 0 109 -18.5t81 -53t50.5 -83.5t17.5 -110v-300h-149v270zM794 822l-375 -201l-79 57
l-272 -144l-23 43l298 158l79 -57l349 187z" />
    <glyph glyph-name="oacute" unicode="&#xf3;" horiz-adv-x="842" 
d="M656 292q0 35 -17 61.5t-47.5 44t-74 26t-96.5 8.5t-96.5 -8.5t-74.5 -26t-47.5 -44t-16.5 -61.5v-32q0 -35 16.5 -61.5t47.5 -44t74.5 -26t96.5 -8.5t96.5 8.5t74 26t47.5 44t17 61.5v32zM421 -13q-87 0 -156.5 17t-118.5 51t-75 85.5t-26 119.5v32q0 68 26 119.5
t75 85.5t118.5 51t156.5 17t156.5 -17t118.5 -51t75 -85.5t26 -119.5v-32q0 -68 -26 -119.5t-75 -85.5t-118.5 -51t-156.5 -17zM1128 820l-1049 -287l-12 45l1049 287z" />
    <glyph glyph-name="obreve" unicode="&#x14f;" horiz-adv-x="842" 
d="M656 292q0 35 -17 61.5t-47.5 44t-74 26t-96.5 8.5t-96.5 -8.5t-74.5 -26t-47.5 -44t-16.5 -61.5v-32q0 -35 16.5 -61.5t47.5 -44t74.5 -26t96.5 -8.5t96.5 8.5t74 26t47.5 44t17 61.5v32zM421 -13q-87 0 -156.5 17t-118.5 51t-75 85.5t-26 119.5v32q0 68 26 119.5
t75 85.5t118.5 51t156.5 17t156.5 -17t118.5 -51t75 -85.5t26 -119.5v-32q0 -68 -26 -119.5t-75 -85.5t-118.5 -51t-156.5 -17zM311 650q-68 0 -94.5 31.5t-26.5 84.5h52q0 -13 1.5 -25t8.5 -21t21 -14.5t38 -5.5h220q24 0 38 5.5t21 14.5t8.5 21t1.5 25v143h52v-143
q0 -53 -26.5 -84.5t-94.5 -31.5h-220z" />
    <glyph glyph-name="ocircumflex" unicode="&#xf4;" horiz-adv-x="842" 
d="M656 292q0 35 -17 61.5t-47.5 44t-74 26t-96.5 8.5t-96.5 -8.5t-74.5 -26t-47.5 -44t-16.5 -61.5v-32q0 -35 16.5 -61.5t47.5 -44t74.5 -26t96.5 -8.5t96.5 8.5t74 26t47.5 44t17 61.5v32zM421 -13q-87 0 -156.5 17t-118.5 51t-75 85.5t-26 119.5v32q0 68 26 119.5
t75 85.5t118.5 51t156.5 17t156.5 -17t118.5 -51t75 -85.5t26 -119.5v-32q0 -68 -26 -119.5t-75 -85.5t-118.5 -51t-156.5 -17zM422 866l239 -144l-24 -42l-216 132l-458 -281l-24 41z" />
    <glyph glyph-name="odieresis" unicode="&#xf6;" horiz-adv-x="842" 
d="M656 292q0 35 -17 61.5t-47.5 44t-74 26t-96.5 8.5t-96.5 -8.5t-74.5 -26t-47.5 -44t-16.5 -61.5v-32q0 -35 16.5 -61.5t47.5 -44t74.5 -26t96.5 -8.5t96.5 8.5t74 26t47.5 44t17 61.5v32zM421 -13q-87 0 -156.5 17t-118.5 51t-75 85.5t-26 119.5v32q0 68 26 119.5
t75 85.5t118.5 51t156.5 17t156.5 -17t118.5 -51t75 -85.5t26 -119.5v-32q0 -68 -26 -119.5t-75 -85.5t-118.5 -51t-156.5 -17zM293 805h52v-206h-52v206zM711 700v-50h-206v50h206z" />
    <glyph glyph-name="ograve" unicode="&#xf2;" horiz-adv-x="842" 
d="M656 292q0 35 -17 61.5t-47.5 44t-74 26t-96.5 8.5t-96.5 -8.5t-74.5 -26t-47.5 -44t-16.5 -61.5v-32q0 -35 16.5 -61.5t47.5 -44t74.5 -26t96.5 -8.5t96.5 8.5t74 26t47.5 44t17 61.5v32zM421 -13q-87 0 -156.5 17t-118.5 51t-75 85.5t-26 119.5v32q0 68 26 119.5
t75 85.5t118.5 51t156.5 17t156.5 -17t118.5 -51t75 -85.5t26 -119.5v-32q0 -68 -26 -119.5t-75 -85.5t-118.5 -51t-156.5 -17zM-285 820l12 45l1049 -287l-12 -45z" />
    <glyph glyph-name="ohungarumlaut" unicode="&#x151;" horiz-adv-x="842" 
d="M656 292q0 35 -17 61.5t-47.5 44t-74 26t-96.5 8.5t-96.5 -8.5t-74.5 -26t-47.5 -44t-16.5 -61.5v-32q0 -35 16.5 -61.5t47.5 -44t74.5 -26t96.5 -8.5t96.5 8.5t74 26t47.5 44t17 61.5v32zM421 -13q-87 0 -156.5 17t-118.5 51t-75 85.5t-26 119.5v32q0 68 26 119.5
t75 85.5t118.5 51t156.5 17t156.5 -17t118.5 -51t75 -85.5t26 -119.5v-32q0 -68 -26 -119.5t-75 -85.5t-118.5 -51t-156.5 -17zM1128 722l-527 -145l-12 45l527 145zM1128 820l-1049 -287l-12 45l1049 287z" />
    <glyph glyph-name="omacron" unicode="&#x14d;" horiz-adv-x="842" 
d="M656 292q0 35 -17 61.5t-47.5 44t-74 26t-96.5 8.5t-96.5 -8.5t-74.5 -26t-47.5 -44t-16.5 -61.5v-32q0 -35 16.5 -61.5t47.5 -44t74.5 -26t96.5 -8.5t96.5 8.5t74 26t47.5 44t17 61.5v32zM421 -13q-87 0 -156.5 17t-118.5 51t-75 85.5t-26 119.5v32q0 68 26 119.5
t75 85.5t118.5 51t156.5 17t156.5 -17t118.5 -51t75 -85.5t26 -119.5v-32q0 -68 -26 -119.5t-75 -85.5t-118.5 -51t-156.5 -17zM966 700v-50h-766v50h766z" />
    <glyph glyph-name="oslash" unicode="&#xf8;" horiz-adv-x="842" 
d="M421 -13q-87 0 -158 17l-145 -210h-58l155 225q-81 31 -125.5 90.5t-44.5 150.5v32q0 68 26 119.5t75 85.5t118.5 51t156.5 17t158 -18l105 153h58l-115 -168q81 -31 125.5 -90.5t44.5 -149.5v-32q0 -68 -26 -119.5t-75 -85.5t-118.5 -51t-156.5 -17zM656 292
q0 47 -29 77.5t-81 46.5l-200 -291q17 -3 36 -4t39 -1q53 0 96.5 8.5t74 26t47.5 44t17 61.5v32zM421 432q-53 0 -96.5 -8.5t-74.5 -26t-47.5 -44t-16.5 -61.5v-32q0 -47 28.5 -77.5t80.5 -46.5l201 291q-17 2 -36 3.5t-39 1.5z" />
    <glyph glyph-name="otilde" unicode="&#xf5;" horiz-adv-x="842" 
d="M656 292q0 35 -17 61.5t-47.5 44t-74 26t-96.5 8.5t-96.5 -8.5t-74.5 -26t-47.5 -44t-16.5 -61.5v-32q0 -35 16.5 -61.5t47.5 -44t74.5 -26t96.5 -8.5t96.5 8.5t74 26t47.5 44t17 61.5v32zM421 -13q-87 0 -156.5 17t-118.5 51t-75 85.5t-26 119.5v32q0 68 26 119.5
t75 85.5t118.5 51t156.5 17t156.5 -17t118.5 -51t75 -85.5t26 -119.5v-32q0 -68 -26 -119.5t-75 -85.5t-118.5 -51t-156.5 -17zM796 822l-375 -201l-79 57l-272 -144l-23 43l298 158l79 -57l349 187z" />
    <glyph glyph-name="oe" unicode="&#x153;" horiz-adv-x="1373" 
d="M656 292q0 35 -17 61.5t-47.5 44t-74 26t-96.5 8.5t-96.5 -8.5t-74.5 -26t-47.5 -44t-16.5 -61.5v-32q0 -35 16.5 -61.5t47.5 -44t74.5 -26t96.5 -8.5t96.5 8.5t74 26t47.5 44t17 61.5v32zM421 -13q-87 0 -156.5 17t-118.5 51t-75 85.5t-26 119.5v32q0 68 26 119.5
t75 85.5t118.5 51t156.5 17t156.5 -17t118.5 -51t75 -85.5t26 -119.5v-32q0 -68 -26 -119.5t-75 -85.5t-118.5 -51t-156.5 -17zM1245 130l-128 -130h-100q-179 0 -270 61t-91 199v22q0 69 25.5 122t72 88.5t111.5 54t145 18.5q77 0 138.5 -17.5t105 -52.5t66.5 -87t23 -121
v-49h-544q8 -59 63 -83.5t150 -24.5h233zM1007 439q-82 0 -131.5 -26t-67.5 -71h370q-22 97 -171 97z" />
    <glyph glyph-name="thorn" unicode="&#xfe;" horiz-adv-x="850" 
d="M805 260q0 -62 -21 -112.5t-59 -86t-90 -55t-115 -19.5q-50 0 -94 11t-80.5 29t-66 41.5t-50.5 49.5v-324h-149v968h149v-328q21 25 50.5 48.5t66 42t80.5 29.5t94 11q63 0 115 -19.5t90 -55t59 -86t21 -112.5v-32zM461 125q43 0 80 8t64.5 24.5t43 42t15.5 60.5v32
q0 35 -15.5 60.5t-43 42t-64.5 24.5t-80 8q-32 0 -64.5 -5.5t-63 -14t-57.5 -20t-47 -23.5v-176q20 -12 47 -23.5t57.5 -20.5t63 -14t64.5 -5z" />
    <glyph glyph-name="racute" unicode="&#x155;" horiz-adv-x="546" 
d="M229 550v-130q9 21 25 42.5t37 41t47.5 34t58.5 20.5l159 -164h-144q-62 0 -108.5 -13.5t-74.5 -42.5v-338h-149v550h149zM975 820l-1049 -287l-12 45l1049 287z" />
    <glyph glyph-name="rcaron" unicode="&#x159;" horiz-adv-x="546" 
d="M229 550v-130q9 21 25 42.5t37 41t47.5 34t58.5 20.5l159 -164h-144q-62 0 -108.5 -13.5t-74.5 -42.5v-338h-149v550h149zM268 531l-483 294l24 41l458 -282l216 133l24 -42z" />
    <glyph glyph-name="uni0157" unicode="&#x157;" horiz-adv-x="546" 
d="M229 550v-130q9 21 25 42.5t37 41t47.5 34t58.5 20.5l159 -164h-144q-62 0 -108.5 -13.5t-74.5 -42.5v-338h-149v550h149zM-58 -206h87l249 155h-87z" />
    <glyph glyph-name="sacute" unicode="&#x15b;" horiz-adv-x="719" 
d="M37 207h145q4 -24 21.5 -42.5t45 -30.5t63 -18t76.5 -6q79 0 114.5 17t35.5 36v6q0 18 -24 24t-70 13l-187 29q-48 7 -84.5 18.5t-61 29.5t-37.5 44t-13 63v9q0 85 72 125.5t206 40.5q135 0 217.5 -47t93.5 -138h-146q-7 17 -24 29t-41 19.5t-52 11t-58 3.5
q-127 0 -127 -39v-6q0 -9 8 -15.5t21.5 -11t31 -7.5t36.5 -6l211 -33q80 -13 124 -45.5t44 -97.5v-15q0 -94 -74 -137t-216 -43q-72 0 -135.5 12t-111 38.5t-75.5 68t-29 101.5zM1047 820l-1049 -287l-12 45l1049 287z" />
    <glyph glyph-name="scaron" unicode="&#x161;" horiz-adv-x="719" 
d="M37 207h145q4 -24 21.5 -42.5t45 -30.5t63 -18t76.5 -6q79 0 114.5 17t35.5 36v6q0 18 -24 24t-70 13l-187 29q-48 7 -84.5 18.5t-61 29.5t-37.5 44t-13 63v9q0 85 72 125.5t206 40.5q135 0 217.5 -47t93.5 -138h-146q-7 17 -24 29t-41 19.5t-52 11t-58 3.5
q-127 0 -127 -39v-6q0 -9 8 -15.5t21.5 -11t31 -7.5t36.5 -6l211 -33q80 -13 124 -45.5t44 -97.5v-15q0 -94 -74 -137t-216 -43q-72 0 -135.5 12t-111 38.5t-75.5 68t-29 101.5zM340 531l-483 294l24 41l458 -282l216 133l24 -42z" />
    <glyph glyph-name="scedilla" unicode="&#x15f;" horiz-adv-x="719" 
d="M37 207h145q4 -24 21.5 -42.5t45 -30.5t63 -18t76.5 -6q79 0 114.5 17t35.5 36v6q0 18 -24 24t-70 13l-187 29q-48 7 -84.5 18.5t-61 29.5t-37.5 44t-13 63v9q0 85 72 125.5t206 40.5q135 0 217.5 -47t93.5 -138h-146q-7 17 -24 29t-41 19.5t-52 11t-58 3.5
q-127 0 -127 -39v-6q0 -9 8 -15.5t21.5 -11t31 -7.5t36.5 -6l211 -33q80 -13 124 -45.5t44 -97.5v-15q0 -94 -74 -137t-216 -43q-72 0 -135.5 12t-111 38.5t-75.5 68t-29 101.5zM444 -48l34 -34l-146 -145l-34 33z" />
    <glyph glyph-name="scircumflex" unicode="&#x15d;" horiz-adv-x="719" 
d="M37 207h145q4 -24 21.5 -42.5t45 -30.5t63 -18t76.5 -6q79 0 114.5 17t35.5 36v6q0 18 -24 24t-70 13l-187 29q-48 7 -84.5 18.5t-61 29.5t-37.5 44t-13 63v9q0 85 72 125.5t206 40.5q135 0 217.5 -47t93.5 -138h-146q-7 17 -24 29t-41 19.5t-52 11t-58 3.5
q-127 0 -127 -39v-6q0 -9 8 -15.5t21.5 -11t31 -7.5t36.5 -6l211 -33q80 -13 124 -45.5t44 -97.5v-15q0 -94 -74 -137t-216 -43q-72 0 -135.5 12t-111 38.5t-75.5 68t-29 101.5zM340 866l239 -144l-24 -42l-216 132l-458 -281l-24 41z" />
    <glyph glyph-name="uni0219" unicode="&#x219;" horiz-adv-x="719" 
d="M37 207h145q4 -24 21.5 -42.5t45 -30.5t63 -18t76.5 -6q79 0 114.5 17t35.5 36v6q0 18 -24 24t-70 13l-187 29q-48 7 -84.5 18.5t-61 29.5t-37.5 44t-13 63v9q0 85 72 125.5t206 40.5q135 0 217.5 -47t93.5 -138h-146q-7 17 -24 29t-41 19.5t-52 11t-58 3.5
q-127 0 -127 -39v-6q0 -9 8 -15.5t21.5 -11t31 -7.5t36.5 -6l211 -33q80 -13 124 -45.5t44 -97.5v-15q0 -94 -74 -137t-216 -43q-72 0 -135.5 12t-111 38.5t-75.5 68t-29 101.5zM425 -51h87l-249 -155h-87z" />
    <glyph glyph-name="germandbls" unicode="&#xdf;" horiz-adv-x="892" 
d="M591 -13q-64 0 -122 12t-102 38t-70 68t-27 102h145q4 -24 19.5 -42.5t39.5 -30.5t54 -18t63 -6q64 1 92 17t28 31v6q0 18 -24 24.5t-70 17.5l-127 29q-48 11 -84.5 22.5t-61 28.5t-37.5 42t-13 62v9q0 85 64.5 125.5t183.5 40.5h29l-185 73q-74 0 -115.5 -20t-41.5 -68
v-550h-149v550q0 47 17 86t50 67t81 43.5t110 15.5h168l271 -278q21 -22 31.5 -47t14.5 -57h-146q-7 17 -22.5 29t-35 19.5t-42.5 11t-45 3.5q-48 0 -72.5 -10t-24.5 -27v-6q0 -9 8 -15t21.5 -10.5t31 -8.5t36.5 -8l151 -33q40 -9 71 -20t52.5 -27.5t33 -40t11.5 -55.5v-15
q0 -94 -66.5 -136.5t-193.5 -43.5z" />
    <glyph glyph-name="tbar" unicode="&#x167;" horiz-adv-x="626" 
d="M23 550h125v150h149v-150h190l126 -130h-316v-85h642v-50h-642v-85l303 -200h-254l-198 131v154h-125v50h125v85h-125v130z" />
    <glyph glyph-name="tcaron" unicode="&#x165;" horiz-adv-x="626" 
d="M346 0l-198 131v289h-125v130h125v150h149v-150h190l126 -130h-316v-220l303 -200h-254zM347 792h50v-206h-50v206z" />
    <glyph glyph-name="uni021B" unicode="&#x21b;" horiz-adv-x="626" 
d="M346 0l-198 131v289h-125v130h125v150h149v-150h190l126 -130h-316v-220l303 -200h-254zM510 -51h87l-249 -155h-87z" />
    <glyph glyph-name="uacute" unicode="&#xfa;" horiz-adv-x="804" 
d="M724 550v-550h-149v120q-20 -25 -47 -49t-60 -42.5t-71 -30t-78 -11.5q-60 0 -107 18.5t-80 53t-50 83.5t-17 110v298h149v-268q0 -45 8 -75t26 -48.5t47 -26t71 -7.5q55 0 111 19.5t98 45.5v360h149zM1015 820l-1049 -287l-12 45l1049 287z" />
    <glyph glyph-name="ubreve" unicode="&#x16d;" horiz-adv-x="804" 
d="M724 550v-550h-149v120q-20 -25 -47 -49t-60 -42.5t-71 -30t-78 -11.5q-60 0 -107 18.5t-80 53t-50 83.5t-17 110v298h149v-268q0 -45 8 -75t26 -48.5t47 -26t71 -7.5q55 0 111 19.5t98 45.5v360h149zM284 650q-68 0 -94.5 31.5t-26.5 84.5h52q0 -13 1.5 -25t8.5 -21
t21 -14.5t38 -5.5h220q24 0 38 5.5t21 14.5t8.5 21t1.5 25v143h52v-143q0 -53 -26.5 -84.5t-94.5 -31.5h-220z" />
    <glyph glyph-name="ucircumflex" unicode="&#xfb;" horiz-adv-x="804" 
d="M724 550v-550h-149v120q-20 -25 -47 -49t-60 -42.5t-71 -30t-78 -11.5q-60 0 -107 18.5t-80 53t-50 83.5t-17 110v298h149v-268q0 -45 8 -75t26 -48.5t47 -26t71 -7.5q55 0 111 19.5t98 45.5v360h149zM394 866l239 -144l-24 -42l-216 132l-458 -281l-24 41z" />
    <glyph glyph-name="udieresis" unicode="&#xfc;" horiz-adv-x="804" 
d="M724 550v-550h-149v120q-20 -25 -47 -49t-60 -42.5t-71 -30t-78 -11.5q-60 0 -107 18.5t-80 53t-50 83.5t-17 110v298h149v-268q0 -45 8 -75t26 -48.5t47 -26t71 -7.5q55 0 111 19.5t98 45.5v360h149zM266 805h52v-206h-52v206zM684 700v-50h-206v50h206z" />
    <glyph glyph-name="ugrave" unicode="&#xf9;" horiz-adv-x="804" 
d="M724 550v-550h-149v120q-20 -25 -47 -49t-60 -42.5t-71 -30t-78 -11.5q-60 0 -107 18.5t-80 53t-50 83.5t-17 110v298h149v-268q0 -45 8 -75t26 -48.5t47 -26t71 -7.5q55 0 111 19.5t98 45.5v360h149zM-227 820l12 45l1049 -287l-12 -45z" />
    <glyph glyph-name="uhungarumlaut" unicode="&#x171;" horiz-adv-x="804" 
d="M724 550v-550h-149v120q-20 -25 -47 -49t-60 -42.5t-71 -30t-78 -11.5q-60 0 -107 18.5t-80 53t-50 83.5t-17 110v284l-13 -3l-12 45l1049 287l12 -45l-987 -270h100v-268q0 -45 8 -75t26 -48.5t47 -26t71 -7.5q55 0 111 19.5t98 45.5v360h149zM1101 722l-527 -145
l-12 45l527 145z" />
    <glyph glyph-name="umacron" unicode="&#x16b;" horiz-adv-x="804" 
d="M724 550v-550h-149v120q-20 -25 -47 -49t-60 -42.5t-71 -30t-78 -11.5q-60 0 -107 18.5t-80 53t-50 83.5t-17 110v298h149v-268q0 -45 8 -75t26 -48.5t47 -26t71 -7.5q55 0 111 19.5t98 45.5v360h149zM939 700v-50h-766v50h766z" />
    <glyph glyph-name="uni0163" unicode="&#x163;" horiz-adv-x="626" 
d="M346 0l-198 131v289h-125v130h125v150h149v-150h190l126 -130h-316v-220l303 -200h-254zM510 -51h87l-249 -155h-87z" />
    <glyph glyph-name="uni0233" unicode="&#x233;" horiz-adv-x="737" 
d="M737 550l-398 -756h-171l108 206h-104l-155 550h159l136 -483l254 483h171zM916 700v-50h-766v50h766z" />
    <glyph glyph-name="uni1ECB" unicode="&#x1ecb;" horiz-adv-x="309" 
d="M229 550v-550h-149v550h149zM442 762v-123h-362v123h362zM129 -49h50v-157h-50v157z" />
    <glyph glyph-name="uni1ECD" unicode="&#x1ecd;" horiz-adv-x="842" 
d="M656 292q0 35 -17 61.5t-47.5 44t-74 26t-96.5 8.5t-96.5 -8.5t-74.5 -26t-47.5 -44t-16.5 -61.5v-32q0 -35 16.5 -61.5t47.5 -44t74.5 -26t96.5 -8.5t96.5 8.5t74 26t47.5 44t17 61.5v32zM421 -13q-87 0 -156.5 17t-118.5 51t-75 85.5t-26 119.5v32q0 68 26 119.5
t75 85.5t118.5 51t156.5 17t156.5 -17t118.5 -51t75 -85.5t26 -119.5v-32q0 -68 -26 -119.5t-75 -85.5t-118.5 -51t-156.5 -17zM396 -49h50v-157h-50v157z" />
    <glyph glyph-name="uni1EE5" unicode="&#x1ee5;" horiz-adv-x="804" 
d="M724 550v-550h-149v120q-20 -25 -47 -49t-60 -42.5t-71 -30t-78 -11.5q-60 0 -107 18.5t-80 53t-50 83.5t-17 110v298h149v-268q0 -45 8 -75t26 -48.5t47 -26t71 -7.5q55 0 111 19.5t98 45.5v360h149zM369 -206h50v157h-50v-157z" />
    <glyph glyph-name="uogonek" unicode="&#x173;" horiz-adv-x="804" 
d="M724 550v-756h-50v206h-99v120q-20 -25 -47 -49t-60 -42.5t-71 -30t-78 -11.5q-60 0 -107 18.5t-80 53t-50 83.5t-17 110v298h149v-268q0 -45 8 -75t26 -48.5t47 -26t71 -7.5q55 0 111 19.5t98 45.5v360h149z" />
    <glyph glyph-name="uring" unicode="&#x16f;" horiz-adv-x="804" 
d="M724 550v-550h-149v120q-20 -25 -47 -49t-60 -42.5t-71 -30t-78 -11.5q-60 0 -107 18.5t-80 53t-50 83.5t-17 110v298h149v-268q0 -45 8 -75t26 -48.5t47 -26t71 -7.5q55 0 111 19.5t98 45.5v360h149zM394 505q-50 0 -94.5 19.5t-77.5 52.5t-52.5 77.5t-19.5 94.5
q0 51 19.5 95.5t52.5 77.5t77.5 52.5t94.5 19.5q51 0 95.5 -19.5t77.5 -52.5t52.5 -77.5t19.5 -95.5q0 -50 -19.5 -94.5t-52.5 -77.5t-77.5 -52.5t-95.5 -19.5zM394 550q42 0 78.5 15.5t63.5 42.5t42.5 63.5t15.5 77.5q0 42 -15.5 78.5t-42.5 63.5t-63.5 42.5t-78.5 15.5
q-41 0 -77.5 -15.5t-63.5 -42.5t-42.5 -63.5t-15.5 -78.5q0 -41 15.5 -77.5t42.5 -63.5t63.5 -42.5t77.5 -15.5z" />
    <glyph glyph-name="utilde" unicode="&#x169;" horiz-adv-x="804" 
d="M724 550v-550h-149v120q-20 -25 -47 -49t-60 -42.5t-71 -30t-78 -11.5q-60 0 -107 18.5t-80 53t-50 83.5t-17 110v293l-22 -11l-23 43l298 158l79 -57l349 187l23 -43l-375 -201l-79 57l-242 -128h141v-268q0 -45 8 -75t26 -48.5t47 -26t71 -7.5q55 0 111 19.5t98 45.5
v360h149z" />
    <glyph glyph-name="wacute" unicode="&#x1e83;" horiz-adv-x="988" 
d="M129 0l-107 550h158l87 -465l227 540l227 -540l87 465h158l-107 -550h-254l-111 292l-111 -292h-254zM1201 820l-1049 -287l-12 45l1049 287z" />
    <glyph glyph-name="wcircumflex" unicode="&#x175;" horiz-adv-x="988" 
d="M129 0l-107 550h158l87 -465l227 540l227 -540l87 465h158l-107 -550h-254l-111 292l-111 -292h-254zM494 866l239 -144l-24 -42l-216 132l-458 -281l-24 41z" />
    <glyph glyph-name="wdieresis" unicode="&#x1e85;" horiz-adv-x="988" 
d="M129 0l-107 550h158l87 -465l227 540l227 -540l87 465h158l-107 -550h-254l-111 292l-111 -292h-254zM366 805h52v-206h-52v206zM784 700v-50h-206v50h206z" />
    <glyph glyph-name="wgrave" unicode="&#x1e81;" horiz-adv-x="988" 
d="M129 0l-107 550h158l87 -465l227 540l227 -540l87 465h158l-107 -550h-254l-111 292l-111 -292h-254zM-212 820l12 45l1049 -287l-12 -45z" />
    <glyph glyph-name="yacute" unicode="&#xfd;" horiz-adv-x="737" 
d="M737 550l-398 -756h-171l108 206h-104l-155 550h159l136 -483l254 483h171zM1032 820l-1049 -287l-12 45l1049 287z" />
    <glyph glyph-name="ycircumflex" unicode="&#x177;" horiz-adv-x="737" 
d="M737 550l-398 -756h-171l108 206h-104l-155 550h159l136 -483l254 483h171zM372 866l239 -144l-24 -42l-216 132l-458 -281l-24 41z" />
    <glyph glyph-name="ydieresis" unicode="&#xff;" horiz-adv-x="737" 
d="M737 550l-398 -756h-171l108 206h-104l-155 550h159l136 -483l254 483h171zM243 805h52v-206h-52v206zM661 700v-50h-206v50h206z" />
    <glyph glyph-name="ygrave" unicode="&#x1ef3;" horiz-adv-x="737" 
d="M737 550l-398 -756h-171l108 206h-104l-155 550h159l136 -483l254 483h171zM-465 820l12 45l1049 -287l-12 -45z" />
    <glyph glyph-name="zacute" unicode="&#x17a;" horiz-adv-x="718" 
d="M639 550v-130l-346 -290h412v-130h-591v130l345 290h-421v130h601zM1035 820l-1049 -287l-12 45l1049 287z" />
    <glyph glyph-name="zcaron" unicode="&#x17e;" horiz-adv-x="718" 
d="M639 550v-130l-346 -290h412v-130h-591v130l345 290h-421v130h601zM328 531l-483 294l24 41l458 -282l216 133l24 -42z" />
    <glyph glyph-name="zdotaccent" unicode="&#x17c;" horiz-adv-x="718" 
d="M639 550v-130l-346 -290h412v-130h-591v130l345 290h-421v130h601zM302 805h50v-206h-50v206z" />
    <glyph glyph-name="glyph368" horiz-adv-x="841" 
d="M75 700h158v-558h563v-142h-721v700zM542 332h50v206h-50v-206z" />
    <glyph glyph-name="uniFB01" unicode="&#xfb01;" horiz-adv-x="858" 
d="M30 420v130h109q0 47 17 86t50 67t81 43.5t110 15.5h168l155 -159l-275 35q-74 0 -115.5 -20t-41.5 -68h241v-130h-241v-420h-149v420h-109zM778 550v-550h-149v550h149zM991 762v-123h-276v123h276z" />
    <glyph glyph-name="uniFB02" unicode="&#xfb02;" horiz-adv-x="858" 
d="M139 550q0 47 17 86t50 67t81 43.5t110 15.5h168l213 -219v-543h-149v615l-184 23q-74 0 -115.5 -20t-41.5 -68h241v-130h-241v-420h-149v420h-109v130h109z" />
    <glyph glyph-name="glyph393" horiz-adv-x="359" 
d="M229 762v-762h-149v762h149zM309 539h50v-206h-50v206z" />
    <glyph glyph-name="uniFB00" unicode="&#xfb00;" horiz-adv-x="1120" 
d="M30 550h109q0 47 17 86t50 67t81 43.5t110 15.5h168l96 -99q30 46 87 72.5t139 26.5h168l155 -159l-275 35q-74 0 -115.5 -20t-41.5 -68h284v-130h-284v-420h-149v420h-94v130h94q0 34 9 63l-193 25q-74 0 -115.5 -20t-41.5 -68h182v-130h-182v-420h-149v420h-109v130z
" />
    <glyph glyph-name="uniFB03" unicode="&#xfb03;" horiz-adv-x="1348" 
d="M30 420v130h109q0 47 17 86t50 67t81 43.5t110 15.5h168l96 -99q30 46 87 72.5t139 26.5h168l155 -159l-275 35q-74 0 -115.5 -20t-41.5 -68h241v-130h-241v-420h-149v420h-94v130h94q0 34 9 63l-193 25q-74 0 -115.5 -20t-41.5 -68h182v-130h-182v-420h-149v420h-109z
M1268 550v-550h-149v550h149zM1481 762v-123h-276v123h276z" />
    <glyph glyph-name="uniFB04" unicode="&#xfb04;" horiz-adv-x="1348" 
d="M30 550h109q0 47 17 86t50 67t81 43.5t110 15.5h168l96 -99q30 46 87 72.5t139 26.5h168l213 -219v-543h-149v615l-184 23q-74 0 -115.5 -20t-41.5 -68h241v-130h-241v-420h-149v420h-94v130h94q0 34 9 63l-193 25q-74 0 -115.5 -20t-41.5 -68h182v-130h-182v-420h-149
v420h-109v130z" />
    <glyph glyph-name="glyph399" horiz-adv-x="545" 
d="M160 300q0 24 9 44.5t24 35.5t35.5 24t44.5 9q23 0 43.5 -9t35.5 -24t24 -35.5t9 -44.5q0 -23 -9 -43.5t-24 -35.5t-35.5 -24t-43.5 -9q-24 0 -44.5 9t-35.5 24t-24 35.5t-9 43.5z" />
    <glyph glyph-name="uni2007" unicode="&#x2007;" horiz-adv-x="1112" 
 />
    <glyph glyph-name="uni2008" unicode="&#x2008;" horiz-adv-x="428" 
 />
    <glyph glyph-name="uni2009" unicode="&#x2009;" horiz-adv-x="70" 
 />
    <glyph glyph-name="uni200B" unicode="&#x200b;" horiz-adv-x="0" 
 />
    <glyph glyph-name="uniFEFF" unicode="&#xfeff;" horiz-adv-x="0" 
 />
    <glyph glyph-name="glyph405" horiz-adv-x="1107" 
d="M589 0h-151l-245 113l-44 -4v-109h-71v315h257l21 70h-5h-273v315h230q46 0 75 -25t29 -60q0 -6 -1 -12.5t-3 -12.5l2 2l52 162l-138 -41l325 623l-129 -400l147 43l-108 -279h140l221 227l-89 -153l65 5l-58 -79q51 -1 80 -25.5t29 -67.5q0 -47 -30 -66.5t-82 -24.5
l-16 -2l373 -594l-261 249q-14 -18 -38.5 -26.5t-57.5 -11.5l-18 -2l95 -309l-257 295l-66 -6v-109zM589 385h-70v74l-69 -154q55 -22 55 -83q0 -47 -29.5 -66.5t-81.5 -24.5l-82 -8l207 -95v287h260l-187 179h-3v-109zM840 577q16 2 26 8.5t10 21.5q0 16 -10 22.5t-26 6.5
h-251v-82zM399 192q16 2 26 8.5t10 21.5q0 16 -10 22.5t-26 6.5h-250v-82zM840 192q16 2 26 8.5t10 21.5l-30 29h-6h-251v-82zM349 449q15 0 26 9t11 24q0 16 -11 24.5t-26 8.5h-200v-66h200zM311 575q17 0 26 9t9 22q0 14 -9 22t-26 8h-162v-61h162z" />
    <glyph glyph-name="glyph406" horiz-adv-x="336" 
d="M249 -51h87l-249 -155h-87z" />
    <glyph glyph-name="glyph407" horiz-adv-x="528" 
d="M441 875h87l-441 -274h-87z" />
    <glyph glyph-name="acute" unicode="&#xb4;" horiz-adv-x="1061" 
d="M1061 820l-1049 -287l-12 45l1049 287z" />
    <glyph glyph-name="breve" unicode="&#x2d8;" horiz-adv-x="462" 
d="M121 650q-68 0 -94.5 31.5t-26.5 84.5h52q0 -13 1.5 -25t8.5 -21t21 -14.5t38 -5.5h220q24 0 38 5.5t21 14.5t8.5 21t1.5 25v143h52v-143q0 -53 -26.5 -84.5t-94.5 -31.5h-220z" />
    <glyph glyph-name="caron" unicode="&#x2c7;" horiz-adv-x="722" 
d="M483 531l-483 294l24 41l458 -282l216 133l24 -42z" />
    <glyph glyph-name="cedilla" unicode="&#xb8;" horiz-adv-x="180" 
d="M146 -48l34 -34l-146 -145l-34 33z" />
    <glyph glyph-name="circumflex" unicode="&#x2c6;" horiz-adv-x="722" 
d="M483 866l239 -144l-24 -42l-216 132l-458 -281l-24 41z" />
    <glyph glyph-name="dieresis" unicode="&#xa8;" horiz-adv-x="418" 
d="M0 805h52v-206h-52v206zM418 700v-50h-206v50h206z" />
    <glyph glyph-name="dotaccent" unicode="&#x2d9;" horiz-adv-x="50" 
d="M0 805h50v-206h-50v206z" />
    <glyph glyph-name="grave" unicode="`" horiz-adv-x="1061" 
d="M0 820l12 45l1049 -287l-12 -45z" />
    <glyph glyph-name="hungarumlaut" unicode="&#x2dd;" horiz-adv-x="1061" 
d="M1061 722l-527 -145l-12 45l527 145zM1061 820l-1049 -287l-12 45l1049 287z" />
    <glyph glyph-name="macron" unicode="&#xaf;" horiz-adv-x="766" 
d="M766 700v-50h-766v50h766z" />
    <glyph glyph-name="ogonek" unicode="&#x2db;" horiz-adv-x="50" 
d="M0 -206v206h50v-206h-50z" />
    <glyph glyph-name="ring" unicode="&#x2da;" horiz-adv-x="589" 
d="M294 655q-50 0 -94.5 19.5t-77.5 52.5t-52.5 77.5t-19.5 94.5q0 51 19.5 95.5t52.5 77.5t77.5 52.5t94.5 19.5q51 0 95.5 -19.5t77.5 -52.5t52.5 -77.5t19.5 -95.5q0 -50 -19.5 -94.5t-52.5 -77.5t-77.5 -52.5t-95.5 -19.5zM294 700q42 0 78.5 15.5t63.5 42.5t42.5 63.5
t15.5 77.5q0 42 -15.5 78.5t-42.5 63.5t-63.5 42.5t-78.5 15.5q-41 0 -77.5 -15.5t-63.5 -42.5t-42.5 -63.5t-15.5 -78.5q0 -41 15.5 -77.5t42.5 -63.5t63.5 -42.5t77.5 -15.5z" />
    <glyph glyph-name="tilde" unicode="&#x2dc;" horiz-adv-x="749" 
d="M749 822l-375 -201l-79 57l-272 -144l-23 43l298 158l79 -57l349 187z" />
    <glyph glyph-name="glyph421" horiz-adv-x="1061" 
d="M1061 920l-1049 -287l-12 45l1049 287z" />
    <glyph glyph-name="glyph422" horiz-adv-x="462" 
d="M121 750q-68 0 -94.5 31.5t-26.5 84.5h52q0 -13 1.5 -25t8.5 -21t21 -14.5t38 -5.5h220q24 0 38 5.5t21 14.5t8.5 21t1.5 25v143h52v-143q0 -53 -26.5 -84.5t-94.5 -31.5h-220z" />
    <glyph glyph-name="glyph423" horiz-adv-x="722" 
d="M483 681l-483 294l24 41l458 -282l216 133l24 -42z" />
    <glyph glyph-name="glyph424" horiz-adv-x="180" 
d="M146 -48l34 -34l-146 -145l-34 33z" />
    <glyph glyph-name="glyph425" horiz-adv-x="722" 
d="M483 966l239 -144l-24 -42l-216 132l-458 -281l-24 41z" />
    <glyph glyph-name="glyph426" horiz-adv-x="418" 
d="M0 955h52v-206h-52v206zM418 850v-50h-206v50h206z" />
    <glyph glyph-name="glyph427" horiz-adv-x="50" 
d="M0 955h50v-206h-50v206z" />
    <glyph glyph-name="glyph428" horiz-adv-x="1061" 
d="M0 920l12 45l1049 -287l-12 -45z" />
    <glyph glyph-name="glyph429" horiz-adv-x="1061" 
d="M1061 822l-248 -68l-12 45l248 68zM1061 920l-1049 -287l-12 45l1049 287z" />
    <glyph glyph-name="glyph430" horiz-adv-x="766" 
d="M766 800v-50h-766v50h766z" />
    <glyph glyph-name="glyph431" horiz-adv-x="50" 
d="M0 -206v206h50v-206h-50z" />
    <glyph glyph-name="glyph432" horiz-adv-x="749" 
d="M749 922l-375 -201l-79 57l-272 -144l-23 43l298 158l79 -57l349 187z" />
    <glyph glyph-name="glyph433" horiz-adv-x="418" 
d="M0 805h52v-206h-52v206zM418 700v-50h-206v50h206z" />
    <glyph glyph-name="glyph434" horiz-adv-x="50" 
d="M0 -49h50v-157h-50v157z" />
    <glyph glyph-name="glyph435" horiz-adv-x="50" 
d="M0 762h50v-206h-50v206z" />
    </font>
</defs>
</svg>
